<svg width="507" height="498" viewBox="0 0 507 498" fill="none" xmlns="http://www.w3.org/2000/svg">
<path d="M15.4395 395.249C14.81 401.262 14.1792 407.316 14.659 413.343C15.157 419.596 16.8398 425.686 18.514 431.731C22.0476 444.492 25.815 457.701 34.4274 467.758C36.6447 470.347 39.2249 472.732 42.3688 474.049C46.4625 475.763 51.1565 475.502 55.4292 474.303C63.7226 471.975 70.8044 466.287 75.9696 459.394C81.1348 452.501 84.5284 444.439 87.178 436.243C90.0139 427.471 92.0558 418.441 93.2723 409.303C94.6713 398.785 94.882 387.642 90.3256 378.06C86.3098 369.613 78.993 363.229 71.4595 357.687C63.9271 352.148 55.7568 347.096 46.6147 345.136C38.7037 343.44 22.7356 344.028 19.834 353.273C17.9162 359.386 18.3582 367.394 17.6897 373.78C16.9384 380.937 16.1896 388.093 15.4395 395.249Z" fill="#E0A988"/>
<path d="M323.788 465.682C327.24 469.637 331.242 473.28 336.102 475.263C340.961 477.245 346.811 477.345 351.236 474.521C354.729 472.291 356.948 468.578 359.013 464.986C363.91 456.466 368.742 447.632 370.261 437.924C372.514 423.527 367.234 409.074 361.189 395.815C358.09 389.018 354.764 382.324 351.219 375.747C347.709 369.239 343.963 362.812 339.241 357.122C336.187 353.441 332.665 350.036 328.393 347.885C324.12 345.735 319.001 344.951 314.496 346.557C309.361 348.387 305.71 352.985 303.106 357.772C295.308 372.106 297.204 385.161 299.363 400.373C301.48 415.301 304.404 430.344 310.464 444.231C313.844 451.978 318.22 459.304 323.788 465.682Z" fill="#E0A988"/>
<g filter="url(#filter0_n_4_134)">
<path d="M73.5153 497.277C86.8776 460.025 95.0163 426.803 92.4776 388.73C66.1035 390.639 39.1474 383.244 17.4405 368.142C12.2363 364.522 6.21995 361.881 0.000244141 363.104C5.79499 339.874 12.2314 316.804 19.2986 293.928C25.2906 274.537 31.8306 255.079 42.5434 237.841C53.2562 220.603 68.613 205.562 87.7519 198.807C100.699 194.237 136.903 191.519 139.936 189.66C143.511 187.468 145.22 183.208 146.185 179.126C147.517 173.496 147.878 167.637 147.246 161.884C161.134 164.82 176.725 166.554 190.846 165.1C204.967 163.648 219.172 157.775 227.936 146.607C228.243 161.397 231.125 177.759 242.49 187.231C246.173 190.3 250.638 192.293 255.193 193.79C272.162 199.368 290.874 198.534 307.437 205.221C326.776 213.029 340.95 230.349 349.888 249.192C358.824 268.035 363.258 288.627 368.603 308.787C373.948 328.945 380.477 349.263 392.868 366.039C363.121 382.669 333.457 395.912 300.737 405.44C296.558 435.875 294.322 467.236 295.513 497.932L73.5153 497.277Z" fill="url(#paint0_linear_4_134)"/>
</g>
<path d="M103.025 285.854C99.3722 268.054 93.5409 250.467 77.8662 241.275C85.776 259.712 87.9215 280.045 89.4119 300.054C91.4782 327.768 92.4633 355.565 92.3671 383.356C92.361 385.169 92.2404 386.965 92.0541 388.751C92.1954 388.742 92.3366 388.741 92.4779 388.73C93.8246 408.933 92.143 427.771 88.2916 446.57C91.5366 437.188 94.4748 427.7 97.0148 418.089C108.394 375.049 111.976 329.463 103.025 285.854Z" fill="#E0E0E0"/>
<path d="M385.656 354.756C369.31 368.159 350.353 378.38 330.137 384.563C323.773 386.509 317.289 388.063 311.003 390.242C307.267 391.536 303.31 393.308 301.487 396.817C300.113 399.462 300.261 402.418 301.048 405.347C333.646 395.826 363.216 382.617 392.868 366.039C390.203 362.432 387.825 358.654 385.656 354.756Z" fill="#E0E0E0"/>
<path d="M93.1962 374.993C61.8529 376.238 35.1318 350.432 4.08202 347.211C2.69148 352.501 1.32406 357.797 0.000488281 363.104C6.22019 361.879 12.2366 364.52 17.4408 368.142C39.1476 383.244 66.1037 390.639 92.4778 388.73C92.5216 389.379 92.5363 390.015 92.574 390.661C93.2254 385.469 93.4385 380.221 93.1962 374.993Z" fill="#E0E0E0"/>
<path d="M189.736 237.77C206.08 243.734 225.517 243.954 239.81 234.034C246.121 229.653 251.065 223.598 255.625 217.415C260.439 210.887 264.923 204.117 269.066 197.145C264.367 196.305 259.717 195.279 255.194 193.793C250.64 192.295 246.173 190.303 242.49 187.233C231.126 177.761 228.244 161.4 227.937 146.609C219.174 157.776 204.967 163.649 190.846 165.102C176.725 166.555 161.135 164.822 147.246 161.887C147.878 167.638 147.518 173.498 146.186 179.128C145.22 183.209 143.512 187.469 139.937 189.662C138.7 190.421 131.932 191.323 123.478 192.436C130.913 198.311 138.348 204.186 145.783 210.061C159.434 220.846 173.392 231.807 189.736 237.77Z" fill="#E0E0E0"/>
<path d="M147.421 369.301C153.483 381.376 160.377 393.275 170.088 402.669C179.8 412.063 192.711 418.795 206.223 418.657C215.034 418.566 223.557 415.616 231.692 412.229C241.463 408.16 250.948 403.409 260.059 398.021C247.907 419.387 224.84 434.146 200.348 436.226C195.021 436.678 189.551 436.551 184.481 434.858C179.087 433.058 174.428 429.591 169.937 426.101C163.337 420.971 156.758 415.548 152.207 408.534C148.491 402.807 146.28 396.246 144.341 389.699C140.361 376.252 137.377 362.536 134.395 348.832C133.131 343.022 127.869 304.508 122.853 304.355C122.999 314.68 129.631 327.722 133.336 337.389C137.5 348.25 142.202 358.906 147.421 369.301Z" fill="#E0E0E0"/>
<path d="M166.643 465.886C176.013 467.666 185.632 467.591 195.162 467.193C214.661 466.379 234.804 464.021 251.593 454.07C244.097 466.702 229.338 473.017 215.109 476.662C203.146 479.728 190.648 481.49 178.43 479.687C167.838 478.125 157.366 473.677 149.732 466.029C146.892 463.184 143.033 459.352 149.408 460.286C155.16 461.129 160.751 464.767 166.643 465.886Z" fill="#E0E0E0"/>
<path d="M335.406 238.044C319.342 251.995 310.139 272.147 302.943 292.168C290.637 326.407 282.798 362.248 279.687 398.497C276.851 431.537 277.923 464.858 275.151 497.871L295.512 497.931C294.321 467.234 296.556 435.874 300.735 405.439C300.948 405.377 301.158 405.311 301.371 405.249C301.43 370.611 302.069 335.65 310.905 302.202C316.758 280.043 326.101 258.989 335.406 238.044Z" fill="#E0E0E0"/>
<path d="M208.303 232.37C213.295 232.969 218.377 233.106 223.329 232.242C235.11 230.187 245.488 222.404 251.956 212.345C255.373 207.03 257.749 201.13 259.235 194.986C257.878 194.62 256.528 194.231 255.191 193.792C250.637 192.294 246.171 190.302 242.487 187.232C231.123 177.76 228.241 161.399 227.934 146.608C219.171 157.775 204.965 163.648 190.844 165.102C176.723 166.554 161.132 164.822 147.244 161.886C147.876 167.637 147.515 173.497 146.183 179.128C145.218 183.208 143.509 187.469 139.934 189.661C139.128 190.156 135.963 190.712 131.526 191.347C142.053 200.095 152.741 208.682 164.388 215.853C177.813 224.116 192.653 230.491 208.303 232.37Z" fill="#F0C49B"/>
<path d="M205.471 201.783C209.95 200.267 213.554 196.922 216.761 193.448C222.709 187.003 227.751 179.863 232.268 172.355C229.18 164.35 228.113 155.217 227.934 146.608C219.171 157.775 204.965 163.648 190.844 165.102C176.723 166.554 161.132 164.822 147.244 161.886C147.863 167.533 147.522 173.283 146.249 178.82C157.885 185.565 169.802 191.826 181.966 197.564C189.357 201.049 197.733 204.402 205.471 201.783Z" fill="#E0A988"/>
<path d="M27.8687 393.468C35.5788 385.164 46.0846 379.21 51.4861 369.25C55.5445 361.766 56.3554 352.584 61.7203 345.973C66.8076 339.706 75.2958 336.914 83.3639 337.163C91.432 337.41 99.181 340.338 106.458 343.832C109.365 345.227 112.356 346.832 114.128 349.529C116.506 353.15 116.15 357.86 115.572 362.153C113.374 378.458 109.24 394.431 105.115 410.357C103.824 415.342 102.528 420.341 100.681 425.148C97.6273 433.098 93.1172 440.393 88.5936 447.609C82.7794 456.885 76.8568 466.175 69.4499 474.237C66.2426 477.728 62.5581 481.095 57.9712 482.287C52.4443 483.724 46.4499 481.677 41.9897 478.112C37.5295 474.547 34.3721 469.624 31.602 464.631C26.2213 454.932 21.9924 444.594 19.0128 433.91C16.5666 425.142 14.1849 417.426 17.9486 408.835C20.4168 403.201 23.6752 397.983 27.8687 393.468Z" fill="#F0C49B"/>
<path d="M95.1941 307.808C96.1865 308.331 97.174 308.902 97.952 309.711C99.0796 310.882 99.6786 312.45 100.249 313.973C100.878 315.655 101.509 317.337 102.138 319.02C102.474 319.916 102.815 320.863 102.659 321.807C102.426 323.222 101.084 324.257 99.6774 324.537C98.271 324.817 96.816 324.486 95.4473 324.056C88.0307 321.728 81.6466 316.286 78.074 309.392C72.2148 298.088 90.7156 305.447 95.1941 307.808Z" fill="#C69075"/>
<path d="M69.2258 307.339C70.1573 305.299 71.5064 303.266 73.5947 302.447C76.3441 301.368 79.4491 302.727 81.8271 304.478C86.6307 308.015 90.1107 313.308 91.4538 319.12C92.0212 321.576 92.1758 324.315 90.8583 326.464C87.3905 332.124 78.145 329.345 74.3484 325.439C70.2632 321.235 66.7454 312.773 69.2258 307.339Z" fill="#F0C49B"/>
<path d="M228.979 159.471C228.998 159.588 229.013 159.707 229.032 159.824C229.013 159.707 228.998 159.59 228.979 159.471Z" fill="#F0C49B"/>
<path d="M228.536 156.069C228.56 156.293 228.586 156.516 228.612 156.74C228.587 156.517 228.561 156.293 228.536 156.069Z" fill="#F0C49B"/>
<path d="M228.04 149.669C228.052 149.93 228.07 150.192 228.084 150.453C228.07 150.193 228.052 149.931 228.04 149.669Z" fill="#F0C49B"/>
<path d="M147.434 164.021C147.387 163.309 147.325 162.597 147.247 161.886C147.324 162.597 147.386 163.308 147.434 164.021Z" fill="#F0C49B"/>
<path d="M252.231 192.729C251.582 194.659 250.938 196.59 250.266 198.512C248.795 202.721 247.233 206.967 244.637 210.59C241.106 215.519 235.824 219.013 230.146 221.137C219.59 225.087 207.745 224.496 196.904 221.411C186.064 218.327 176.056 212.89 166.322 207.21C156.988 201.762 147.816 196.036 138.805 190.069C137.348 190.458 134.786 190.88 131.528 191.347C142.055 200.095 152.743 208.682 164.39 215.853C177.813 224.117 192.654 230.491 208.304 232.37C213.295 232.969 218.377 233.106 223.33 232.242C235.11 230.187 245.488 222.404 251.956 212.345C255.373 207.03 257.75 201.13 259.235 194.986C257.879 194.62 256.529 194.231 255.192 193.792C254.198 193.465 253.21 193.109 252.231 192.729Z" fill="#E0A988"/>
<path d="M228.613 156.741C228.72 157.653 228.843 158.564 228.98 159.473C228.842 158.564 228.721 157.653 228.613 156.741Z" fill="#E0A988"/>
<path d="M228.302 153.635C228.37 154.447 228.448 155.258 228.537 156.07C228.446 155.258 228.37 154.446 228.302 153.635Z" fill="#E0A988"/>
<path d="M229.032 159.823C229.704 164.146 230.739 168.387 232.27 172.355C230.739 168.388 229.708 164.143 229.032 159.823Z" fill="#E0A988"/>
<path d="M147.538 168.28C147.526 168.946 147.501 169.611 147.463 170.276C147.499 169.611 147.526 168.946 147.538 168.28Z" fill="#E0A988"/>
<path d="M463.878 256.225C466.675 255.387 469.403 254.34 472.177 253.428C477.667 251.62 483.332 250.34 489.067 249.61C489.22 251.877 487.064 253.544 485.146 254.765C479.996 258.045 474.845 261.326 469.694 264.606C462.859 268.959 455.653 273.44 447.571 274.042C446.886 274.093 446.176 274.111 445.533 273.869C444.83 273.603 444.279 273.055 443.75 272.52C440.733 269.461 435.659 262.094 442.291 259.813C445.429 258.735 449.395 259.031 452.684 258.574C456.463 258.048 460.22 257.32 463.878 256.225Z" fill="#E0A988"/>
<path d="M399.71 318.734C402.2 377.868 386.963 421.231 382.806 430.744C377.094 443.815 369.426 455.972 360.726 467.275C356.91 472.232 352.172 477.421 345.931 477.838C343.505 478 341.076 477.393 338.851 476.413C332.677 473.693 328.062 468.197 325.081 462.144C322.1 456.091 321.023 449.253 319.422 442.698C315.199 425.414 319.126 408.118 326.159 391.774C334.979 371.275 351.383 354.591 358.988 333.611C365.096 316.759 369.937 296.737 377.312 278.98C379.832 272.912 382.965 266.978 387.569 262.29C390.975 258.822 395.086 256.137 399.233 253.602C410.35 246.808 421.996 240.882 434.032 235.895C435.732 235.19 437.522 234.493 439.354 234.661C441.187 234.83 443.05 236.158 443.175 237.995C443.273 239.412 442.361 240.682 441.469 241.789C435.427 249.288 428.196 255.827 420.126 261.083C427.173 263.522 435.302 258.042 442.495 260.012C448.967 261.785 452.689 268.84 453.328 275.521C453.966 282.202 452.315 288.869 451.887 295.567C451.767 297.459 451.732 299.412 450.967 301.147C449.592 304.268 446.334 306.889 442.924 306.921C433.451 307.014 424.033 308.423 414.762 310.372C409.255 311.53 403.002 313.039 399.71 318.734Z" fill="#F0C49B"/>
<path d="M424.954 252.682C420.01 256.247 413.463 256.462 407.373 256.235C411.914 256.606 416.339 258.284 419.984 261.015C420.314 261.262 420.687 261.355 421.084 261.346C420.764 261.267 420.443 261.192 420.127 261.082C428.196 255.824 435.428 249.287 441.47 241.787C442.361 240.681 443.273 239.412 443.176 237.993C443.05 236.157 441.186 234.829 439.355 234.659C439.233 234.648 439.114 234.651 438.992 234.646C436.17 239.832 432.75 244.69 428.794 249.074C427.615 250.38 426.381 251.653 424.954 252.682Z" fill="#E0A988"/>
<path d="M380.128 296.601C378.372 309.04 388.449 319.993 390.568 332.376C391.439 337.466 390.934 342.68 390.427 347.818C388.631 366.027 386.796 384.424 380.89 401.741C378.706 408.149 375.979 414.356 373.257 420.555C369.069 430.088 364.883 439.621 360.696 449.153C357.502 456.424 354.238 463.809 349.106 469.87C346.712 472.696 343.831 475.208 340.635 477.095C342.346 477.654 344.138 477.956 345.929 477.837C352.171 477.42 356.91 472.231 360.725 467.274C369.426 455.97 377.094 443.813 382.804 430.743C386.961 421.23 402.198 377.867 399.709 318.732C399.918 318.371 400.14 318.026 400.371 317.697C391.4 313.858 385.43 304.961 380.128 296.601Z" fill="#E0A988"/>
<path d="M417.898 269.003C419.88 267.662 421.911 266.199 424.281 265.87C428.978 265.221 433.058 269.24 435.244 273.447C437.443 277.679 438.595 282.449 438.57 287.218C438.552 290.636 437.524 294.599 434.371 295.921C431.662 297.059 428.619 295.742 425.897 294.637C421.288 292.765 416.449 291.458 411.525 290.754C403.968 289.674 395.308 289.585 390.258 283.858C387.47 280.69 400.135 278.257 402.589 277.239C407.95 275.016 413.089 272.254 417.898 269.003Z" fill="#E0A988"/>
<path d="M400.081 317.801C399.241 318.049 398.361 317.627 397.61 317.175C395.245 315.749 393.138 313.894 391.425 311.726" stroke="#BA7A5D" stroke-miterlimit="10" stroke-linecap="round" stroke-linejoin="round"/>
<path d="M420.123 265.117C419.128 266.895 417.493 268.213 415.847 269.412C411.187 272.808 406.111 275.632 400.768 277.8" stroke="#BA7A5D" stroke-miterlimit="10" stroke-linecap="round" stroke-linejoin="round"/>
<path d="M394.633 283.982C408.879 281.871 423.741 284.111 436.732 290.33" stroke="#BA7A5D" stroke-miterlimit="10" stroke-linecap="round" stroke-linejoin="round"/>
<path d="M418.841 249.645C420.113 252.084 421.961 254.221 424.19 255.832" stroke="#BA7A5D" stroke-miterlimit="10" stroke-linecap="round" stroke-linejoin="round"/>
<path d="M421.358 248.016C422.94 250.841 425.196 253.284 427.887 255.087" stroke="#BA7A5D" stroke-miterlimit="10" stroke-linecap="round" stroke-linejoin="round"/>
<path d="M448.374 269.882C464.935 258.876 482.023 247.845 501.342 243.133C502.35 242.887 503.401 242.658 504.419 242.866C505.435 243.076 506.412 243.843 506.529 244.874C506.632 245.79 506.066 246.635 505.5 247.361C497.187 258.026 483.844 263.162 472.566 270.624C468.129 273.559 463.972 276.892 459.655 280.001C458.027 281.173 456.346 282.328 454.443 282.966C452.541 283.602 450.36 283.668 448.6 282.705C445.916 281.237 444.899 277.67 445.66 274.708C446.42 271.745 448.592 269.337 450.997 267.447" fill="#F0C49B"/>
<path d="M448.387 269.87L450.998 267.446C450.069 268.175 449.178 268.985 448.387 269.87Z" fill="#F0C49B"/>
<path d="M448.375 269.881L448.38 269.877L448.387 269.87L448.375 269.881Z" fill="#F0C49B"/>
<path d="M505.041 243.073C502.448 246.575 499.375 249.72 495.92 252.377C490.431 256.599 484.096 259.546 478.008 262.847C467.649 268.464 457.903 275.198 448.965 282.874C450.656 283.646 452.67 283.561 454.444 282.967C456.346 282.33 458.026 281.175 459.655 280.002C463.973 276.895 468.13 273.561 472.567 270.625C483.845 263.163 497.188 258.027 505.501 247.362C506.067 246.635 506.633 245.791 506.53 244.876C506.437 244.058 505.804 243.412 505.041 243.073Z" fill="#E0A988"/>
<path d="M465.837 258.707C465.738 260.8 467.466 262.816 469.549 263.039" stroke="#BA7A5D" stroke-miterlimit="10" stroke-linecap="round" stroke-linejoin="round"/>
<path d="M469.383 257.312C469.833 259.074 471.362 260.511 473.149 260.852" stroke="#BA7A5D" stroke-miterlimit="10" stroke-linecap="round" stroke-linejoin="round"/>
<path d="M486.469 249.186C486.745 250.462 487.187 251.701 487.779 252.864" stroke="#BA7A5D" stroke-miterlimit="10" stroke-linecap="round" stroke-linejoin="round"/>
<path d="M482.618 251.134C482.829 252.465 483.38 253.74 484.204 254.805" stroke="#BA7A5D" stroke-miterlimit="10" stroke-linecap="round" stroke-linejoin="round"/>
<path d="M480.172 270.196C485.522 265.165 491.312 259.906 498.55 258.657C499.387 258.512 500.343 258.456 500.988 259.009C501.847 259.745 501.67 261.116 501.267 262.173C500.039 265.395 497.489 267.897 495.442 270.672C494.02 272.6 492.821 274.697 491.244 276.5C490.08 277.832 488.726 278.985 487.331 280.075C477.249 287.956 464.734 292.678 451.96 293.423C450.415 293.513 448.649 293.458 447.628 292.294C447.049 291.637 446.831 290.737 446.747 289.866C446.246 284.635 450.114 279.705 454.924 277.59C459.734 275.475 465.247 275.673 470.426 276.563C473.554 273.844 477.152 273.036 480.172 270.196Z" fill="#F0C49B"/>
<path d="M470.264 276.668C470.103 278.723 470.461 280.818 471.295 282.703" stroke="#BA7A5D" stroke-miterlimit="10" stroke-linecap="round" stroke-linejoin="round"/>
<path d="M481.097 269.911C480.465 272.406 481.3 275.218 483.194 276.961" stroke="#BA7A5D" stroke-miterlimit="10" stroke-linecap="round" stroke-linejoin="round"/>
<path d="M474.917 279.655C472.512 281.437 470.289 283.492 467.67 284.941C461.366 288.429 453.443 288.086 446.941 290.916C447.077 291.421 447.284 291.902 447.629 292.293C448.65 293.456 450.416 293.512 451.961 293.421C464.735 292.676 477.25 287.953 487.332 280.074C488.726 278.984 490.08 277.831 491.244 276.499C492.506 275.056 493.53 273.43 494.615 271.849C487.526 272.708 480.655 275.399 474.917 279.655Z" fill="#E0A988"/>
<path d="M442.597 306.634C449.129 306.372 455.644 305.714 462.095 304.663C463.906 304.368 465.735 304.034 467.402 303.267C468.722 302.66 469.905 301.794 471.065 300.917C475.029 297.915 478.827 294.692 482.434 291.266C485.057 288.776 487.782 285.591 487.206 282.021C487.118 281.476 486.946 280.932 486.605 280.499C485.693 279.338 483.933 279.34 482.502 279.705C476.531 281.232 472.499 286.902 466.814 289.283C463.414 290.706 459.624 290.868 456.095 291.932C453.188 292.809 450.471 294.304 448.174 296.291C446.785 297.493 445.514 298.936 444.99 300.697C444.466 302.458 444.854 304.584 446.3 305.716" fill="#F0C49B"/>
<path d="M470.851 287.925C469.832 290.262 469.918 293.054 471.081 295.322" stroke="#BA7A5D" stroke-miterlimit="10" stroke-linecap="round" stroke-linejoin="round"/>
<path d="M459.697 291.417C458.22 293.314 457.975 296.088 459.095 298.215" stroke="#BA7A5D" stroke-miterlimit="10" stroke-linecap="round" stroke-linejoin="round"/>
<path d="M84.7983 72.2419C84.3758 68.9859 84.159 65.6727 84.5499 62.4119C84.9736 58.8734 86.1012 55.4848 87.2202 52.1302C89.8856 44.14 92.6058 36.0354 97.172 29.1314C102.941 20.407 111.277 14.1581 119.44 8.08934C123.363 5.17309 127.39 2.20449 131.995 0.919875C135.362 -0.0189249 138.882 -0.0103994 142.359 0.00299466C153.371 0.0468297 164.382 0.0906668 175.394 0.134502C180.771 0.156419 186.527 0.30253 190.924 3.66322C192.765 5.07081 194.263 6.97886 196.186 8.25251C199.456 10.4199 203.501 10.4917 207.228 11.4634C216.228 13.8122 223.388 21.6149 227.556 30.5852C231.724 39.5556 233.292 49.6571 234.438 59.6272C235.053 64.9787 235.56 70.346 235.843 75.7305C236.005 78.8342 236.067 82.0865 234.824 84.8871C233.702 87.4149 231.643 89.2828 229.596 90.996C213.608 104.38 194.757 113.207 175.528 119.887C165.853 123.249 155.921 126.12 145.768 126.515C135.615 126.91 127.384 136.548 118.957 130.39C114.588 127.198 111.103 122.908 106.925 119.48C103.884 116.985 100.799 115.384 98.2082 112.207C91.9057 104.491 86.0622 82.3775 84.7983 72.2419Z" fill="#8E6182"/>
<g opacity="0.5">
<path d="M228.941 54.988C226.866 48.6027 224.526 42.2211 220.795 36.6394C215.609 28.8818 207.927 23.0177 199.545 18.9166C194.229 16.3158 188.548 14.3627 182.67 13.6686C175.414 12.8126 168.068 13.8878 160.916 15.3831C140.228 19.7093 119.462 28.1829 105.819 44.3276C95.7362 56.2604 90.2057 72.119 91.4513 87.6926C92.2647 97.8721 96.0735 107.809 102.199 115.952C103.735 117.119 105.334 118.181 106.923 119.485C111.1 122.912 114.585 127.203 118.954 130.395C127.383 136.553 135.613 126.915 145.765 126.519C155.918 126.124 165.849 123.254 175.526 119.892C194.756 113.212 213.605 104.384 229.594 91.0009C231.641 89.2877 233.698 87.4186 234.821 84.892C235.582 83.1788 235.851 81.2951 235.911 79.3822C233.801 71.1863 231.555 63.0317 228.941 54.988Z" fill="#8E6182"/>
</g>
<path opacity="0.2" d="M228.112 104.06C229.751 100.59 231.388 97.1195 233.027 93.6492C234.299 90.9582 235.594 88.1661 235.667 85.1902C235.748 81.877 234.31 78.7477 233.186 75.6293C229.403 65.1345 228.831 53.2625 222.458 44.1058C218.888 38.9759 213.734 35.1209 208.22 32.1766C198.63 27.0564 187.695 24.4824 176.827 24.7855C170.544 24.9609 164.326 26.075 158.177 27.3767C141.812 30.8409 124.917 36.1352 113.431 48.297C102.803 59.5504 98.2298 75.2896 96.5799 90.6806C96.2134 94.1034 95.9845 97.643 97.0512 100.916C97.9887 103.795 99.8663 106.265 101.839 108.562C106.713 114.239 111.624 121.477 117.862 125.61C112.252 111.57 106.36 93.9049 110.129 79.2628C112.182 71.286 116.967 64.1884 122.913 58.4862C128.857 52.7852 135.938 48.3919 143.248 44.599C155.144 38.4268 168.611 33.6463 181.777 36.1449C192.384 38.1577 201.745 44.8279 208.427 53.3063C215.111 61.7848 219.313 71.9813 222.186 82.3872C224.337 90.1838 225.084 96.5642 228.112 104.06Z" fill="white"/>
<path d="M233.456 144.866C230.354 159.122 224.957 165.189 214.02 178.068C210.256 182.502 202.378 188.193 196.707 189.478C191.213 190.722 185.442 189.647 180.096 187.875C173.105 185.559 166.564 182.084 160.096 178.563C155.623 176.129 151.11 173.621 147.458 170.073C144.01 166.721 141.463 162.569 138.998 158.441C128.877 141.49 119.466 124.117 110.797 106.378C108.767 102.225 108.224 96.4109 108.286 91.7887C108.446 79.7828 113.811 68.1568 121.932 59.3131C130.053 50.4681 140.774 44.2716 152.12 40.3435C160.465 37.454 169.385 35.7237 178.141 36.8707C191.439 38.6132 203.276 46.982 211.276 57.7472C219.276 68.5111 223.78 81.507 226.555 94.6283C229.33 107.75 233.687 114.162 235.671 127.425C236.304 131.664 234.368 140.678 233.456 144.866Z" fill="#F0C49B"/>
<path d="M123.769 108.862C124.312 105.365 125.2 101.895 126.76 98.7182C128.309 95.5633 130.486 92.7627 132.755 90.0803C136.864 85.2243 141.329 80.6703 146.103 76.4671C146.006 86.2885 151.587 96.7542 160.077 101.694C156.222 95.9907 157.532 88.0785 160.466 81.8502C163.401 75.622 167.99 70.3265 171.35 64.3174C173.093 61.1979 174.502 57.8907 175.542 54.4716C182.039 53.0092 187.483 57.3769 192.484 61.775C196.528 65.333 200.104 69.4206 203.092 73.9027C206.177 78.5297 208.656 83.5976 212.343 87.7594C216.438 92.3804 221.728 95.5779 227.382 98.1678C227.095 97.0354 226.814 95.8701 226.551 94.6294C223.776 81.5081 219.272 68.5134 211.273 57.7483C203.274 46.9843 191.436 38.6143 178.138 36.8718C169.383 35.7248 160.462 37.4551 152.117 40.3446C140.771 44.2727 130.05 50.4704 121.929 59.3142C113.809 68.1591 108.443 79.7839 108.283 91.7898C108.222 96.412 108.764 102.226 110.794 106.38C115.823 116.669 121.109 126.832 126.631 136.864C123.335 127.973 122.313 118.236 123.769 108.862Z" fill="#E0A988"/>
<path d="M227.982 89.2879C225.014 79.028 220.144 69.4379 215.301 59.9184C213.094 55.5775 210.857 51.194 207.715 47.4729C202.298 41.0559 194.575 37.0548 186.79 33.9023C183.394 32.5264 179.876 31.2819 176.283 30.6415C175.421 29.2266 174.061 28.0248 172.031 27.1846C167.492 25.307 162.323 26.4053 157.582 27.6875C139.882 32.474 121.766 40.3034 111.506 55.5008C103.196 67.8099 101.197 83.7902 104.592 98.2485C107.987 112.707 116.424 125.675 127.108 135.992C123.5 124.957 119.871 113.068 123.233 101.956C127.874 86.6224 144.151 77.8773 151.917 63.8647C148.599 74.155 150.227 85.9223 156.215 94.9255C154.408 88.7217 154.894 81.8761 157.561 75.99C160.512 69.4732 165.861 64.403 169.992 58.5619C172.092 55.5909 173.274 52.548 174.196 49.4114C177.895 51.2366 181.136 50.1237 185.28 51.3304C187.372 51.9392 189.263 53.0911 191.046 54.3428C204.861 64.0462 212.935 79.7184 222.029 93.9429C222.782 95.1216 223.718 96.4074 225.106 96.59C226.656 96.7934 228.06 95.415 228.435 93.8979C228.81 92.3819 228.416 90.7892 227.982 89.2879Z" fill="#493244"/>
<path opacity="0.5" d="M228.436 93.8991C228.81 92.3819 228.416 90.7904 227.982 89.2891C225.014 79.0292 220.144 69.4391 215.301 59.9196C213.094 55.5787 210.857 51.1952 207.715 47.4741C202.298 41.0571 194.575 37.056 186.79 33.9035C183.394 32.5276 179.876 31.2832 176.283 30.6427C175.421 29.2278 174.061 28.026 172.031 27.1858C167.492 25.3082 162.323 26.4065 157.582 27.6887C139.882 32.4752 121.766 40.3046 111.506 55.502C103.196 67.8111 101.197 83.7914 104.592 98.2497C107.801 111.914 115.514 124.243 125.37 134.265C113.549 115.579 113.746 89.7481 126.322 71.4665C134.778 59.1756 147.675 50.741 160.6 43.2927C158.956 51.9209 156.699 60.4335 153.852 68.7426C159.39 62.0347 164.025 54.5815 167.591 46.6473C168.216 45.2556 168.859 43.7835 170.083 42.8727C171.446 41.8571 173.262 41.7366 174.961 41.7695C183.648 41.9338 192.246 45.1789 198.875 50.7958C208.086 58.6009 213.011 70.1819 218.018 81.1674C220.395 86.3826 222.975 91.6769 226.114 96.4951C227.232 96.1602 228.145 95.0765 228.436 93.8991Z" fill="#493244"/>
<path d="M117.598 147.532C120.446 151.349 124.087 154.493 127.733 157.557C129.112 158.715 130.538 159.89 132.244 160.462C133.95 161.035 136.022 160.875 137.296 159.605C139.429 157.477 138.245 153.876 136.874 151.191C133.789 145.148 127.632 129.473 120.402 127.457C108.156 124.043 114.402 143.249 117.598 147.532Z" fill="#F0C49B"/>
<path d="M120.788 146.121C122.522 148.445 124.738 150.358 126.959 152.224C127.798 152.929 128.666 153.645 129.705 153.993C130.744 154.341 132.005 154.245 132.781 153.471C134.08 152.175 133.359 149.982 132.524 148.348C130.645 144.67 126.897 135.126 122.495 133.898C115.041 131.821 118.842 143.514 120.788 146.121Z" fill="#E0A988"/>
<path d="M228.112 104.06C229.751 100.59 231.388 97.1195 233.027 93.6492C234.299 90.9582 235.594 88.1661 235.667 85.1902C235.748 81.877 234.31 78.7477 233.186 75.6293C229.403 65.1345 228.831 53.2625 222.458 44.1058C218.888 38.9759 213.734 35.1209 208.22 32.1766C198.63 27.0564 187.695 24.4824 176.827 24.7855C170.544 24.9609 164.326 26.075 158.177 27.3767C141.812 30.8409 124.917 36.1352 113.431 48.297C102.803 59.5504 98.2298 75.2896 96.5799 90.6806C96.2134 94.1034 95.9845 97.643 97.0512 100.916C97.9887 103.795 99.8663 106.265 101.839 108.562C106.713 114.239 111.624 121.477 117.862 125.61C112.252 111.57 106.36 93.9049 110.129 79.2628C112.182 71.286 116.967 64.1884 122.913 58.4862C128.857 52.7852 135.938 48.3919 143.248 44.599C155.144 38.4268 168.611 33.6463 181.777 36.1449C192.384 38.1577 201.745 44.8279 208.427 53.3063C215.111 61.7848 219.313 71.9813 222.186 82.3872C224.337 90.1838 225.084 96.5642 228.112 104.06Z" fill="#8E6182"/>
<path d="M184.679 160.957C189.061 161.572 193.646 160.624 197.424 158.322" stroke="#BA7A5D" stroke-miterlimit="10" stroke-linecap="round" stroke-linejoin="round"/>
<path d="M135.396 93.7722C129.986 98.8473 126.475 105.901 125.687 113.276" stroke="#89543F" stroke-miterlimit="10" stroke-linecap="round" stroke-linejoin="round"/>
<path d="M179.63 74.8793C186.314 71.9265 194.461 72.5621 200.606 76.5146" stroke="#89543F" stroke-miterlimit="10" stroke-linecap="round" stroke-linejoin="round"/>
<path d="M205.912 131.293C207.937 131.193 209.991 131.877 211.551 133.173" stroke="#BA7A5D" stroke-miterlimit="10" stroke-linecap="round" stroke-linejoin="round"/>
<path d="M160.214 150.595C158.954 151.585 158.043 153.009 157.671 154.568" stroke="#BA7A5D" stroke-miterlimit="10" stroke-linecap="round" stroke-linejoin="round"/>
<path d="M183.872 134.299C182.343 135.208 180.769 136.106 179.031 136.487C176.759 136.986 174.398 136.569 172.11 136.151C170.604 135.876 169.098 135.599 167.591 135.324C167.455 135.515 167.328 135.71 167.185 135.898C172.246 137.742 177.305 139.586 182.365 141.431C182.734 141.566 183.231 141.596 183.602 141.493C185.938 137.084 188.417 132.752 191.051 128.515C189.21 131.003 186.531 132.717 183.872 134.299Z" fill="#E0A988"/>
<path d="M162.392 95.5852C165.988 101.815 169.462 108.261 170.912 115.307C172.362 122.353 171.545 130.176 167.186 135.899C172.246 137.744 177.306 139.587 182.366 141.432" stroke="#89543F" stroke-miterlimit="10" stroke-linecap="round" stroke-linejoin="round"/>
<path d="M137.561 127.405C137.59 118.461 148.302 111.692 156.387 115.528C154.28 115.609 152.317 115.88 150.445 116.396C144.668 117.944 140.248 122.082 137.561 127.405Z" fill="#512E21"/>
<path d="M188.35 103.427C191.084 95.7252 201.007 91.2565 208.581 94.3407C206.578 94.5404 204.707 94.8193 202.887 95.2625C197.336 96.6177 192.51 99.4707 188.35 103.427Z" fill="#512E21"/>
<path opacity="0.44" d="M182.128 159.735C185.949 160.365 190.015 160.909 193.577 159.388C198.223 157.404 200.775 152.484 202.961 147.929C203.917 145.936 204.873 143.942 205.83 141.949C202.888 145.616 200.678 148.874 193.702 151.704C188.301 153.895 175.009 156.634 168.263 155.958C170.772 159.276 178.361 159.114 182.128 159.735Z" fill="#E0A988"/>
<path d="M167.851 156.4C170.046 157.462 172.651 157.259 175.008 156.633C177.365 156.008 179.612 154.991 181.992 154.466C183.549 154.123 185.144 153.995 186.718 153.742C194.054 152.561 200.898 148.55 205.514 142.727" stroke="#89543F" stroke-miterlimit="10" stroke-linecap="round" stroke-linejoin="round"/>
<path d="M154.381 111.412C150.018 105.679 141.852 103.178 135.027 105.486C137.939 102.984 141.091 100.095 144.906 100.529C147.341 100.805 149.485 102.358 151.006 104.279C152.528 106.198 153.41 109.162 154.381 111.412Z" fill="#E0A988"/>
<path d="M191.488 78.4337C188.517 77.7238 185.318 79.4857 183.763 82.1146C182.208 84.7435 182.09 88.0262 182.783 91.0009C183.476 93.9756 184.908 96.7177 186.326 99.4221C184.479 91.796 186.269 84.2954 191.488 78.4337Z" fill="#E0A988"/>
<path opacity="0.45" d="M144.704 155.105C151.539 155.105 157.08 149.564 157.08 142.729C157.08 135.894 151.539 130.353 144.704 130.353C137.869 130.353 132.328 135.894 132.328 142.729C132.328 149.564 137.869 155.105 144.704 155.105Z" fill="#E89F87"/>
<path opacity="0.45" d="M216.21 127.576C223.045 127.576 228.586 122.035 228.586 115.2C228.586 108.365 223.045 102.824 216.21 102.824C209.374 102.824 203.833 108.365 203.833 115.2C203.833 122.035 209.374 127.576 216.21 127.576Z" fill="#E89F87"/>
<path d="M243.699 102.895C244.228 107.629 243.719 112.412 243.151 117.14C242.936 118.926 242.699 120.76 241.844 122.343C240.989 123.926 239.367 125.228 237.569 125.17C234.557 125.074 232.96 121.637 232.126 118.74C230.249 112.219 224.03 96.5692 227.93 90.1571C234.537 79.2957 243.104 97.5847 243.699 102.895Z" fill="#F0C49B"/>
<path d="M240.405 104.047C240.728 106.929 240.417 109.84 240.072 112.72C239.941 113.807 239.796 114.924 239.277 115.888C238.757 116.852 237.769 117.644 236.674 117.609C234.841 117.55 233.869 115.457 233.361 113.694C232.218 109.724 228.432 100.196 230.807 96.2926C234.829 89.6784 240.044 100.812 240.405 104.047Z" fill="#E0A988"/>
<path d="M55.903 345.823C54.1301 349.62 53.8768 354.415 56.3632 357.787C57.7282 359.638 59.7531 360.875 61.4116 362.467C63.9893 364.944 65.6258 368.217 67.7445 371.096C69.8632 373.975 72.8075 376.629 76.3751 376.866C78.4488 377.004 80.4993 376.305 82.5766 376.356C87.8928 376.487 91.8757 381.308 96.9496 382.899C100.963 384.158 105.407 383.267 109.156 381.36C117.113 377.314 122.421 368.539 122.312 359.613C122.202 350.688 116.68 342.045 108.628 338.195C104.305 336.127 99.4786 335.399 94.7177 334.834C86.0761 333.808 76.9681 332.71 68.2523 333.124C62.9701 333.374 64.3765 334.045 62.0898 337.606C60.2085 340.532 57.4299 342.554 55.903 345.823Z" fill="#C69075"/>
<path d="M20.3359 334.518C18.8029 337.353 24.3858 339.064 30.8636 339.482C37.3427 339.9 115.185 346.251 115.185 346.251L141.523 322.27C141.523 322.27 144.51 318.748 138.301 317.041C132.092 315.334 67.1822 314.781 61.8453 315.867C56.5083 316.955 22.2245 331.026 20.3359 334.518Z" fill="#969696"/>
<path opacity="0.5" d="M63.2575 320.132C59.7714 320.777 30.3069 334.032 22.1719 337.71C24.17 338.655 27.3822 339.258 30.8634 339.482C37.3425 339.9 115.185 346.251 115.185 346.251L141.522 322.269C141.522 322.269 141.57 322.213 141.639 322.114C125.142 321.524 66.7326 319.491 63.2575 320.132Z" fill="#969696"/>
<path d="M57.0968 329.333H61.4694C61.6289 329.333 61.786 329.298 61.9297 329.228L67.2812 326.676C68.3113 326.186 67.9606 324.639 66.8197 324.639H62.1026C61.9333 324.639 61.7665 324.679 61.6167 324.756L56.611 327.308C55.6077 327.82 55.9705 329.333 57.0968 329.333Z" fill="white"/>
<path d="M48.3478 348.904C47.8705 350.07 47.4505 351.369 47.8364 352.568C48.1883 353.66 49.16 354.454 50.2084 354.921C54.0403 356.622 58.4871 354.532 61.7808 351.94C63.6475 350.47 65.3741 348.824 66.929 347.03C68.4961 345.223 69.9135 343.22 70.6027 340.93C71.2918 338.64 71.1689 336.014 69.8331 334.03C63.1373 324.084 50.5079 343.628 48.3478 348.904Z" fill="#F0C49B"/>
<path d="M68.5578 337.525C67.4108 339.513 65.9472 341.316 64.2401 342.848C63.0382 343.925 61.2361 344.893 59.9089 343.975C58.835 343.233 58.7582 341.672 59.0249 340.394C59.5826 337.718 61.1984 335.278 63.4449 333.72C64.8197 334.766 67.1819 336.48 68.5578 337.525Z" fill="white"/>
<path d="M66.7769 342.228C64.7446 344.158 62.4774 345.822 60.2174 347.481C56.657 350.094 52.8276 352.788 48.6292 353.825C49.0724 354.286 49.6215 354.66 50.2072 354.921C54.0391 356.622 58.4859 354.532 61.7797 351.94C63.6463 350.471 65.3729 348.824 66.9278 347.03C68.4949 345.223 69.9123 343.22 70.6015 340.93C70.9363 339.818 71.0739 338.627 70.9801 337.469C69.6967 339.155 68.3196 340.763 66.7769 342.228Z" fill="#E0A988"/>
<path d="M99.2779 372.769C103.784 372.941 108.175 371.05 111.792 368.355C115.408 365.66 118.362 362.192 121.282 358.756C124.008 355.549 126.733 352.341 129.459 349.132C134.056 343.723 138.756 338.133 140.999 331.398C141.87 328.782 141.873 325.104 139.288 324.144C138.063 323.688 136.698 324.077 135.472 324.531C126.876 327.713 119.788 333.916 113.057 340.139C106.386 346.303 99.8526 352.616 93.4612 359.069C90.7848 361.771 87.0345 364.35 89.846 368.228C91.9184 371.089 95.8465 372.639 99.2779 372.769Z" fill="#F0C49B"/>
<path d="M140.301 328.534C139.738 331.125 138.392 333.542 136.484 335.383C135.622 336.215 134.594 336.955 133.408 337.122C132.222 337.289 130.87 336.726 130.449 335.604C130.063 334.572 130.529 333.434 131.026 332.451C132.156 330.219 133.488 328.09 135.001 326.096C137.033 326.219 138.958 327.006 140.301 328.534Z" fill="white"/>
<path d="M134.826 324.787C126.521 328.036 119.617 334.076 113.057 340.139C106.386 346.304 99.8526 352.617 93.4612 359.07C90.7848 361.772 87.0345 364.351 89.846 368.229C90.5218 369.161 91.4058 369.939 92.3933 370.588C111.827 362.095 126.298 344.603 134.826 324.787Z" fill="#E0A988"/>
<path d="M122.383 345.559C123.455 346.555 124.965 347.064 126.423 346.919" stroke="#BA7A5D" stroke-miterlimit="10" stroke-linecap="round" stroke-linejoin="round"/>
<path d="M124.539 343.13C125.549 343.724 126.561 344.317 127.572 344.911" stroke="#BA7A5D" stroke-miterlimit="10" stroke-linecap="round" stroke-linejoin="round"/>
<path d="M103.199 363.398C104.286 364.198 105.372 364.998 106.46 365.798" stroke="#BA7A5D" stroke-miterlimit="10" stroke-linecap="round" stroke-linejoin="round"/>
<path d="M100.46 365.307C101.657 367.124 103.539 368.479 105.642 369.036" stroke="#BA7A5D" stroke-miterlimit="10" stroke-linecap="round" stroke-linejoin="round"/>
<path d="M132.608 323.347C133.022 326.401 131.131 329.247 129.278 331.71C120.043 343.975 109.308 355.257 96.5912 363.858C92.9005 366.354 88.9882 368.645 84.6766 369.766C82.0026 370.461 79.1071 370.679 76.5196 369.711C73.9321 368.743 71.7416 366.394 71.565 363.638C71.3556 360.384 73.8067 357.615 76.2359 355.441C88.8823 344.114 105.361 337.466 117.078 325.18C119.318 322.831 122.104 318.749 125.452 317.971C128.676 317.221 132.175 320.161 132.608 323.347Z" fill="#F0C49B"/>
<path d="M125.097 318.075C121.908 319.045 119.237 322.913 117.077 325.179C105.36 337.465 88.8817 344.112 76.2353 355.439C73.8073 357.614 71.3562 360.384 71.5644 363.637C71.6655 365.207 72.4326 366.636 73.5418 367.762C94.5961 355.972 112.517 338.663 125.097 318.075Z" fill="#E0A988"/>
<path d="M131.029 324.379C129.646 327.179 127.629 329.664 125.175 331.595C124.031 332.494 122.475 333.299 121.188 332.621C120.395 332.203 119.947 331.298 119.871 330.406C119.794 329.513 120.035 328.624 120.328 327.777C121.315 324.93 122.927 322.302 125.018 320.133C127.374 320.856 129.651 322.334 131.029 324.379Z" fill="white"/>
<path d="M98.0149 350.727C99.0815 353.051 101.788 354.502 104.314 354.101" stroke="#BA7A5D" stroke-miterlimit="10" stroke-linecap="round" stroke-linejoin="round"/>
<path d="M101.081 348.495C103.024 349.941 105.378 350.83 107.791 351.032" stroke="#BA7A5D" stroke-miterlimit="10" stroke-linecap="round" stroke-linejoin="round"/>
<path d="M110.851 336.879C112.032 338.824 114.143 340.176 116.404 340.437" stroke="#BA7A5D" stroke-miterlimit="10" stroke-linecap="round" stroke-linejoin="round"/>
<path d="M113.99 334.518C115.942 336.235 118.266 337.528 120.753 338.281" stroke="#BA7A5D" stroke-miterlimit="10" stroke-linecap="round" stroke-linejoin="round"/>
<path d="M70.6628 345.245C80.7571 338.636 89.63 330.333 99.4393 323.308C102.108 321.397 104.989 319.526 108.254 319.172C111.518 318.818 115.232 320.477 116.144 323.631C116.735 325.67 116.049 327.91 114.833 329.65C113.615 331.39 111.915 332.724 110.242 334.031C107.378 336.268 104.514 338.504 101.651 340.741C95.247 345.742 88.8385 350.747 82.1415 355.347C78.0673 358.145 68.1313 365.364 63.4422 360.256C58.1126 354.448 66.3962 348.04 70.6628 345.245Z" fill="#F0C49B"/>
<path d="M114.162 325.232C112.786 327.236 111.205 329.1 109.45 330.784C108.416 331.777 107.252 332.741 105.843 333.004C104.436 333.266 102.753 332.563 102.396 331.178C102.15 330.224 102.565 329.232 103.033 328.365C104.59 325.482 106.859 322.987 109.58 321.163C111.388 321.998 113.248 323.463 114.162 325.232Z" fill="white"/>
<path d="M80.698 346.571C81.3166 348.328 82.8715 349.725 84.6858 350.15" stroke="#BA7A5D" stroke-miterlimit="10" stroke-linecap="round" stroke-linejoin="round"/>
<path d="M85.6687 342.597C86.4212 344.437 88.0528 345.893 89.9658 346.432" stroke="#BA7A5D" stroke-miterlimit="10" stroke-linecap="round" stroke-linejoin="round"/>
<defs>
<filter id="filter0_n_4_134" x="0.000244141" y="146.607" width="392.868" height="351.326" filterUnits="userSpaceOnUse" color-interpolation-filters="sRGB">
<feFlood flood-opacity="0" result="BackgroundImageFix"/>
<feBlend mode="normal" in="SourceGraphic" in2="BackgroundImageFix" result="shape"/>
<feTurbulence type="fractalNoise" baseFrequency="2 2" stitchTiles="stitch" numOctaves="3" result="noise" seed="4376" />
<feColorMatrix in="noise" type="luminanceToAlpha" result="alphaNoise" />
<feComponentTransfer in="alphaNoise" result="coloredNoise1">
<feFuncA type="discrete" tableValues="1 1 1 1 1 1 1 1 1 1 1 1 1 1 1 1 1 1 1 1 1 1 1 1 1 1 1 1 1 1 1 1 1 1 1 1 1 1 1 1 1 1 1 1 1 1 1 1 1 1 1 0 0 0 0 0 0 0 0 0 0 0 0 0 0 0 0 0 0 0 0 0 0 0 0 0 0 0 0 0 0 0 0 0 0 0 0 0 0 0 0 0 0 0 0 0 0 0 0 0 "/>
</feComponentTransfer>
<feComposite operator="in" in2="shape" in="coloredNoise1" result="noise1Clipped" />
<feFlood flood-color="rgba(0, 0, 0, 0.25)" result="color1Flood" />
<feComposite operator="in" in2="noise1Clipped" in="color1Flood" result="color1" />
<feMerge result="effect1_noise_4_134">
<feMergeNode in="shape" />
<feMergeNode in="color1" />
</feMerge>
</filter>
<linearGradient id="paint0_linear_4_134" x1="196" y1="192.5" x2="196.434" y2="497.932" gradientUnits="userSpaceOnUse">
<stop offset="0.451923" stop-color="white"/>
<stop offset="1" stop-color="#999999"/>
</linearGradient>
</defs>
</svg>
