<svg width="392" height="859" viewBox="0 0 392 859" fill="none" xmlns="http://www.w3.org/2000/svg">
<rect width="392" height="858" rx="24" fill="url(#paint0_linear_28_825)"/>
<rect width="392" height="858" rx="24" fill="#FE5957"/>
<path d="M11.9487 778.873C11.4615 783.526 10.9734 788.212 11.3447 792.876C11.7301 797.715 13.0323 802.428 14.328 807.106C17.0625 816.981 19.978 827.203 26.6429 834.986C28.3589 836.99 30.3556 838.836 32.7886 839.854C35.9566 841.181 39.5892 840.98 42.8958 840.051C49.3138 838.25 54.7942 833.848 58.7914 828.514C62.7887 823.179 65.4149 816.94 67.4653 810.598C69.6599 803.81 71.2402 796.821 72.1816 789.749C73.2643 781.61 73.4273 772.987 69.9012 765.571C66.7935 759.034 61.1312 754.094 55.3012 749.805C49.4721 745.519 43.1492 741.609 36.0744 740.092C29.9523 738.779 17.5949 739.234 15.3494 746.389C13.8653 751.12 14.2074 757.317 13.69 762.259C13.1086 767.798 12.5291 773.335 11.9487 778.873Z" fill="#E0A988"/>
<path d="M250.571 833.38C253.242 836.441 256.339 839.26 260.1 840.794C263.861 842.328 268.388 842.405 271.812 840.22C274.515 838.495 276.232 835.621 277.83 832.841C281.62 826.248 285.359 819.411 286.535 811.898C288.279 800.757 284.193 789.572 279.514 779.312C277.116 774.052 274.543 768.871 271.799 763.782C269.083 758.745 266.184 753.771 262.529 749.368C260.166 746.519 257.441 743.884 254.134 742.22C250.828 740.556 246.866 739.949 243.38 741.192C239.406 742.608 236.581 746.166 234.566 749.871C228.531 760.964 229.998 771.066 231.669 782.839C233.308 794.391 235.57 806.032 240.26 816.779C242.876 822.774 246.262 828.444 250.571 833.38Z" fill="#E0A988"/>
<g filter="url(#filter0_n_28_825)">
<path d="M56.8915 857.83C67.2323 829.002 73.5306 803.292 71.5659 773.828C51.1557 775.306 30.295 769.583 13.4966 757.896C9.4692 755.094 4.81328 753.05 0 753.997C4.48441 736.02 9.46542 718.166 14.9345 700.463C19.5716 685.457 24.6327 670.399 32.9231 657.059C41.2135 643.719 53.0978 632.079 67.9089 626.852C77.9284 623.315 105.946 621.212 108.293 619.773C111.06 618.077 112.382 614.78 113.129 611.621C114.16 607.264 114.439 602.73 113.95 598.278C124.698 600.55 136.763 601.892 147.691 600.767C158.619 599.643 169.612 595.098 176.394 586.455C176.632 597.901 178.862 610.563 187.657 617.893C190.507 620.269 193.962 621.81 197.488 622.969C210.62 627.286 225.1 626.64 237.918 631.816C252.884 637.858 263.853 651.261 270.769 665.843C277.685 680.425 281.116 696.361 285.253 711.962C289.389 727.562 294.442 743.286 304.031 756.268C281.01 769.138 258.054 779.387 232.733 786.76C229.499 810.313 227.769 834.582 228.69 858.337L56.8915 857.83Z" fill="url(#paint1_linear_28_825)"/>
</g>
<path d="M79.7286 694.215C76.9017 680.44 72.389 666.83 60.2588 659.716C66.38 673.985 68.0403 689.72 69.1937 705.204C70.7928 726.652 71.5551 748.163 71.4807 769.67C71.4759 771.073 71.3827 772.463 71.2385 773.845C71.3478 773.838 71.4571 773.837 71.5664 773.828C72.6086 789.463 71.3073 804.041 68.3268 818.589C70.838 811.329 73.1118 803.987 75.0774 796.549C83.8832 763.241 86.6555 727.963 79.7286 694.215Z" fill="#E0E0E0"/>
<path d="M298.45 747.536C285.801 757.908 271.13 765.818 255.485 770.603C250.56 772.109 245.543 773.312 240.677 774.998C237.786 776 234.724 777.371 233.313 780.086C232.25 782.133 232.364 784.421 232.974 786.687C258.201 779.319 281.084 769.097 304.031 756.268C301.969 753.477 300.128 750.553 298.45 747.536Z" fill="#E0E0E0"/>
<path d="M72.1219 763.198C47.8661 764.161 27.1873 744.191 3.1586 741.698C2.08249 745.792 1.02428 749.89 0 753.997C4.81328 753.05 9.4692 755.093 13.4966 757.896C30.295 769.583 51.1557 775.306 71.566 773.828C71.5999 774.33 71.6112 774.823 71.6404 775.323C72.1445 771.305 72.3094 767.243 72.1219 763.198Z" fill="#E0E0E0"/>
<path d="M146.832 657.004C159.481 661.62 174.522 661.79 185.583 654.113C190.467 650.723 194.293 646.037 197.822 641.252C201.548 636.2 205.017 630.961 208.224 625.565C204.588 624.915 200.989 624.122 197.488 622.971C193.964 621.812 190.508 620.271 187.657 617.895C178.863 610.565 176.632 597.903 176.395 586.457C169.613 595.099 158.619 599.644 147.691 600.769C136.763 601.893 124.698 600.552 113.95 598.28C114.439 602.731 114.161 607.266 113.13 611.623C112.382 614.781 111.06 618.078 108.294 619.775C107.336 620.362 102.099 621.06 95.5566 621.922C101.31 626.468 107.064 631.015 112.818 635.561C123.382 643.907 134.183 652.39 146.832 657.004Z" fill="#E0E0E0"/>
<path d="M114.085 758.793C118.777 768.138 124.111 777.346 131.627 784.616C139.143 791.885 149.134 797.095 159.591 796.988C166.409 796.918 173.005 794.635 179.301 792.014C186.862 788.865 194.202 785.189 201.253 781.019C191.849 797.553 173.998 808.975 155.044 810.584C150.922 810.934 146.689 810.836 142.765 809.526C138.591 808.133 134.985 805.45 131.51 802.749C126.402 798.779 121.311 794.582 117.789 789.155C114.913 784.722 113.202 779.645 111.702 774.578C108.622 764.172 106.312 753.557 104.004 742.953C103.026 738.456 98.9545 708.651 95.0723 708.533C95.1853 716.523 100.318 726.616 103.185 734.097C106.407 742.502 110.046 750.748 114.085 758.793Z" fill="#E0E0E0"/>
<path d="M128.961 833.538C136.212 834.916 143.656 834.857 151.031 834.549C166.121 833.92 181.709 832.094 194.702 824.394C188.901 834.169 177.479 839.056 166.468 841.877C157.21 844.25 147.538 845.614 138.083 844.218C129.886 843.009 121.782 839.567 115.874 833.648C113.676 831.447 110.69 828.482 115.623 829.204C120.074 829.856 124.401 832.672 128.961 833.538Z" fill="#E0E0E0"/>
<path d="M259.562 657.216C247.131 668.012 240.009 683.607 234.44 699.102C224.917 725.598 218.85 753.335 216.443 781.387C214.248 806.956 215.077 832.742 212.933 858.29L228.689 858.337C227.767 834.581 229.497 810.312 232.731 786.759C232.896 786.711 233.058 786.66 233.223 786.612C233.269 759.807 233.763 732.751 240.601 706.866C245.131 689.718 252.361 673.425 259.562 657.216Z" fill="#E0E0E0"/>
<path d="M161.201 652.826C165.064 653.289 168.997 653.395 172.829 652.727C181.946 651.136 189.977 645.113 194.983 637.329C197.627 633.215 199.466 628.65 200.616 623.895C199.566 623.612 198.521 623.311 197.486 622.971C193.962 621.812 190.506 620.27 187.655 617.895C178.861 610.564 176.63 597.903 176.393 586.457C169.611 595.098 158.617 599.643 147.689 600.768C136.762 601.892 124.696 600.551 113.948 598.28C114.437 602.73 114.159 607.265 113.128 611.623C112.38 614.78 111.058 618.077 108.292 619.774C107.668 620.157 105.219 620.588 101.785 621.079C109.931 627.849 118.203 634.494 127.216 640.043C137.605 646.438 149.09 651.372 161.201 652.826Z" fill="#F0C49B"/>
<path d="M159.009 629.155C162.475 627.982 165.264 625.394 167.746 622.705C172.35 617.718 176.252 612.192 179.747 606.382C177.357 600.187 176.532 593.119 176.393 586.457C169.611 595.099 158.617 599.643 147.69 600.768C136.762 601.893 124.696 600.552 113.949 598.28C114.428 602.65 114.164 607.1 113.179 611.384C122.183 616.605 131.406 621.45 140.819 625.89C146.539 628.587 153.021 631.182 159.009 629.155Z" fill="#E0A988"/>
<path d="M21.5666 777.495C27.5332 771.069 35.6634 766.461 39.8435 758.753C42.9842 752.962 43.6117 745.856 47.7635 740.74C51.7005 735.89 58.2692 733.73 64.5129 733.922C70.7566 734.113 76.7534 736.379 82.3846 739.083C84.6349 740.163 86.9491 741.405 88.3202 743.492C90.1605 746.294 89.8854 749.939 89.4378 753.262C87.7369 765.879 84.5378 778.24 81.3453 790.566C80.3464 794.423 79.3438 798.292 77.9144 802.012C75.5511 808.164 72.0608 813.809 68.5601 819.393C64.0606 826.572 59.4773 833.762 53.7453 840.001C51.2632 842.702 48.4118 845.308 44.8622 846.23C40.5851 847.342 35.9461 845.758 32.4945 842.999C29.0428 840.24 26.5994 836.43 24.4557 832.567C20.2917 825.06 17.019 817.06 14.7132 808.793C12.8201 802.007 10.977 796.036 13.8897 789.388C15.7997 785.028 18.3213 780.989 21.5666 777.495Z" fill="#F0C49B"/>
<path d="M73.6686 711.205C74.4366 711.61 75.2008 712.052 75.8029 712.678C76.6755 713.584 77.1391 714.798 77.5801 715.976C78.0672 717.278 78.5553 718.579 79.0425 719.882C79.3026 720.575 79.5664 721.308 79.4458 722.038C79.2649 723.133 78.2265 723.934 77.1381 724.151C76.0498 724.368 74.9237 724.112 73.8646 723.779C68.125 721.977 63.1845 717.766 60.4198 712.431C55.8854 703.683 70.2028 709.378 73.6686 711.205Z" fill="#C69075"/>
<path d="M53.5725 710.842C54.2934 709.264 55.3374 707.69 56.9535 707.056C59.0812 706.221 61.4841 707.273 63.3244 708.628C67.0418 711.365 69.7349 715.461 70.7742 719.959C71.2134 721.86 71.333 723.98 70.3134 725.643C67.6298 730.023 60.4749 727.873 57.5368 724.85C54.3754 721.596 51.6531 715.048 53.5725 710.842Z" fill="#F0C49B"/>
<path d="M177.201 596.411C177.215 596.501 177.228 596.593 177.242 596.684C177.228 596.593 177.215 596.502 177.201 596.411Z" fill="#F0C49B"/>
<path d="M176.857 593.778C176.876 593.951 176.896 594.124 176.917 594.297C176.897 594.125 176.877 593.951 176.857 593.778Z" fill="#F0C49B"/>
<path d="M176.474 588.825C176.483 589.027 176.497 589.229 176.508 589.432C176.497 589.23 176.483 589.028 176.474 588.825Z" fill="#F0C49B"/>
<path d="M114.095 599.932C114.059 599.381 114.011 598.829 113.95 598.279C114.01 598.829 114.058 599.38 114.095 599.932Z" fill="#F0C49B"/>
<path d="M195.196 622.148C194.693 623.641 194.195 625.136 193.675 626.624C192.536 629.88 191.327 633.166 189.318 635.97C186.586 639.785 182.498 642.488 178.104 644.133C169.935 647.19 160.769 646.732 152.379 644.345C143.99 641.958 136.245 637.75 128.712 633.355C121.489 629.139 114.391 624.707 107.417 620.09C106.29 620.39 104.308 620.717 101.786 621.078C109.932 627.849 118.204 634.494 127.217 640.043C137.605 646.439 149.09 651.371 161.201 652.825C165.064 653.289 168.997 653.395 172.829 652.726C181.946 651.136 189.977 645.113 194.983 637.328C197.627 633.215 199.466 628.65 200.616 623.895C199.566 623.611 198.521 623.311 197.486 622.97C196.717 622.718 195.953 622.442 195.196 622.148Z" fill="#E0A988"/>
<path d="M176.918 594.298C177.001 595.004 177.096 595.708 177.202 596.411C177.095 595.708 177.002 595.004 176.918 594.298Z" fill="#E0A988"/>
<path d="M176.677 591.894C176.73 592.523 176.79 593.15 176.859 593.779C176.789 593.15 176.73 592.522 176.677 591.894Z" fill="#E0A988"/>
<path d="M177.242 596.683C177.762 600.028 178.563 603.31 179.748 606.381C178.563 603.311 177.765 600.026 177.242 596.683Z" fill="#E0A988"/>
<path d="M114.176 603.227C114.166 603.743 114.146 604.257 114.117 604.772C114.145 604.257 114.166 603.743 114.176 603.227Z" fill="#E0A988"/>
<path d="M358.983 671.286C361.147 670.638 363.259 669.828 365.406 669.122C369.654 667.722 374.038 666.732 378.476 666.167C378.595 667.921 376.926 669.211 375.442 670.156C371.456 672.695 367.47 675.234 363.484 677.772C358.194 681.141 352.618 684.609 346.364 685.074C345.833 685.114 345.284 685.128 344.786 684.94C344.243 684.735 343.816 684.311 343.407 683.896C341.072 681.529 337.145 675.828 342.278 674.063C344.706 673.228 347.775 673.457 350.32 673.104C353.245 672.697 356.152 672.133 358.983 671.286Z" fill="#E0A988"/>
<path d="M309.325 719.66C311.252 765.423 299.46 798.98 296.243 806.342C291.823 816.457 285.889 825.865 279.157 834.612C276.203 838.448 272.537 842.464 267.707 842.787C265.83 842.912 263.95 842.443 262.228 841.684C257.45 839.579 253.878 835.326 251.572 830.641C249.265 825.957 248.431 820.665 247.192 815.593C243.924 802.217 246.963 788.832 252.406 776.184C259.232 760.32 271.926 747.409 277.811 731.173C282.539 718.131 286.284 702.637 291.992 688.896C293.942 684.199 296.367 679.607 299.93 675.979C302.565 673.296 305.746 671.218 308.956 669.256C317.559 663.998 326.571 659.412 335.886 655.553C337.201 655.008 338.587 654.468 340.005 654.598C341.423 654.729 342.865 655.757 342.962 657.178C343.037 658.275 342.331 659.257 341.642 660.114C336.966 665.918 331.37 670.978 325.125 675.046C330.578 676.933 336.869 672.692 342.435 674.216C347.444 675.588 350.324 681.048 350.819 686.219C351.312 691.389 350.035 696.548 349.704 701.732C349.611 703.196 349.583 704.707 348.992 706.05C347.928 708.465 345.406 710.493 342.768 710.519C335.437 710.59 328.148 711.68 320.973 713.189C316.712 714.085 311.872 715.253 309.325 719.66Z" fill="#F0C49B"/>
<path d="M328.861 668.544C325.035 671.303 319.968 671.47 315.256 671.294C318.77 671.581 322.194 672.88 325.015 674.993C325.271 675.184 325.559 675.256 325.866 675.249C325.618 675.188 325.371 675.13 325.126 675.045C331.37 670.976 336.967 665.917 341.642 660.113C342.332 659.257 343.038 658.275 342.962 657.177C342.865 655.756 341.423 654.728 340.005 654.597C339.911 654.589 339.819 654.59 339.725 654.587C337.541 658.6 334.894 662.36 331.833 665.752C330.921 666.763 329.965 667.748 328.861 668.544Z" fill="#E0A988"/>
<path d="M294.172 702.531C292.813 712.158 300.612 720.634 302.251 730.217C302.925 734.156 302.535 738.191 302.142 742.168C300.752 756.259 299.332 770.496 294.762 783.897C293.071 788.856 290.962 793.66 288.855 798.457C285.614 805.834 282.374 813.211 279.134 820.588C276.662 826.215 274.137 831.93 270.165 836.62C268.312 838.807 266.083 840.751 263.609 842.212C264.933 842.644 266.32 842.878 267.707 842.786C272.537 842.463 276.204 838.447 279.156 834.611C285.89 825.864 291.824 816.456 296.243 806.341C299.46 798.979 311.251 765.422 309.325 719.659C309.487 719.379 309.659 719.112 309.838 718.858C302.895 715.887 298.275 709.001 294.172 702.531Z" fill="#E0A988"/>
<path d="M323.4 681.175C324.934 680.137 326.506 679.004 328.34 678.75C331.975 678.248 335.132 681.358 336.824 684.614C338.526 687.888 339.417 691.58 339.398 695.27C339.384 697.915 338.588 700.983 336.149 702.006C334.052 702.886 331.697 701.867 329.59 701.012C326.024 699.564 322.279 698.552 318.468 698.007C312.62 697.171 305.919 697.102 302.01 692.671C299.853 690.219 309.654 688.336 311.553 687.548C315.702 685.828 319.679 683.69 323.4 681.175Z" fill="#E0A988"/>
<path d="M309.612 718.938C308.962 719.13 308.28 718.803 307.7 718.454C305.869 717.35 304.239 715.914 302.913 714.237" stroke="#BA7A5D" stroke-miterlimit="10" stroke-linecap="round" stroke-linejoin="round"/>
<path d="M325.122 678.167C324.352 679.543 323.087 680.563 321.813 681.491C318.206 684.119 314.278 686.304 310.143 687.982" stroke="#BA7A5D" stroke-miterlimit="10" stroke-linecap="round" stroke-linejoin="round"/>
<path d="M305.396 692.766C316.42 691.133 327.922 692.866 337.976 697.679" stroke="#BA7A5D" stroke-miterlimit="10" stroke-linecap="round" stroke-linejoin="round"/>
<path d="M324.13 666.194C325.115 668.081 326.545 669.735 328.27 670.981" stroke="#BA7A5D" stroke-miterlimit="10" stroke-linecap="round" stroke-linejoin="round"/>
<path d="M326.079 664.933C327.303 667.119 329.049 669.01 331.131 670.405" stroke="#BA7A5D" stroke-miterlimit="10" stroke-linecap="round" stroke-linejoin="round"/>
<path d="M346.985 681.854C359.801 673.337 373.025 664.801 387.975 661.154C388.756 660.963 389.569 660.786 390.356 660.947C391.143 661.11 391.899 661.703 391.99 662.501C392.07 663.21 391.631 663.864 391.193 664.425C384.76 672.679 374.434 676.654 365.707 682.428C362.273 684.7 359.056 687.279 355.715 689.685C354.455 690.592 353.154 691.486 351.682 691.979C350.21 692.472 348.522 692.523 347.159 691.778C345.083 690.641 344.296 687.881 344.885 685.589C345.473 683.296 347.154 681.432 349.015 679.97" fill="#F0C49B"/>
<path d="M346.995 681.845L349.015 679.969C348.296 680.534 347.607 681.16 346.995 681.845Z" fill="#F0C49B"/>
<path d="M346.985 681.854L346.99 681.851L346.995 681.845L346.985 681.854Z" fill="#F0C49B"/>
<path d="M390.838 661.108C388.832 663.818 386.454 666.252 383.78 668.308C379.532 671.575 374.63 673.855 369.918 676.41C361.902 680.757 354.36 685.969 347.442 691.909C348.751 692.506 350.31 692.44 351.683 691.981C353.155 691.488 354.455 690.593 355.716 689.686C359.057 687.281 362.274 684.701 365.708 682.429C374.436 676.655 384.761 672.68 391.194 664.427C391.633 663.864 392.071 663.211 391.991 662.503C391.919 661.87 391.429 661.37 390.838 661.108Z" fill="#E0A988"/>
<path d="M360.499 673.206C360.423 674.826 361.76 676.387 363.372 676.559" stroke="#BA7A5D" stroke-miterlimit="10" stroke-linecap="round" stroke-linejoin="round"/>
<path d="M363.243 672.127C363.592 673.491 364.775 674.603 366.158 674.866" stroke="#BA7A5D" stroke-miterlimit="10" stroke-linecap="round" stroke-linejoin="round"/>
<path d="M376.466 665.838C376.68 666.826 377.022 667.785 377.48 668.685" stroke="#BA7A5D" stroke-miterlimit="10" stroke-linecap="round" stroke-linejoin="round"/>
<path d="M373.485 667.346C373.648 668.376 374.075 669.362 374.713 670.187" stroke="#BA7A5D" stroke-miterlimit="10" stroke-linecap="round" stroke-linejoin="round"/>
<path d="M371.593 682.098C375.733 678.205 380.214 674.135 385.815 673.168C386.463 673.056 387.203 673.013 387.702 673.44C388.366 674.01 388.23 675.071 387.918 675.889C386.967 678.383 384.994 680.319 383.41 682.467C382.309 683.958 381.381 685.581 380.161 686.976C379.26 688.007 378.212 688.9 377.133 689.743C369.331 695.842 359.646 699.496 349.76 700.073C348.565 700.142 347.198 700.1 346.408 699.199C345.96 698.69 345.791 697.994 345.726 697.32C345.338 693.272 348.332 689.457 352.054 687.82C355.776 686.183 360.043 686.337 364.05 687.025C366.471 684.921 369.256 684.296 371.593 682.098Z" fill="#F0C49B"/>
<path d="M363.926 687.106C363.801 688.697 364.078 690.318 364.724 691.776" stroke="#BA7A5D" stroke-miterlimit="10" stroke-linecap="round" stroke-linejoin="round"/>
<path d="M372.309 681.877C371.82 683.808 372.466 685.984 373.931 687.333" stroke="#BA7A5D" stroke-miterlimit="10" stroke-linecap="round" stroke-linejoin="round"/>
<path d="M367.526 689.418C365.665 690.797 363.945 692.387 361.918 693.508C357.039 696.208 350.908 695.942 345.876 698.132C345.982 698.523 346.142 698.895 346.408 699.198C347.199 700.098 348.565 700.141 349.761 700.071C359.647 699.495 369.332 695.84 377.134 689.742C378.213 688.899 379.261 688.006 380.162 686.975C381.138 685.859 381.93 684.601 382.77 683.377C377.284 684.042 371.966 686.124 367.526 689.418Z" fill="#E0A988"/>
<path d="M342.515 710.296C347.569 710.094 352.611 709.584 357.604 708.771C359.005 708.543 360.42 708.285 361.71 707.691C362.732 707.221 363.648 706.551 364.545 705.872C367.613 703.549 370.552 701.054 373.343 698.404C375.373 696.477 377.482 694.012 377.036 691.249C376.968 690.828 376.835 690.406 376.571 690.071C375.866 689.173 374.503 689.174 373.396 689.457C368.775 690.638 365.655 695.026 361.255 696.869C358.624 697.97 355.691 698.096 352.96 698.919C350.711 699.598 348.608 700.755 346.83 702.293C345.755 703.223 344.771 704.339 344.366 705.702C343.961 707.064 344.261 708.71 345.38 709.586" fill="#F0C49B"/>
<path d="M364.38 695.818C363.591 697.626 363.658 699.787 364.558 701.542" stroke="#BA7A5D" stroke-miterlimit="10" stroke-linecap="round" stroke-linejoin="round"/>
<path d="M355.748 698.52C354.605 699.988 354.415 702.135 355.282 703.781" stroke="#BA7A5D" stroke-miterlimit="10" stroke-linecap="round" stroke-linejoin="round"/>
<path d="M65.6231 528.906C65.2961 526.387 65.1284 523.823 65.4309 521.299C65.7588 518.561 66.6314 515.938 67.4973 513.342C69.56 507.159 71.6651 500.887 75.1988 495.544C79.6634 488.792 86.1144 483.957 92.4316 479.26C95.4677 477.003 98.5839 474.706 102.148 473.712C104.753 472.985 107.477 472.992 110.168 473.002C118.69 473.036 127.211 473.07 135.733 473.104C139.894 473.121 144.349 473.234 147.751 475.835C149.176 476.924 150.335 478.401 151.823 479.386C154.354 481.064 157.484 481.119 160.369 481.871C167.333 483.689 172.874 489.727 176.1 496.669C179.325 503.611 180.539 511.428 181.425 519.144C181.901 523.285 182.294 527.439 182.513 531.606C182.638 534.008 182.686 536.525 181.724 538.692C180.856 540.648 179.263 542.094 177.679 543.42C165.305 553.777 150.718 560.608 135.837 565.778C128.349 568.379 120.663 570.601 112.806 570.907C104.949 571.213 98.5792 578.671 92.0575 573.906C88.6765 571.435 85.9796 568.115 82.7466 565.463C80.3927 563.532 78.0059 562.293 76.0007 559.834C71.1233 553.863 66.6012 536.75 65.6231 528.906Z" fill="#8E6182"/>
<g opacity="0.5">
<path d="M177.172 515.554C175.566 510.612 173.755 505.674 170.868 501.354C166.855 495.351 160.91 490.813 154.423 487.639C150.309 485.626 145.913 484.115 141.364 483.578C135.748 482.915 130.064 483.747 124.529 484.905C108.519 488.253 92.4487 494.81 81.8911 507.304C74.0879 516.539 69.808 528.811 70.772 540.863C71.4014 548.741 74.349 556.431 79.0897 562.732C80.2779 563.636 81.5152 564.457 82.7449 565.467C85.9779 568.118 88.6748 571.439 92.0557 573.91C98.5784 578.675 104.947 571.217 112.804 570.91C120.661 570.604 128.347 568.383 135.835 565.781C150.717 560.612 165.304 553.78 177.677 543.423C179.261 542.098 180.854 540.651 181.722 538.696C182.311 537.37 182.52 535.912 182.566 534.432C180.933 528.089 179.195 521.779 177.172 515.554Z" fill="#8E6182"/>
</g>
<path opacity="0.2" d="M176.53 553.529C177.798 550.844 179.066 548.158 180.334 545.473C181.318 543.39 182.32 541.229 182.377 538.926C182.439 536.362 181.326 533.941 180.456 531.527C177.529 523.406 177.087 514.218 172.155 507.132C169.392 503.162 165.403 500.179 161.136 497.9C153.715 493.938 145.252 491.946 136.842 492.181C131.98 492.316 127.167 493.179 122.409 494.186C109.744 496.867 96.6698 500.964 87.781 510.376C79.5566 519.084 76.0173 531.265 74.7405 543.175C74.4569 545.824 74.2797 548.563 75.1052 551.096C75.8308 553.324 77.2838 555.236 78.8103 557.013C82.5824 561.407 86.3827 567.008 91.2101 570.206C86.8689 559.341 82.3091 545.67 85.2255 534.339C86.8142 528.166 90.5175 522.674 95.1187 518.261C99.7191 513.849 105.199 510.449 110.856 507.514C120.061 502.737 130.483 499.038 140.672 500.971C148.881 502.529 156.125 507.691 161.297 514.252C166.469 520.813 169.721 528.704 171.944 536.757C173.609 542.791 174.186 547.728 176.53 553.529Z" fill="white"/>
<path d="M180.665 585.108C178.264 596.14 174.088 600.836 165.624 610.803C162.712 614.234 156.615 618.638 152.226 619.632C147.974 620.595 143.508 619.763 139.371 618.392C133.961 616.6 128.899 613.91 123.894 611.185C120.432 609.302 116.939 607.361 114.113 604.616C111.445 602.021 109.474 598.808 107.566 595.614C99.7338 582.496 92.4508 569.051 85.7425 555.324C84.1717 552.11 83.7515 547.61 83.7995 544.033C83.923 534.742 88.0747 525.745 94.3599 518.901C100.644 512.056 108.941 507.261 117.721 504.221C124.179 501.985 131.082 500.646 137.858 501.533C148.149 502.882 157.309 509.358 163.5 517.689C169.691 526.019 173.177 536.076 175.324 546.23C177.472 556.385 180.844 561.347 182.379 571.611C182.869 574.892 181.371 581.867 180.665 585.108Z" fill="#F0C49B"/>
<path d="M95.7821 557.246C96.2024 554.539 96.8893 551.854 98.0964 549.395C99.295 546.954 100.98 544.787 102.736 542.711C105.916 538.953 109.371 535.429 113.066 532.176C112.99 539.776 117.31 547.876 123.88 551.698C120.896 547.285 121.91 541.162 124.181 536.342C126.452 531.522 130.004 527.424 132.604 522.774C133.953 520.359 135.043 517.8 135.848 515.154C140.876 514.022 145.089 517.402 148.959 520.806C152.088 523.559 154.856 526.723 157.168 530.191C159.555 533.772 161.474 537.694 164.327 540.915C167.496 544.491 171.59 546.965 175.965 548.97C175.743 548.093 175.526 547.191 175.323 546.231C173.175 536.077 169.69 526.021 163.499 517.69C157.309 509.36 148.148 502.883 137.857 501.534C131.082 500.646 124.177 501.985 117.72 504.222C108.939 507.261 100.643 512.058 94.3583 518.902C88.0741 525.747 83.9214 534.743 83.7979 544.034C83.7508 547.611 84.1701 552.11 85.7409 555.324C89.6326 563.287 93.7232 571.152 97.9965 578.916C95.4457 572.035 94.6551 564.5 95.7821 557.246Z" fill="#E0A988"/>
<path d="M176.429 542.098C174.132 534.158 170.363 526.736 166.616 519.369C164.907 516.01 163.176 512.618 160.745 509.738C156.553 504.772 150.576 501.676 144.552 499.236C141.924 498.171 139.201 497.208 136.421 496.713C135.753 495.618 134.701 494.688 133.13 494.037C129.617 492.584 125.617 493.434 121.948 494.427C108.25 498.131 94.2309 504.19 86.291 515.951C79.8598 525.476 78.3135 537.843 80.9407 549.032C83.5678 560.221 90.097 570.257 98.3648 578.241C95.5727 569.701 92.7647 560.501 95.3664 551.901C98.9575 540.035 111.554 533.267 117.564 522.423C114.996 530.387 116.256 539.493 120.89 546.461C119.492 541.66 119.868 536.362 121.932 531.807C124.216 526.764 128.355 522.84 131.552 518.32C133.177 516.02 134.092 513.666 134.805 511.238C137.668 512.651 140.176 511.79 143.383 512.723C145.002 513.194 146.466 514.086 147.845 515.055C158.536 522.564 164.785 534.692 171.822 545.7C172.405 546.612 173.129 547.607 174.203 547.749C175.403 547.906 176.489 546.839 176.779 545.665C177.07 544.492 176.765 543.26 176.429 542.098Z" fill="#493244"/>
<path opacity="0.5" d="M176.78 545.666C177.07 544.492 176.765 543.261 176.429 542.099C174.132 534.159 170.363 526.737 166.616 519.37C164.907 516.011 163.176 512.619 160.745 509.739C156.553 504.773 150.576 501.677 144.552 499.237C141.924 498.172 139.201 497.209 136.421 496.714C135.753 495.619 134.701 494.689 133.13 494.038C129.617 492.585 125.617 493.435 121.948 494.428C108.25 498.132 94.2309 504.191 86.291 515.952C79.8598 525.477 78.3135 537.844 80.9407 549.033C83.4236 559.608 89.3931 569.148 97.0201 576.904C87.8722 562.444 88.0249 542.454 97.757 528.306C104.3 518.795 114.281 512.267 124.284 506.503C123.012 513.18 121.265 519.768 119.061 526.198C123.347 521.007 126.934 515.239 129.693 509.099C130.178 508.022 130.675 506.883 131.622 506.178C132.677 505.392 134.083 505.299 135.397 505.324C142.12 505.452 148.774 507.963 153.904 512.31C161.032 518.35 164.843 527.312 168.718 535.814C170.557 539.849 172.554 543.947 174.983 547.675C175.848 547.416 176.555 546.577 176.78 545.666Z" fill="#493244"/>
<path d="M91.005 587.172C93.209 590.126 96.0265 592.559 98.8487 594.93C99.9154 595.826 101.019 596.735 102.339 597.178C103.659 597.621 105.263 597.498 106.249 596.515C107.9 594.868 106.984 592.081 105.923 590.004C103.535 585.327 98.7705 573.197 93.1751 571.636C83.6984 568.994 88.5315 583.857 91.005 587.172Z" fill="#F0C49B"/>
<path d="M93.4747 586.08C94.8165 587.878 96.5315 589.359 98.2503 590.802C98.8995 591.348 99.5714 591.902 100.375 592.172C101.179 592.441 102.155 592.367 102.755 591.767C103.761 590.765 103.203 589.068 102.557 587.803C101.103 584.956 98.2022 577.571 94.7958 576.621C89.027 575.013 91.9689 584.062 93.4747 586.08Z" fill="#E0A988"/>
<path d="M176.53 553.529C177.798 550.844 179.066 548.158 180.334 545.473C181.318 543.39 182.32 541.229 182.377 538.926C182.439 536.362 181.326 533.941 180.456 531.527C177.529 523.406 177.087 514.218 172.155 507.132C169.392 503.162 165.403 500.179 161.136 497.9C153.715 493.938 145.252 491.946 136.842 492.181C131.98 492.316 127.167 493.179 122.409 494.186C109.744 496.867 96.6698 500.964 87.781 510.376C79.5566 519.084 76.0173 531.265 74.7405 543.175C74.4569 545.824 74.2797 548.563 75.1052 551.096C75.8308 553.324 77.2838 555.236 78.8103 557.013C82.5824 561.407 86.3827 567.008 91.2101 570.206C86.8689 559.341 82.3091 545.67 85.2255 534.339C86.8142 528.166 90.5175 522.674 95.1187 518.261C99.7191 513.849 105.199 510.449 110.856 507.514C120.061 502.737 130.483 499.038 140.672 500.971C148.881 502.529 156.125 507.691 161.297 514.252C166.469 520.813 169.721 528.704 171.944 536.757C173.609 542.791 174.186 547.728 176.53 553.529Z" fill="#8E6182"/>
<path d="M142.918 597.56C146.309 598.036 149.857 597.303 152.781 595.521" stroke="#BA7A5D" stroke-miterlimit="10" stroke-linecap="round" stroke-linejoin="round"/>
<path d="M104.78 545.568C100.593 549.495 97.8758 554.954 97.2661 560.662" stroke="#89543F" stroke-miterlimit="10" stroke-linecap="round" stroke-linejoin="round"/>
<path d="M139.011 530.947C144.183 528.662 150.488 529.154 155.244 532.213" stroke="#89543F" stroke-miterlimit="10" stroke-linecap="round" stroke-linejoin="round"/>
<path d="M159.35 574.604C160.917 574.527 162.507 575.057 163.714 576.059" stroke="#BA7A5D" stroke-miterlimit="10" stroke-linecap="round" stroke-linejoin="round"/>
<path d="M123.986 589.542C123.01 590.308 122.305 591.41 122.018 592.616" stroke="#BA7A5D" stroke-miterlimit="10" stroke-linecap="round" stroke-linejoin="round"/>
<path d="M142.294 576.931C141.111 577.634 139.893 578.329 138.548 578.624C136.79 579.01 134.963 578.687 133.192 578.364C132.026 578.151 130.861 577.937 129.694 577.724C129.59 577.872 129.491 578.023 129.38 578.168C133.297 579.595 137.212 581.022 141.128 582.45C141.414 582.554 141.798 582.578 142.085 582.498C143.893 579.086 145.811 575.734 147.849 572.455C146.425 574.38 144.352 575.706 142.294 576.931Z" fill="#E0A988"/>
<path d="M125.671 546.971C128.454 551.792 131.142 556.78 132.265 562.233C133.387 567.686 132.755 573.74 129.381 578.169C133.297 579.596 137.213 581.023 141.129 582.45" stroke="#89543F" stroke-miterlimit="10" stroke-linecap="round" stroke-linejoin="round"/>
<path d="M106.455 571.596C106.478 564.674 114.767 559.436 121.024 562.404C119.394 562.467 117.875 562.677 116.426 563.076C111.955 564.274 108.535 567.477 106.455 571.596Z" fill="#512E21"/>
<path d="M145.759 553.039C147.874 547.079 155.554 543.621 161.415 546.008C159.865 546.162 158.417 546.378 157.009 546.721C152.713 547.77 148.978 549.978 145.759 553.039Z" fill="#512E21"/>
<path opacity="0.44" d="M140.945 596.615C143.902 597.102 147.048 597.524 149.804 596.347C153.4 594.811 155.375 591.004 157.067 587.479C157.806 585.936 158.546 584.394 159.287 582.851C157.01 585.688 155.3 588.21 149.901 590.4C145.721 592.096 135.435 594.215 130.215 593.692C132.156 596.26 138.029 596.135 140.945 596.615Z" fill="#E0A988"/>
<path d="M129.896 594.034C131.594 594.856 133.61 594.698 135.434 594.214C137.259 593.731 138.997 592.944 140.839 592.538C142.044 592.272 143.278 592.173 144.496 591.977C150.174 591.063 155.47 587.959 159.042 583.453" stroke="#89543F" stroke-miterlimit="10" stroke-linecap="round" stroke-linejoin="round"/>
<path d="M119.471 559.219C116.095 554.783 109.775 552.847 104.493 554.633C106.747 552.697 109.186 550.461 112.138 550.797C114.023 551.011 115.682 552.212 116.859 553.699C118.037 555.184 118.719 557.478 119.471 559.219Z" fill="#E0A988"/>
<path d="M148.188 533.698C145.888 533.148 143.413 534.512 142.21 536.546C141.006 538.581 140.915 541.121 141.451 543.423C141.987 545.725 143.095 547.847 144.193 549.94C142.764 544.039 144.149 538.234 148.188 533.698Z" fill="#E0A988"/>
<path opacity="0.45" d="M111.982 593.032C117.271 593.032 121.559 588.744 121.559 583.454C121.559 578.164 117.271 573.876 111.982 573.876C106.692 573.876 102.404 578.164 102.404 583.454C102.404 588.744 106.692 593.032 111.982 593.032Z" fill="#E89F87"/>
<path opacity="0.45" d="M167.319 571.728C172.609 571.728 176.897 567.44 176.897 562.151C176.897 556.861 172.609 552.573 167.319 552.573C162.03 552.573 157.742 556.861 157.742 562.151C157.742 567.44 162.03 571.728 167.319 571.728Z" fill="#E89F87"/>
<path d="M188.592 552.627C189.002 556.291 188.608 559.992 188.168 563.651C188.002 565.034 187.818 566.453 187.157 567.678C186.495 568.903 185.24 569.91 183.848 569.866C181.517 569.791 180.282 567.131 179.636 564.89C178.183 559.844 173.371 547.732 176.389 542.77C181.502 534.365 188.132 548.518 188.592 552.627Z" fill="#F0C49B"/>
<path d="M186.043 553.519C186.293 555.749 186.052 558.002 185.785 560.231C185.684 561.072 185.572 561.936 185.169 562.683C184.767 563.429 184.003 564.042 183.156 564.014C181.737 563.969 180.985 562.349 180.592 560.985C179.707 557.913 176.777 550.539 178.615 547.518C181.727 542.4 185.763 551.016 186.043 553.519Z" fill="#E0A988"/>
<path d="M43.2618 740.625C41.8898 743.563 41.6938 747.273 43.618 749.883C44.6743 751.315 46.2414 752.272 47.5248 753.505C49.5197 755.422 50.7861 757.954 52.4257 760.182C54.0653 762.411 56.3438 764.464 59.1047 764.648C60.7095 764.754 62.2963 764.213 63.9039 764.253C68.018 764.355 71.1002 768.085 75.0268 769.317C78.1326 770.291 81.5721 769.601 84.4734 768.126C90.6304 764.994 94.7388 758.203 94.654 751.296C94.5692 744.389 90.2959 737.701 84.0644 734.721C80.7193 733.121 76.984 732.558 73.2996 732.12C66.6121 731.326 59.5637 730.476 52.8187 730.796C48.7309 730.99 49.8193 731.51 48.0497 734.265C46.5938 736.529 44.4435 738.094 43.2618 740.625Z" fill="#C69075"/>
<path d="M15.7372 731.876C14.5509 734.069 18.8713 735.394 23.8844 735.717C28.8984 736.04 89.1388 740.956 89.1388 740.956L109.521 722.397C109.521 722.397 111.832 719.672 107.027 718.351C102.223 717.03 51.9904 716.602 47.8603 717.442C43.7302 718.284 17.1987 729.173 15.7372 731.876Z" fill="#969696"/>
<path opacity="0.5" d="M48.9534 720.743C46.2555 721.241 23.4537 731.499 17.1582 734.346C18.7045 735.077 21.1903 735.543 23.8844 735.717C28.8983 736.04 89.1388 740.955 89.1388 740.955L109.521 722.396C109.521 722.396 109.558 722.353 109.611 722.276C96.844 721.82 51.6427 720.246 48.9534 720.743Z" fill="#969696"/>
<path d="M44.1856 727.863H47.5694C47.6928 727.863 47.8144 727.836 47.9256 727.782L52.067 725.807C52.8642 725.427 52.5928 724.23 51.7099 724.23H48.0594C47.9284 724.23 47.7993 724.262 47.6834 724.321L43.8096 726.296C43.0331 726.692 43.314 727.863 44.1856 727.863Z" fill="white"/>
<path d="M37.4151 743.009C37.0457 743.911 36.7206 744.916 37.0193 745.844C37.2916 746.69 38.0436 747.304 38.8549 747.665C41.8203 748.981 45.2616 747.364 47.8105 745.358C49.2551 744.221 50.5913 742.947 51.7946 741.559C53.0073 740.16 54.1042 738.61 54.6375 736.838C55.1709 735.065 55.0757 733.034 54.042 731.498C48.8603 723.801 39.0867 738.926 37.4151 743.009Z" fill="#F0C49B"/>
<path d="M53.0557 734.203C52.1681 735.741 51.0354 737.136 49.7143 738.322C48.7843 739.156 47.3897 739.905 46.3626 739.194C45.5315 738.62 45.4721 737.412 45.6784 736.423C46.11 734.352 47.3605 732.464 49.099 731.258C50.1629 732.068 51.9909 733.394 53.0557 734.203Z" fill="white"/>
<path d="M51.6779 737.842C50.1052 739.336 48.3506 740.624 46.6017 741.907C43.8464 743.929 40.8828 746.015 37.6338 746.817C37.9768 747.174 38.4018 747.463 38.855 747.665C41.8204 748.981 45.2617 747.364 47.8106 745.358C49.2552 744.222 50.5914 742.947 51.7947 741.559C53.0074 740.16 54.1043 738.61 54.6376 736.838C54.8968 735.977 55.0032 735.056 54.9307 734.16C53.9375 735.464 52.8718 736.709 51.6779 737.842Z" fill="#E0A988"/>
<path d="M76.8289 761.477C80.3164 761.61 83.7143 760.147 86.5129 758.061C89.3116 755.976 91.5976 753.292 93.8573 750.633C95.9671 748.151 98.0759 745.668 100.186 743.185C103.743 738.999 107.38 734.673 109.116 729.461C109.79 727.436 109.793 724.591 107.792 723.847C106.844 723.495 105.788 723.795 104.839 724.147C98.1862 726.609 92.701 731.41 87.492 736.225C82.3301 740.996 77.2737 745.881 72.3275 750.875C70.2564 752.966 67.3541 754.962 69.5298 757.963C71.1336 760.177 74.1735 761.376 76.8289 761.477Z" fill="#F0C49B"/>
<path d="M108.575 727.245C108.14 729.25 107.098 731.121 105.621 732.545C104.954 733.189 104.159 733.762 103.241 733.891C102.323 734.02 101.277 733.585 100.951 732.716C100.653 731.918 101.013 731.037 101.398 730.276C102.272 728.549 103.303 726.901 104.474 725.359C106.046 725.454 107.536 726.062 108.575 727.245Z" fill="white"/>
<path d="M104.338 724.345C97.912 726.859 92.5691 731.533 87.492 736.226C82.3301 740.997 77.2737 745.882 72.3275 750.876C70.2564 752.967 67.3541 754.963 69.5298 757.964C70.0528 758.685 70.7369 759.287 71.5011 759.789C86.5403 753.217 97.7395 739.68 104.338 724.345Z" fill="#E0A988"/>
<path d="M94.709 740.42C95.5392 741.191 96.7076 741.585 97.8356 741.473" stroke="#BA7A5D" stroke-miterlimit="10" stroke-linecap="round" stroke-linejoin="round"/>
<path d="M96.3779 738.54C97.16 739 97.9431 739.459 98.7252 739.919" stroke="#BA7A5D" stroke-miterlimit="10" stroke-linecap="round" stroke-linejoin="round"/>
<path d="M79.8633 754.225C80.7048 754.844 81.5453 755.463 82.3868 756.082" stroke="#BA7A5D" stroke-miterlimit="10" stroke-linecap="round" stroke-linejoin="round"/>
<path d="M77.7432 755.702C78.6694 757.108 80.1263 758.157 81.7536 758.589" stroke="#BA7A5D" stroke-miterlimit="10" stroke-linecap="round" stroke-linejoin="round"/>
<path d="M102.622 723.231C102.943 725.594 101.479 727.796 100.045 729.703C92.8986 739.194 84.5913 747.925 74.7499 754.581C71.8938 756.513 68.8661 758.285 65.5295 759.153C63.4602 759.691 61.2194 759.86 59.217 759.111C57.2146 758.362 55.5194 756.544 55.3827 754.411C55.2207 751.893 57.1175 749.75 58.9974 748.067C68.7842 739.302 81.5363 734.157 90.6041 724.649C92.3379 722.831 94.4939 719.673 97.0843 719.071C99.5795 718.49 102.288 720.765 102.622 723.231Z" fill="#F0C49B"/>
<path d="M96.809 719.151C94.3411 719.902 92.2747 722.894 90.603 724.648C81.5352 734.156 68.7831 739.3 58.9963 748.066C57.1174 749.749 55.2205 751.893 55.3817 754.41C55.4599 755.625 56.0535 756.731 56.912 757.602C73.2053 748.478 87.0741 735.083 96.809 719.151Z" fill="#E0A988"/>
<path d="M101.4 724.029C100.33 726.196 98.7694 728.119 96.8697 729.614C95.9849 730.309 94.7806 730.932 93.7846 730.407C93.1712 730.084 92.8244 729.384 92.765 728.693C92.7057 728.002 92.8923 727.315 93.1194 726.659C93.8826 724.456 95.1302 722.422 96.7482 720.743C98.5715 721.303 100.334 722.447 101.4 724.029Z" fill="white"/>
<path d="M75.8516 744.419C76.677 746.218 78.7718 747.34 80.7261 747.03" stroke="#BA7A5D" stroke-miterlimit="10" stroke-linecap="round" stroke-linejoin="round"/>
<path d="M78.2236 742.692C79.7275 743.811 81.549 744.499 83.4167 744.656" stroke="#BA7A5D" stroke-miterlimit="10" stroke-linecap="round" stroke-linejoin="round"/>
<path d="M85.7842 733.702C86.6982 735.208 88.3312 736.254 90.0811 736.456" stroke="#BA7A5D" stroke-miterlimit="10" stroke-linecap="round" stroke-linejoin="round"/>
<path d="M88.2139 731.875C89.7244 733.204 91.5223 734.205 93.4474 734.788" stroke="#BA7A5D" stroke-miterlimit="10" stroke-linecap="round" stroke-linejoin="round"/>
<path d="M54.6847 740.177C62.4964 735.063 69.3629 728.637 76.9541 723.201C79.0196 721.721 81.2491 720.274 83.7754 720C86.3017 719.726 89.1757 721.01 89.8815 723.451C90.3385 725.029 89.808 726.762 88.8667 728.108C87.9244 729.455 86.6089 730.488 85.3142 731.499C83.0979 733.23 80.8816 734.961 78.6653 736.692C73.7097 740.562 68.7504 744.435 63.5677 747.995C60.4148 750.16 52.7256 755.747 49.0968 751.794C44.9724 747.299 51.3828 742.34 54.6847 740.177Z" fill="#F0C49B"/>
<path d="M88.3476 724.689C87.2828 726.24 86.0588 727.683 84.7009 728.986C83.9009 729.754 83.0001 730.5 81.9098 730.704C80.8205 730.907 79.5183 730.363 79.2422 729.291C79.0518 728.553 79.3731 727.785 79.735 727.114C80.9402 724.882 82.6957 722.952 84.8017 721.54C86.2011 722.187 87.6399 723.32 88.3476 724.689Z" fill="white"/>
<path d="M62.4502 741.204C62.9289 742.563 64.1322 743.644 65.5362 743.973" stroke="#BA7A5D" stroke-miterlimit="10" stroke-linecap="round" stroke-linejoin="round"/>
<path d="M66.2969 738.128C66.8792 739.552 68.1419 740.679 69.6223 741.096" stroke="#BA7A5D" stroke-miterlimit="10" stroke-linecap="round" stroke-linejoin="round"/>
<defs>
<filter id="filter0_n_28_825" x="0" y="586.455" width="304.031" height="271.882" filterUnits="userSpaceOnUse" color-interpolation-filters="sRGB">
<feFlood flood-opacity="0" result="BackgroundImageFix"/>
<feBlend mode="normal" in="SourceGraphic" in2="BackgroundImageFix" result="shape"/>
<feTurbulence type="fractalNoise" baseFrequency="2 2" stitchTiles="stitch" numOctaves="3" result="noise" seed="4376" />
<feColorMatrix in="noise" type="luminanceToAlpha" result="alphaNoise" />
<feComponentTransfer in="alphaNoise" result="coloredNoise1">
<feFuncA type="discrete" tableValues="1 1 1 1 1 1 1 1 1 1 1 1 1 1 1 1 1 1 1 1 1 1 1 1 1 1 1 1 1 1 1 1 1 1 1 1 1 1 1 1 1 1 1 1 1 1 1 1 1 1 1 0 0 0 0 0 0 0 0 0 0 0 0 0 0 0 0 0 0 0 0 0 0 0 0 0 0 0 0 0 0 0 0 0 0 0 0 0 0 0 0 0 0 0 0 0 0 0 0 0 "/>
</feComponentTransfer>
<feComposite operator="in" in2="shape" in="coloredNoise1" result="noise1Clipped" />
<feFlood flood-color="rgba(0, 0, 0, 0.25)" result="color1Flood" />
<feComposite operator="in" in2="noise1Clipped" in="color1Flood" result="color1" />
<feMerge result="effect1_noise_28_825">
<feMergeNode in="shape" />
<feMergeNode in="color1" />
</feMerge>
</filter>
<linearGradient id="paint0_linear_28_825" x1="392" y1="-0.000253564" x2="-43.274" y2="22.5456" gradientUnits="userSpaceOnUse">
<stop stop-color="#FE5957" stop-opacity="0.3"/>
<stop offset="0.533654" stop-color="#0C112E"/>
<stop offset="1" stop-color="#0FBDDF" stop-opacity="0.3"/>
</linearGradient>
<linearGradient id="paint1_linear_28_825" x1="151.68" y1="621.971" x2="152.015" y2="858.337" gradientUnits="userSpaceOnUse">
<stop offset="0.451923" stop-color="white"/>
<stop offset="1" stop-color="#999999"/>
</linearGradient>
</defs>
</svg>
