<svg width="1304" height="498" viewBox="0 0 1304 498" fill="none" xmlns="http://www.w3.org/2000/svg">
<rect y="74" width="1304" height="424" rx="24" fill="url(#paint0_linear_4_130)"/>
<g filter="url(#filter0_n_4_130)">
<rect y="74" width="1304" height="424" rx="24" fill="url(#paint1_linear_4_130)"/>
</g>
<path d="M742.439 395.249C741.81 401.262 741.179 407.316 741.659 413.343C742.157 419.596 743.84 425.686 745.514 431.731C749.048 444.492 752.815 457.701 761.427 467.758C763.645 470.347 766.225 472.732 769.369 474.049C773.463 475.763 778.157 475.502 782.429 474.303C790.723 471.975 797.804 466.287 802.97 459.394C808.135 452.501 811.528 444.439 814.178 436.243C817.014 427.471 819.056 418.441 820.272 409.303C821.671 398.785 821.882 387.642 817.326 378.06C813.31 369.613 805.993 363.229 798.459 357.687C790.927 352.148 782.757 347.096 773.615 345.136C765.704 343.44 749.736 344.028 746.834 353.273C744.916 359.386 745.358 367.394 744.69 373.78C743.938 380.937 743.19 388.093 742.439 395.249Z" fill="#E0A988"/>
<path d="M1050.79 465.682C1054.24 469.637 1058.24 473.28 1063.1 475.263C1067.96 477.245 1073.81 477.345 1078.24 474.521C1081.73 472.291 1083.95 468.578 1086.01 464.986C1090.91 456.466 1095.74 447.632 1097.26 437.924C1099.51 423.527 1094.23 409.074 1088.19 395.815C1085.09 389.018 1081.76 382.324 1078.22 375.747C1074.71 369.239 1070.96 362.812 1066.24 357.122C1063.19 353.441 1059.67 350.036 1055.39 347.885C1051.12 345.735 1046 344.951 1041.5 346.557C1036.36 348.387 1032.71 352.985 1030.11 357.772C1022.31 372.106 1024.2 385.161 1026.36 400.373C1028.48 415.301 1031.4 430.344 1037.46 444.231C1040.84 451.978 1045.22 459.304 1050.79 465.682Z" fill="#E0A988"/>
<g filter="url(#filter1_n_4_130)">
<path d="M800.515 497.277C813.878 460.025 822.016 426.803 819.478 388.73C793.103 390.639 766.147 383.244 744.441 368.142C739.236 364.522 733.22 361.881 727 363.104C732.795 339.874 739.231 316.804 746.299 293.928C752.291 274.537 758.831 255.079 769.543 237.841C780.256 220.603 795.613 205.562 814.752 198.807C827.699 194.237 863.903 191.519 866.936 189.66C870.511 187.468 872.22 183.208 873.185 179.126C874.517 173.496 874.878 167.637 874.246 161.884C888.134 164.82 903.725 166.554 917.846 165.1C931.967 163.648 946.172 157.775 954.936 146.607C955.243 161.397 958.125 177.759 969.49 187.231C973.173 190.3 977.638 192.293 982.193 193.79C999.162 199.368 1017.87 198.534 1034.44 205.221C1053.78 213.029 1067.95 230.349 1076.89 249.192C1085.82 268.035 1090.26 288.627 1095.6 308.787C1100.95 328.945 1107.48 349.263 1119.87 366.039C1090.12 382.669 1060.46 395.912 1027.74 405.44C1023.56 435.875 1021.32 467.236 1022.51 497.932L800.515 497.277Z" fill="url(#paint2_linear_4_130)"/>
</g>
<path d="M830.025 285.854C826.372 268.054 820.541 250.467 804.866 241.275C812.776 259.712 814.921 280.045 816.412 300.054C818.478 327.768 819.463 355.565 819.367 383.356C819.361 385.169 819.24 386.965 819.054 388.751C819.195 388.742 819.337 388.741 819.478 388.73C820.825 408.933 819.143 427.771 815.292 446.57C818.537 437.188 821.475 427.7 824.015 418.089C835.394 375.049 838.976 329.463 830.025 285.854Z" fill="#E0E0E0"/>
<path d="M1112.66 354.756C1096.31 368.159 1077.35 378.38 1057.14 384.563C1050.77 386.509 1044.29 388.063 1038 390.242C1034.27 391.536 1030.31 393.308 1028.49 396.817C1027.11 399.462 1027.26 402.418 1028.05 405.347C1060.65 395.826 1090.22 382.617 1119.87 366.039C1117.2 362.432 1114.82 358.654 1112.66 354.756Z" fill="#E0E0E0"/>
<path d="M820.196 374.993C788.853 376.238 762.132 350.432 731.082 347.211C729.691 352.501 728.324 357.797 727 363.104C733.22 361.879 739.237 364.52 744.441 368.142C766.148 383.244 793.104 390.639 819.478 388.73C819.522 389.379 819.536 390.015 819.574 390.661C820.225 385.469 820.439 380.221 820.196 374.993Z" fill="#E0E0E0"/>
<path d="M916.736 237.77C933.08 243.734 952.517 243.954 966.81 234.034C973.121 229.653 978.065 223.598 982.625 217.415C987.439 210.887 991.923 204.117 996.066 197.145C991.367 196.305 986.717 195.279 982.194 193.793C977.64 192.295 973.173 190.303 969.49 187.233C958.126 177.761 955.244 161.4 954.937 146.609C946.174 157.776 931.967 163.649 917.846 165.102C903.725 166.555 888.135 164.822 874.246 161.887C874.878 167.638 874.518 173.498 873.186 179.128C872.22 183.209 870.512 187.469 866.937 189.662C865.7 190.421 858.932 191.323 850.478 192.436C857.913 198.311 865.348 204.186 872.783 210.061C886.434 220.846 900.392 231.807 916.736 237.77Z" fill="#E0E0E0"/>
<path d="M874.421 369.301C880.483 381.376 887.377 393.275 897.088 402.669C906.8 412.063 919.711 418.795 933.223 418.657C942.034 418.566 950.557 415.616 958.692 412.229C968.463 408.16 977.948 403.409 987.059 398.021C974.907 419.387 951.84 434.146 927.348 436.226C922.021 436.678 916.551 436.551 911.481 434.858C906.087 433.058 901.428 429.591 896.937 426.101C890.337 420.971 883.758 415.548 879.207 408.534C875.491 402.807 873.28 396.246 871.341 389.699C867.361 376.252 864.377 362.536 861.395 348.832C860.131 343.022 854.869 304.508 849.853 304.355C849.999 314.68 856.631 327.722 860.336 337.389C864.5 348.25 869.202 358.906 874.421 369.301Z" fill="#E0E0E0"/>
<path d="M893.643 465.886C903.013 467.666 912.632 467.591 922.162 467.193C941.661 466.379 961.804 464.021 978.593 454.07C971.097 466.702 956.338 473.017 942.109 476.662C930.146 479.728 917.648 481.49 905.43 479.687C894.838 478.125 884.366 473.677 876.732 466.029C873.892 463.184 870.033 459.352 876.408 460.286C882.16 461.129 887.751 464.767 893.643 465.886Z" fill="#E0E0E0"/>
<path d="M1062.41 238.044C1046.34 251.995 1037.14 272.147 1029.94 292.168C1017.64 326.407 1009.8 362.248 1006.69 398.497C1003.85 431.537 1004.92 464.858 1002.15 497.871L1022.51 497.931C1021.32 467.234 1023.56 435.874 1027.74 405.439C1027.95 405.377 1028.16 405.311 1028.37 405.249C1028.43 370.611 1029.07 335.65 1037.9 302.202C1043.76 280.043 1053.1 258.989 1062.41 238.044Z" fill="#E0E0E0"/>
<path d="M935.303 232.37C940.295 232.969 945.377 233.106 950.329 232.242C962.11 230.187 972.488 222.404 978.956 212.345C982.373 207.03 984.749 201.13 986.235 194.986C984.878 194.62 983.528 194.231 982.191 193.792C977.637 192.294 973.171 190.302 969.487 187.232C958.123 177.76 955.241 161.399 954.934 146.608C946.171 157.775 931.965 163.648 917.844 165.102C903.723 166.554 888.132 164.822 874.244 161.886C874.876 167.637 874.515 173.497 873.183 179.128C872.218 183.208 870.509 187.469 866.934 189.661C866.128 190.156 862.963 190.712 858.526 191.347C869.053 200.095 879.741 208.682 891.388 215.853C904.813 224.116 919.653 230.491 935.303 232.37Z" fill="#F0C49B"/>
<path d="M932.471 201.783C936.95 200.267 940.554 196.922 943.761 193.448C949.709 187.003 954.751 179.863 959.268 172.355C956.18 164.35 955.113 155.217 954.934 146.608C946.171 157.775 931.965 163.648 917.844 165.102C903.723 166.554 888.132 164.822 874.244 161.886C874.863 167.533 874.522 173.283 873.249 178.82C884.885 185.565 896.802 191.826 908.966 197.564C916.357 201.049 924.733 204.402 932.471 201.783Z" fill="#E0A988"/>
<path d="M754.869 393.468C762.579 385.164 773.085 379.21 778.486 369.25C782.544 361.766 783.355 352.584 788.72 345.973C793.808 339.706 802.296 336.914 810.364 337.163C818.432 337.41 826.181 340.338 833.458 343.832C836.365 345.227 839.356 346.832 841.128 349.529C843.506 353.15 843.15 357.86 842.572 362.153C840.374 378.458 836.24 394.431 832.115 410.357C830.824 415.342 829.528 420.341 827.681 425.148C824.627 433.098 820.117 440.393 815.594 447.609C809.779 456.885 803.857 466.175 796.45 474.237C793.243 477.728 789.558 481.095 784.971 482.287C779.444 483.724 773.45 481.677 768.99 478.112C764.529 474.547 761.372 469.624 758.602 464.631C753.221 454.932 748.992 444.594 746.013 433.91C743.567 425.142 741.185 417.426 744.949 408.835C747.417 403.201 750.675 397.983 754.869 393.468Z" fill="#F0C49B"/>
<path d="M822.194 307.808C823.186 308.331 824.174 308.902 824.952 309.711C826.08 310.882 826.679 312.45 827.249 313.973C827.878 315.655 828.509 317.337 829.138 319.02C829.474 319.916 829.815 320.863 829.659 321.807C829.426 323.222 828.084 324.257 826.677 324.537C825.271 324.817 823.816 324.486 822.447 324.056C815.031 321.728 808.647 316.286 805.074 309.392C799.215 298.088 817.716 305.447 822.194 307.808Z" fill="#C69075"/>
<path d="M796.226 307.339C797.157 305.299 798.506 303.266 800.595 302.447C803.344 301.368 806.449 302.727 808.827 304.478C813.631 308.015 817.111 313.308 818.454 319.12C819.021 321.576 819.176 324.315 817.858 326.464C814.391 332.124 805.145 329.345 801.348 325.439C797.263 321.235 793.745 312.773 796.226 307.339Z" fill="#F0C49B"/>
<path d="M955.979 159.471C955.998 159.588 956.013 159.707 956.032 159.824C956.013 159.707 955.998 159.59 955.979 159.471Z" fill="#F0C49B"/>
<path d="M955.536 156.069C955.56 156.293 955.586 156.516 955.612 156.74C955.587 156.517 955.561 156.293 955.536 156.069Z" fill="#F0C49B"/>
<path d="M955.04 149.669C955.052 149.93 955.07 150.192 955.084 150.453C955.07 150.193 955.052 149.931 955.04 149.669Z" fill="#F0C49B"/>
<path d="M874.434 164.021C874.387 163.309 874.325 162.597 874.247 161.886C874.324 162.597 874.386 163.308 874.434 164.021Z" fill="#F0C49B"/>
<path d="M979.231 192.729C978.582 194.659 977.938 196.59 977.266 198.512C975.795 202.721 974.233 206.967 971.637 210.59C968.106 215.519 962.824 219.013 957.146 221.137C946.59 225.087 934.745 224.496 923.904 221.411C913.064 218.327 903.056 212.89 893.322 207.21C883.988 201.762 874.816 196.036 865.805 190.069C864.348 190.458 861.786 190.88 858.528 191.347C869.055 200.095 879.743 208.682 891.39 215.853C904.813 224.117 919.654 230.491 935.304 232.37C940.295 232.969 945.377 233.106 950.33 232.242C962.11 230.187 972.488 222.404 978.956 212.345C982.373 207.03 984.75 201.13 986.235 194.986C984.879 194.62 983.529 194.231 982.192 193.792C981.198 193.465 980.21 193.109 979.231 192.729Z" fill="#E0A988"/>
<path d="M955.613 156.741C955.72 157.653 955.843 158.564 955.98 159.473C955.842 158.564 955.721 157.653 955.613 156.741Z" fill="#E0A988"/>
<path d="M955.302 153.635C955.37 154.447 955.448 155.258 955.537 156.07C955.446 155.258 955.37 154.446 955.302 153.635Z" fill="#E0A988"/>
<path d="M956.032 159.823C956.704 164.146 957.739 168.387 959.27 172.355C957.739 168.388 956.708 164.143 956.032 159.823Z" fill="#E0A988"/>
<path d="M874.538 168.28C874.526 168.946 874.501 169.611 874.463 170.276C874.499 169.611 874.526 168.946 874.538 168.28Z" fill="#E0A988"/>
<path d="M1190.88 256.225C1193.67 255.387 1196.4 254.34 1199.18 253.428C1204.67 251.62 1210.33 250.34 1216.07 249.61C1216.22 251.877 1214.06 253.544 1212.15 254.765C1207 258.045 1201.84 261.326 1196.69 264.606C1189.86 268.959 1182.65 273.44 1174.57 274.042C1173.89 274.093 1173.18 274.111 1172.53 273.869C1171.83 273.603 1171.28 273.055 1170.75 272.52C1167.73 269.461 1162.66 262.094 1169.29 259.813C1172.43 258.735 1176.4 259.031 1179.68 258.574C1183.46 258.048 1187.22 257.32 1190.88 256.225Z" fill="#E0A988"/>
<path d="M1126.71 318.734C1129.2 377.868 1113.96 421.231 1109.81 430.744C1104.09 443.815 1096.43 455.972 1087.73 467.275C1083.91 472.232 1079.17 477.421 1072.93 477.838C1070.51 478 1068.08 477.393 1065.85 476.413C1059.68 473.693 1055.06 468.197 1052.08 462.144C1049.1 456.091 1048.02 449.253 1046.42 442.698C1042.2 425.414 1046.13 408.118 1053.16 391.774C1061.98 371.275 1078.38 354.591 1085.99 333.611C1092.1 316.759 1096.94 296.737 1104.31 278.98C1106.83 272.912 1109.97 266.978 1114.57 262.29C1117.97 258.822 1122.09 256.137 1126.23 253.602C1137.35 246.808 1149 240.882 1161.03 235.895C1162.73 235.19 1164.52 234.493 1166.35 234.661C1168.19 234.83 1170.05 236.158 1170.18 237.995C1170.27 239.412 1169.36 240.682 1168.47 241.789C1162.43 249.288 1155.2 255.827 1147.13 261.083C1154.17 263.522 1162.3 258.042 1169.49 260.012C1175.97 261.785 1179.69 268.84 1180.33 275.521C1180.97 282.202 1179.31 288.869 1178.89 295.567C1178.77 297.459 1178.73 299.412 1177.97 301.147C1176.59 304.268 1173.33 306.889 1169.92 306.921C1160.45 307.014 1151.03 308.423 1141.76 310.372C1136.26 311.53 1130 313.039 1126.71 318.734Z" fill="#F0C49B"/>
<path d="M1151.95 252.682C1147.01 256.247 1140.46 256.462 1134.37 256.235C1138.91 256.606 1143.34 258.284 1146.98 261.015C1147.31 261.262 1147.69 261.355 1148.08 261.346C1147.76 261.267 1147.44 261.192 1147.13 261.082C1155.2 255.824 1162.43 249.287 1168.47 241.787C1169.36 240.681 1170.27 239.412 1170.18 237.993C1170.05 236.157 1168.19 234.829 1166.35 234.659C1166.23 234.648 1166.11 234.651 1165.99 234.646C1163.17 239.832 1159.75 244.69 1155.79 249.074C1154.62 250.38 1153.38 251.653 1151.95 252.682Z" fill="#E0A988"/>
<path d="M1107.13 296.601C1105.37 309.04 1115.45 319.993 1117.57 332.376C1118.44 337.466 1117.93 342.68 1117.43 347.818C1115.63 366.027 1113.8 384.424 1107.89 401.741C1105.71 408.149 1102.98 414.356 1100.26 420.555C1096.07 430.088 1091.88 439.621 1087.7 449.153C1084.5 456.424 1081.24 463.809 1076.11 469.87C1073.71 472.696 1070.83 475.208 1067.64 477.095C1069.35 477.654 1071.14 477.956 1072.93 477.837C1079.17 477.42 1083.91 472.231 1087.72 467.274C1096.43 455.97 1104.09 443.813 1109.8 430.743C1113.96 421.23 1129.2 377.867 1126.71 318.732C1126.92 318.371 1127.14 318.026 1127.37 317.697C1118.4 313.858 1112.43 304.961 1107.13 296.601Z" fill="#E0A988"/>
<path d="M1144.9 269.003C1146.88 267.662 1148.91 266.199 1151.28 265.87C1155.98 265.221 1160.06 269.24 1162.24 273.447C1164.44 277.679 1165.6 282.449 1165.57 287.218C1165.55 290.636 1164.52 294.599 1161.37 295.921C1158.66 297.059 1155.62 295.742 1152.9 294.637C1148.29 292.765 1143.45 291.458 1138.52 290.754C1130.97 289.674 1122.31 289.585 1117.26 283.858C1114.47 280.69 1127.13 278.257 1129.59 277.239C1134.95 275.016 1140.09 272.254 1144.9 269.003Z" fill="#E0A988"/>
<path d="M1127.08 317.801C1126.24 318.049 1125.36 317.627 1124.61 317.175C1122.24 315.749 1120.14 313.894 1118.42 311.726" stroke="#BA7A5D" stroke-miterlimit="10" stroke-linecap="round" stroke-linejoin="round"/>
<path d="M1147.12 265.117C1146.13 266.895 1144.49 268.213 1142.85 269.412C1138.19 272.808 1133.11 275.632 1127.77 277.8" stroke="#BA7A5D" stroke-miterlimit="10" stroke-linecap="round" stroke-linejoin="round"/>
<path d="M1121.63 283.982C1135.88 281.871 1150.74 284.111 1163.73 290.33" stroke="#BA7A5D" stroke-miterlimit="10" stroke-linecap="round" stroke-linejoin="round"/>
<path d="M1145.84 249.645C1147.11 252.084 1148.96 254.221 1151.19 255.832" stroke="#BA7A5D" stroke-miterlimit="10" stroke-linecap="round" stroke-linejoin="round"/>
<path d="M1148.36 248.016C1149.94 250.841 1152.2 253.284 1154.89 255.087" stroke="#BA7A5D" stroke-miterlimit="10" stroke-linecap="round" stroke-linejoin="round"/>
<path d="M1175.37 269.882C1191.94 258.876 1209.02 247.845 1228.34 243.133C1229.35 242.887 1230.4 242.658 1231.42 242.866C1232.44 243.076 1233.41 243.843 1233.53 244.874C1233.63 245.79 1233.07 246.635 1232.5 247.361C1224.19 258.026 1210.84 263.162 1199.57 270.624C1195.13 273.559 1190.97 276.892 1186.65 280.001C1185.03 281.173 1183.35 282.328 1181.44 282.966C1179.54 283.602 1177.36 283.668 1175.6 282.705C1172.92 281.237 1171.9 277.67 1172.66 274.708C1173.42 271.745 1175.59 269.337 1178 267.447" fill="#F0C49B"/>
<path d="M1175.39 269.87L1178 267.446C1177.07 268.175 1176.18 268.985 1175.39 269.87Z" fill="#F0C49B"/>
<path d="M1175.37 269.881L1175.38 269.877L1175.39 269.87L1175.37 269.881Z" fill="#F0C49B"/>
<path d="M1232.04 243.073C1229.45 246.575 1226.37 249.72 1222.92 252.377C1217.43 256.599 1211.1 259.546 1205.01 262.847C1194.65 268.464 1184.9 275.198 1175.96 282.874C1177.66 283.646 1179.67 283.561 1181.44 282.967C1183.35 282.33 1185.03 281.175 1186.66 280.002C1190.97 276.895 1195.13 273.561 1199.57 270.625C1210.85 263.163 1224.19 258.027 1232.5 247.362C1233.07 246.635 1233.63 245.791 1233.53 244.876C1233.44 244.058 1232.8 243.412 1232.04 243.073Z" fill="#E0A988"/>
<path d="M1192.84 258.707C1192.74 260.8 1194.47 262.816 1196.55 263.039" stroke="#BA7A5D" stroke-miterlimit="10" stroke-linecap="round" stroke-linejoin="round"/>
<path d="M1196.38 257.312C1196.83 259.074 1198.36 260.511 1200.15 260.852" stroke="#BA7A5D" stroke-miterlimit="10" stroke-linecap="round" stroke-linejoin="round"/>
<path d="M1213.47 249.186C1213.74 250.462 1214.19 251.701 1214.78 252.864" stroke="#BA7A5D" stroke-miterlimit="10" stroke-linecap="round" stroke-linejoin="round"/>
<path d="M1209.62 251.134C1209.83 252.465 1210.38 253.74 1211.2 254.805" stroke="#BA7A5D" stroke-miterlimit="10" stroke-linecap="round" stroke-linejoin="round"/>
<path d="M1207.17 270.196C1212.52 265.165 1218.31 259.906 1225.55 258.657C1226.39 258.512 1227.34 258.456 1227.99 259.009C1228.85 259.745 1228.67 261.116 1228.27 262.173C1227.04 265.395 1224.49 267.897 1222.44 270.672C1221.02 272.6 1219.82 274.697 1218.24 276.5C1217.08 277.832 1215.73 278.985 1214.33 280.075C1204.25 287.956 1191.73 292.678 1178.96 293.423C1177.42 293.513 1175.65 293.458 1174.63 292.294C1174.05 291.637 1173.83 290.737 1173.75 289.866C1173.25 284.635 1177.11 279.705 1181.92 277.59C1186.73 275.475 1192.25 275.673 1197.43 276.563C1200.55 273.844 1204.15 273.036 1207.17 270.196Z" fill="#F0C49B"/>
<path d="M1197.26 276.668C1197.1 278.723 1197.46 280.818 1198.3 282.703" stroke="#BA7A5D" stroke-miterlimit="10" stroke-linecap="round" stroke-linejoin="round"/>
<path d="M1208.1 269.911C1207.46 272.406 1208.3 275.218 1210.19 276.961" stroke="#BA7A5D" stroke-miterlimit="10" stroke-linecap="round" stroke-linejoin="round"/>
<path d="M1201.92 279.655C1199.51 281.437 1197.29 283.492 1194.67 284.941C1188.37 288.429 1180.44 288.086 1173.94 290.916C1174.08 291.421 1174.28 291.902 1174.63 292.293C1175.65 293.456 1177.42 293.512 1178.96 293.421C1191.74 292.676 1204.25 287.953 1214.33 280.074C1215.73 278.984 1217.08 277.831 1218.24 276.499C1219.51 275.056 1220.53 273.43 1221.61 271.849C1214.53 272.708 1207.65 275.399 1201.92 279.655Z" fill="#E0A988"/>
<path d="M1169.6 306.634C1176.13 306.372 1182.64 305.714 1189.1 304.663C1190.91 304.368 1192.74 304.034 1194.4 303.267C1195.72 302.66 1196.91 301.794 1198.06 300.917C1202.03 297.915 1205.83 294.692 1209.43 291.266C1212.06 288.776 1214.78 285.591 1214.21 282.021C1214.12 281.476 1213.95 280.932 1213.61 280.499C1212.69 279.338 1210.93 279.34 1209.5 279.705C1203.53 281.232 1199.5 286.902 1193.81 289.283C1190.41 290.706 1186.62 290.868 1183.09 291.932C1180.19 292.809 1177.47 294.304 1175.17 296.291C1173.78 297.493 1172.51 298.936 1171.99 300.697C1171.47 302.458 1171.85 304.584 1173.3 305.716" fill="#F0C49B"/>
<path d="M1197.85 287.925C1196.83 290.262 1196.92 293.054 1198.08 295.322" stroke="#BA7A5D" stroke-miterlimit="10" stroke-linecap="round" stroke-linejoin="round"/>
<path d="M1186.7 291.417C1185.22 293.314 1184.97 296.088 1186.1 298.215" stroke="#BA7A5D" stroke-miterlimit="10" stroke-linecap="round" stroke-linejoin="round"/>
<path d="M811.798 72.2419C811.376 68.9859 811.159 65.6727 811.55 62.4119C811.974 58.8734 813.101 55.4848 814.22 52.1302C816.886 44.14 819.606 36.0354 824.172 29.1314C829.941 20.407 838.277 14.1581 846.44 8.08934C850.363 5.17309 854.39 2.20449 858.995 0.919875C862.362 -0.0189249 865.882 -0.0103994 869.359 0.00299466C880.371 0.0468297 891.382 0.0906668 902.394 0.134502C907.771 0.156419 913.527 0.30253 917.924 3.66322C919.765 5.07081 921.263 6.97886 923.186 8.25251C926.456 10.4199 930.501 10.4917 934.228 11.4634C943.228 13.8122 950.388 21.6149 954.556 30.5852C958.724 39.5556 960.292 49.6571 961.438 59.6272C962.053 64.9787 962.56 70.346 962.843 75.7305C963.005 78.8342 963.067 82.0865 961.824 84.8871C960.702 87.4149 958.643 89.2828 956.596 90.996C940.608 104.38 921.757 113.207 902.528 119.887C892.853 123.249 882.921 126.12 872.768 126.515C862.615 126.91 854.384 136.548 845.957 130.39C841.588 127.198 838.103 122.908 833.925 119.48C830.884 116.985 827.799 115.384 825.208 112.207C818.906 104.491 813.062 82.3775 811.798 72.2419Z" fill="#8E6182"/>
<g opacity="0.5">
<path d="M955.941 54.988C953.866 48.6027 951.526 42.2211 947.795 36.6394C942.609 28.8818 934.927 23.0177 926.545 18.9166C921.229 16.3158 915.548 14.3627 909.67 13.6686C902.414 12.8126 895.068 13.8878 887.916 15.3831C867.228 19.7093 846.462 28.1829 832.819 44.3276C822.736 56.2604 817.206 72.119 818.451 87.6926C819.265 97.8721 823.074 107.809 829.199 115.952C830.735 117.119 832.334 118.181 833.923 119.485C838.1 122.912 841.585 127.203 845.954 130.395C854.383 136.553 862.613 126.915 872.765 126.519C882.918 126.124 892.849 123.254 902.526 119.892C921.756 113.212 940.605 104.384 956.594 91.0009C958.641 89.2877 960.698 87.4186 961.821 84.892C962.582 83.1788 962.851 81.2951 962.911 79.3822C960.801 71.1863 958.555 63.0317 955.941 54.988Z" fill="#8E6182"/>
</g>
<path opacity="0.2" d="M955.112 104.06C956.751 100.59 958.388 97.1195 960.027 93.6492C961.299 90.9582 962.594 88.1661 962.667 85.1902C962.748 81.877 961.31 78.7477 960.186 75.6293C956.403 65.1345 955.831 53.2625 949.458 44.1058C945.888 38.9759 940.734 35.1209 935.22 32.1766C925.63 27.0564 914.695 24.4824 903.827 24.7855C897.544 24.9609 891.326 26.075 885.177 27.3767C868.812 30.8409 851.917 36.1352 840.431 48.297C829.803 59.5504 825.23 75.2896 823.58 90.6806C823.213 94.1034 822.985 97.643 824.051 100.916C824.989 103.795 826.866 106.265 828.839 108.562C833.713 114.239 838.624 121.477 844.862 125.61C839.252 111.57 833.36 93.9049 837.129 79.2628C839.182 71.286 843.967 64.1884 849.913 58.4862C855.857 52.7852 862.938 48.3919 870.248 44.599C882.144 38.4268 895.611 33.6463 908.777 36.1449C919.384 38.1577 928.745 44.8279 935.427 53.3063C942.111 61.7848 946.313 71.9813 949.186 82.3872C951.337 90.1838 952.084 96.5642 955.112 104.06Z" fill="white"/>
<path d="M960.456 144.866C957.354 159.122 951.957 165.189 941.02 178.068C937.256 182.502 929.378 188.193 923.707 189.478C918.213 190.722 912.442 189.647 907.096 187.875C900.105 185.559 893.564 182.084 887.096 178.563C882.623 176.129 878.11 173.621 874.458 170.073C871.01 166.721 868.463 162.569 865.998 158.441C855.877 141.49 846.466 124.117 837.797 106.378C835.767 102.225 835.224 96.4109 835.286 91.7887C835.446 79.7828 840.811 68.1568 848.932 59.3131C857.053 50.4681 867.774 44.2716 879.12 40.3435C887.465 37.454 896.385 35.7237 905.141 36.8707C918.439 38.6132 930.276 46.982 938.276 57.7472C946.276 68.5111 950.78 81.507 953.555 94.6283C956.33 107.75 960.687 114.162 962.671 127.425C963.304 131.664 961.368 140.678 960.456 144.866Z" fill="#F0C49B"/>
<path d="M850.769 108.862C851.312 105.365 852.2 101.895 853.76 98.7182C855.309 95.5633 857.486 92.7627 859.755 90.0803C863.864 85.2243 868.329 80.6703 873.103 76.4671C873.006 86.2885 878.587 96.7542 887.077 101.694C883.222 95.9907 884.532 88.0785 887.466 81.8502C890.401 75.622 894.99 70.3265 898.35 64.3174C900.093 61.1979 901.502 57.8907 902.542 54.4716C909.039 53.0092 914.483 57.3769 919.484 61.775C923.528 65.333 927.104 69.4206 930.092 73.9027C933.177 78.5297 935.656 83.5976 939.343 87.7594C943.438 92.3804 948.728 95.5779 954.382 98.1678C954.095 97.0354 953.814 95.8701 953.551 94.6294C950.776 81.5081 946.272 68.5134 938.273 57.7483C930.274 46.9843 918.436 38.6143 905.138 36.8718C896.383 35.7248 887.462 37.4551 879.117 40.3446C867.771 44.2727 857.05 50.4704 848.929 59.3142C840.809 68.1591 835.443 79.7839 835.283 91.7898C835.222 96.412 835.764 102.226 837.794 106.38C842.823 116.669 848.109 126.832 853.631 136.864C850.335 127.973 849.313 118.236 850.769 108.862Z" fill="#E0A988"/>
<path d="M954.982 89.2879C952.014 79.028 947.144 69.4379 942.301 59.9184C940.094 55.5775 937.857 51.194 934.715 47.4729C929.298 41.0559 921.575 37.0548 913.79 33.9023C910.394 32.5264 906.876 31.2819 903.283 30.6415C902.421 29.2266 901.061 28.0248 899.031 27.1846C894.492 25.307 889.323 26.4053 884.582 27.6875C866.882 32.474 848.766 40.3034 838.506 55.5008C830.196 67.8099 828.197 83.7902 831.592 98.2485C834.987 112.707 843.424 125.675 854.108 135.992C850.5 124.957 846.871 113.068 850.233 101.956C854.874 86.6224 871.151 77.8773 878.917 63.8647C875.599 74.155 877.227 85.9223 883.215 94.9255C881.408 88.7217 881.894 81.8761 884.561 75.99C887.512 69.4732 892.861 64.403 896.992 58.5619C899.092 55.5909 900.274 52.548 901.196 49.4114C904.895 51.2366 908.136 50.1237 912.28 51.3304C914.372 51.9392 916.263 53.0911 918.046 54.3428C931.861 64.0462 939.935 79.7184 949.029 93.9429C949.782 95.1216 950.718 96.4074 952.106 96.59C953.656 96.7934 955.06 95.415 955.435 93.8979C955.81 92.3819 955.416 90.7892 954.982 89.2879Z" fill="#493244"/>
<path opacity="0.5" d="M955.436 93.8991C955.81 92.3819 955.416 90.7904 954.982 89.2891C952.014 79.0292 947.144 69.4391 942.301 59.9196C940.094 55.5787 937.857 51.1952 934.715 47.4741C929.298 41.0571 921.575 37.056 913.79 33.9035C910.394 32.5276 906.876 31.2832 903.283 30.6427C902.421 29.2278 901.061 28.026 899.031 27.1858C894.492 25.3082 889.323 26.4065 884.582 27.6887C866.882 32.4752 848.766 40.3046 838.506 55.502C830.196 67.8111 828.197 83.7914 831.592 98.2497C834.801 111.914 842.514 124.243 852.37 134.265C840.549 115.579 840.746 89.7481 853.322 71.4665C861.778 59.1756 874.675 50.741 887.6 43.2927C885.956 51.9209 883.699 60.4335 880.852 68.7426C886.39 62.0347 891.025 54.5815 894.591 46.6473C895.216 45.2556 895.859 43.7835 897.083 42.8727C898.446 41.8571 900.262 41.7366 901.961 41.7695C910.648 41.9338 919.246 45.1789 925.875 50.7958C935.086 58.6009 940.011 70.1819 945.018 81.1674C947.395 86.3826 949.975 91.6769 953.114 96.4951C954.232 96.1602 955.145 95.0765 955.436 93.8991Z" fill="#493244"/>
<path d="M844.598 147.532C847.446 151.349 851.087 154.493 854.733 157.557C856.112 158.715 857.538 159.89 859.244 160.462C860.95 161.035 863.022 160.875 864.296 159.605C866.429 157.477 865.245 153.876 863.874 151.191C860.789 145.148 854.632 129.473 847.402 127.457C835.156 124.043 841.402 143.249 844.598 147.532Z" fill="#F0C49B"/>
<path d="M847.788 146.121C849.522 148.445 851.738 150.358 853.959 152.224C854.798 152.929 855.666 153.645 856.705 153.993C857.744 154.341 859.005 154.245 859.781 153.471C861.08 152.175 860.359 149.982 859.524 148.348C857.645 144.67 853.897 135.126 849.495 133.898C842.041 131.821 845.842 143.514 847.788 146.121Z" fill="#E0A988"/>
<path d="M955.112 104.06C956.751 100.59 958.388 97.1195 960.027 93.6492C961.299 90.9582 962.594 88.1661 962.667 85.1902C962.748 81.877 961.31 78.7477 960.186 75.6293C956.403 65.1345 955.831 53.2625 949.458 44.1058C945.888 38.9759 940.734 35.1209 935.22 32.1766C925.63 27.0564 914.695 24.4824 903.827 24.7855C897.544 24.9609 891.326 26.075 885.177 27.3767C868.812 30.8409 851.917 36.1352 840.431 48.297C829.803 59.5504 825.23 75.2896 823.58 90.6806C823.213 94.1034 822.985 97.643 824.051 100.916C824.989 103.795 826.866 106.265 828.839 108.562C833.713 114.239 838.624 121.477 844.862 125.61C839.252 111.57 833.36 93.9049 837.129 79.2628C839.182 71.286 843.967 64.1884 849.913 58.4862C855.857 52.7852 862.938 48.3919 870.248 44.599C882.144 38.4268 895.611 33.6463 908.777 36.1449C919.384 38.1577 928.745 44.8279 935.427 53.3063C942.111 61.7848 946.313 71.9813 949.186 82.3872C951.337 90.1838 952.084 96.5642 955.112 104.06Z" fill="#8E6182"/>
<path d="M911.679 160.957C916.061 161.572 920.646 160.624 924.424 158.322" stroke="#BA7A5D" stroke-miterlimit="10" stroke-linecap="round" stroke-linejoin="round"/>
<path d="M862.396 93.7722C856.986 98.8473 853.475 105.901 852.687 113.276" stroke="#89543F" stroke-miterlimit="10" stroke-linecap="round" stroke-linejoin="round"/>
<path d="M906.63 74.8793C913.314 71.9265 921.461 72.5621 927.606 76.5146" stroke="#89543F" stroke-miterlimit="10" stroke-linecap="round" stroke-linejoin="round"/>
<path d="M932.912 131.293C934.937 131.193 936.991 131.877 938.551 133.173" stroke="#BA7A5D" stroke-miterlimit="10" stroke-linecap="round" stroke-linejoin="round"/>
<path d="M887.214 150.595C885.954 151.585 885.043 153.009 884.671 154.568" stroke="#BA7A5D" stroke-miterlimit="10" stroke-linecap="round" stroke-linejoin="round"/>
<path d="M910.872 134.299C909.343 135.208 907.769 136.106 906.031 136.487C903.759 136.986 901.398 136.569 899.11 136.151C897.604 135.876 896.098 135.599 894.591 135.324C894.455 135.515 894.328 135.71 894.185 135.898C899.246 137.742 904.305 139.586 909.365 141.431C909.734 141.566 910.231 141.596 910.602 141.493C912.938 137.084 915.417 132.752 918.051 128.515C916.21 131.003 913.531 132.717 910.872 134.299Z" fill="#E0A988"/>
<path d="M889.392 95.5852C892.988 101.815 896.462 108.261 897.912 115.307C899.362 122.353 898.545 130.176 894.186 135.899C899.246 137.744 904.306 139.587 909.366 141.432" stroke="#89543F" stroke-miterlimit="10" stroke-linecap="round" stroke-linejoin="round"/>
<path d="M864.561 127.405C864.59 118.461 875.302 111.692 883.387 115.528C881.28 115.609 879.317 115.88 877.445 116.396C871.668 117.944 867.248 122.082 864.561 127.405Z" fill="#512E21"/>
<path d="M915.35 103.427C918.084 95.7252 928.007 91.2565 935.581 94.3407C933.578 94.5404 931.707 94.8193 929.887 95.2625C924.336 96.6177 919.51 99.4707 915.35 103.427Z" fill="#512E21"/>
<path opacity="0.44" d="M909.128 159.735C912.949 160.365 917.015 160.909 920.577 159.388C925.223 157.404 927.775 152.484 929.961 147.929C930.917 145.936 931.873 143.942 932.83 141.949C929.888 145.616 927.678 148.874 920.702 151.704C915.301 153.895 902.009 156.634 895.263 155.958C897.772 159.276 905.361 159.114 909.128 159.735Z" fill="#E0A988"/>
<path d="M894.851 156.4C897.046 157.462 899.651 157.259 902.008 156.633C904.365 156.008 906.612 154.991 908.992 154.466C910.549 154.123 912.144 153.995 913.718 153.742C921.054 152.561 927.898 148.55 932.514 142.727" stroke="#89543F" stroke-miterlimit="10" stroke-linecap="round" stroke-linejoin="round"/>
<path d="M881.381 111.412C877.018 105.679 868.852 103.178 862.027 105.486C864.939 102.984 868.091 100.095 871.906 100.529C874.341 100.805 876.485 102.358 878.006 104.279C879.528 106.198 880.41 109.162 881.381 111.412Z" fill="#E0A988"/>
<path d="M918.488 78.4337C915.517 77.7238 912.318 79.4857 910.763 82.1146C909.208 84.7435 909.09 88.0262 909.783 91.0009C910.476 93.9756 911.908 96.7177 913.326 99.4221C911.479 91.796 913.269 84.2954 918.488 78.4337Z" fill="#E0A988"/>
<path opacity="0.45" d="M871.704 155.105C878.539 155.105 884.08 149.564 884.08 142.729C884.08 135.894 878.539 130.353 871.704 130.353C864.869 130.353 859.328 135.894 859.328 142.729C859.328 149.564 864.869 155.105 871.704 155.105Z" fill="#E89F87"/>
<path opacity="0.45" d="M943.21 127.576C950.045 127.576 955.586 122.035 955.586 115.2C955.586 108.365 950.045 102.824 943.21 102.824C936.374 102.824 930.833 108.365 930.833 115.2C930.833 122.035 936.374 127.576 943.21 127.576Z" fill="#E89F87"/>
<path d="M970.699 102.895C971.228 107.629 970.719 112.412 970.151 117.14C969.936 118.926 969.699 120.76 968.844 122.343C967.989 123.926 966.367 125.228 964.569 125.17C961.557 125.074 959.96 121.637 959.126 118.74C957.249 112.219 951.03 96.5692 954.93 90.1571C961.537 79.2957 970.104 97.5847 970.699 102.895Z" fill="#F0C49B"/>
<path d="M967.405 104.047C967.728 106.929 967.417 109.84 967.072 112.72C966.941 113.807 966.796 114.924 966.277 115.888C965.757 116.852 964.769 117.644 963.674 117.609C961.841 117.55 960.869 115.457 960.361 113.694C959.218 109.724 955.432 100.196 957.807 96.2926C961.829 89.6784 967.044 100.812 967.405 104.047Z" fill="#E0A988"/>
<path d="M782.903 345.823C781.13 349.62 780.877 354.415 783.363 357.787C784.728 359.638 786.753 360.875 788.412 362.467C790.989 364.944 792.626 368.217 794.745 371.096C796.863 373.975 799.807 376.629 803.375 376.866C805.449 377.004 807.499 376.305 809.577 376.356C814.893 376.487 818.876 381.308 823.95 382.899C827.963 384.158 832.407 383.267 836.156 381.36C844.113 377.314 849.421 368.539 849.312 359.613C849.202 350.688 843.68 342.045 835.628 338.195C831.305 336.127 826.479 335.399 821.718 334.834C813.076 333.808 803.968 332.71 795.252 333.124C789.97 333.374 791.377 334.045 789.09 337.606C787.209 340.532 784.43 342.554 782.903 345.823Z" fill="#C69075"/>
<path d="M747.336 334.518C745.803 337.353 751.386 339.064 757.864 339.482C764.343 339.9 842.185 346.251 842.185 346.251L868.523 322.27C868.523 322.27 871.51 318.748 865.301 317.041C859.092 315.334 794.182 314.781 788.845 315.867C783.508 316.955 749.224 331.026 747.336 334.518Z" fill="#969696"/>
<path opacity="0.5" d="M790.257 320.132C786.771 320.777 757.307 334.032 749.172 337.71C751.17 338.655 754.382 339.258 757.863 339.482C764.342 339.9 842.185 346.251 842.185 346.251L868.522 322.269C868.522 322.269 868.57 322.213 868.639 322.114C852.142 321.524 793.733 319.491 790.257 320.132Z" fill="#969696"/>
<path d="M784.097 329.333H788.469C788.629 329.333 788.786 329.298 788.93 329.228L794.281 326.676C795.311 326.186 794.961 324.639 793.82 324.639H789.103C788.933 324.639 788.766 324.679 788.617 324.756L783.611 327.308C782.608 327.82 782.971 329.333 784.097 329.333Z" fill="white"/>
<path d="M775.348 348.904C774.871 350.07 774.45 351.369 774.836 352.568C775.188 353.66 776.16 354.454 777.208 354.921C781.04 356.622 785.487 354.532 788.781 351.94C790.647 350.47 792.374 348.824 793.929 347.03C795.496 345.223 796.913 343.22 797.603 340.93C798.292 338.64 798.169 336.014 796.833 334.03C790.137 324.084 777.508 343.628 775.348 348.904Z" fill="#F0C49B"/>
<path d="M795.558 337.525C794.411 339.513 792.947 341.316 791.24 342.848C790.038 343.925 788.236 344.893 786.909 343.975C785.835 343.233 785.758 341.672 786.025 340.394C786.583 337.718 788.198 335.278 790.445 333.72C791.82 334.766 794.182 336.48 795.558 337.525Z" fill="white"/>
<path d="M793.777 342.228C791.745 344.158 789.477 345.822 787.217 347.481C783.657 350.094 779.828 352.788 775.629 353.825C776.072 354.286 776.622 354.66 777.207 354.921C781.039 356.622 785.486 354.532 788.78 351.94C790.646 350.471 792.373 348.824 793.928 347.03C795.495 345.223 796.912 343.22 797.601 340.93C797.936 339.818 798.074 338.627 797.98 337.469C796.697 339.155 795.32 340.763 793.777 342.228Z" fill="#E0A988"/>
<path d="M826.278 372.769C830.784 372.941 835.175 371.05 838.792 368.355C842.408 365.66 845.362 362.192 848.282 358.756C851.008 355.549 853.733 352.341 856.459 349.132C861.056 343.723 865.756 338.133 867.999 331.398C868.87 328.782 868.873 325.104 866.288 324.144C865.063 323.688 863.698 324.077 862.472 324.531C853.876 327.713 846.788 333.916 840.057 340.139C833.386 346.303 826.853 352.616 820.461 359.069C817.785 361.771 814.034 364.35 816.846 368.228C818.918 371.089 822.847 372.639 826.278 372.769Z" fill="#F0C49B"/>
<path d="M867.301 328.534C866.738 331.125 865.392 333.542 863.484 335.383C862.622 336.215 861.594 336.955 860.408 337.122C859.222 337.289 857.87 336.726 857.449 335.604C857.063 334.572 857.529 333.434 858.026 332.451C859.156 330.219 860.488 328.09 862.001 326.096C864.033 326.219 865.958 327.006 867.301 328.534Z" fill="white"/>
<path d="M861.826 324.787C853.521 328.036 846.617 334.076 840.057 340.139C833.386 346.304 826.853 352.617 820.461 359.07C817.785 361.772 814.034 364.351 816.846 368.229C817.522 369.161 818.406 369.939 819.393 370.588C838.827 362.095 853.298 344.603 861.826 324.787Z" fill="#E0A988"/>
<path d="M849.383 345.559C850.455 346.555 851.965 347.064 853.423 346.919" stroke="#BA7A5D" stroke-miterlimit="10" stroke-linecap="round" stroke-linejoin="round"/>
<path d="M851.539 343.13C852.549 343.724 853.561 344.317 854.572 344.911" stroke="#BA7A5D" stroke-miterlimit="10" stroke-linecap="round" stroke-linejoin="round"/>
<path d="M830.199 363.398C831.286 364.198 832.372 364.998 833.46 365.798" stroke="#BA7A5D" stroke-miterlimit="10" stroke-linecap="round" stroke-linejoin="round"/>
<path d="M827.46 365.307C828.657 367.124 830.539 368.479 832.642 369.036" stroke="#BA7A5D" stroke-miterlimit="10" stroke-linecap="round" stroke-linejoin="round"/>
<path d="M859.608 323.347C860.022 326.401 858.131 329.247 856.278 331.71C847.043 343.975 836.308 355.257 823.591 363.858C819.901 366.354 815.988 368.645 811.677 369.766C809.003 370.461 806.107 370.679 803.52 369.711C800.932 368.743 798.742 366.394 798.565 363.638C798.356 360.384 800.807 357.615 803.236 355.441C815.882 344.114 832.361 337.466 844.078 325.18C846.318 322.831 849.104 318.749 852.452 317.971C855.676 317.221 859.175 320.161 859.608 323.347Z" fill="#F0C49B"/>
<path d="M852.097 318.075C848.908 319.045 846.237 322.913 844.077 325.179C832.36 337.465 815.882 344.112 803.235 355.439C800.807 357.614 798.356 360.384 798.564 363.637C798.665 365.207 799.433 366.636 800.542 367.762C821.596 355.972 839.517 338.663 852.097 318.075Z" fill="#E0A988"/>
<path d="M858.029 324.379C856.646 327.179 854.629 329.664 852.175 331.595C851.031 332.494 849.475 333.299 848.188 332.621C847.395 332.203 846.947 331.298 846.871 330.406C846.794 329.513 847.035 328.624 847.328 327.777C848.315 324.93 849.927 322.302 852.018 320.133C854.374 320.856 856.651 322.334 858.029 324.379Z" fill="white"/>
<path d="M825.015 350.727C826.082 353.051 828.788 354.502 831.314 354.101" stroke="#BA7A5D" stroke-miterlimit="10" stroke-linecap="round" stroke-linejoin="round"/>
<path d="M828.081 348.495C830.024 349.941 832.378 350.83 834.791 351.032" stroke="#BA7A5D" stroke-miterlimit="10" stroke-linecap="round" stroke-linejoin="round"/>
<path d="M837.851 336.879C839.032 338.824 841.143 340.176 843.404 340.437" stroke="#BA7A5D" stroke-miterlimit="10" stroke-linecap="round" stroke-linejoin="round"/>
<path d="M840.99 334.518C842.942 336.235 845.266 337.528 847.753 338.281" stroke="#BA7A5D" stroke-miterlimit="10" stroke-linecap="round" stroke-linejoin="round"/>
<path d="M797.663 345.245C807.757 338.636 816.63 330.333 826.439 323.308C829.108 321.397 831.989 319.526 835.254 319.172C838.518 318.818 842.232 320.477 843.144 323.631C843.735 325.67 843.049 327.91 841.833 329.65C840.615 331.39 838.915 332.724 837.242 334.031C834.378 336.268 831.514 338.504 828.651 340.741C822.247 345.742 815.839 350.747 809.142 355.347C805.067 358.145 795.131 365.364 790.442 360.256C785.113 354.448 793.396 348.04 797.663 345.245Z" fill="#F0C49B"/>
<path d="M841.162 325.232C839.786 327.236 838.205 329.1 836.45 330.784C835.416 331.777 834.252 332.741 832.843 333.004C831.436 333.266 829.753 332.563 829.396 331.178C829.15 330.224 829.565 329.232 830.033 328.365C831.59 325.482 833.859 322.987 836.58 321.163C838.388 321.998 840.248 323.463 841.162 325.232Z" fill="white"/>
<path d="M807.698 346.571C808.317 348.328 809.871 349.725 811.686 350.15" stroke="#BA7A5D" stroke-miterlimit="10" stroke-linecap="round" stroke-linejoin="round"/>
<path d="M812.669 342.597C813.421 344.437 815.053 345.893 816.966 346.432" stroke="#BA7A5D" stroke-miterlimit="10" stroke-linecap="round" stroke-linejoin="round"/>
<defs>
<filter id="filter0_n_4_130" x="0" y="74" width="1304" height="424" filterUnits="userSpaceOnUse" color-interpolation-filters="sRGB">
<feFlood flood-opacity="0" result="BackgroundImageFix"/>
<feBlend mode="normal" in="SourceGraphic" in2="BackgroundImageFix" result="shape"/>
<feTurbulence type="fractalNoise" baseFrequency="2 2" stitchTiles="stitch" numOctaves="3" result="noise" seed="8329" />
<feColorMatrix in="noise" type="luminanceToAlpha" result="alphaNoise" />
<feComponentTransfer in="alphaNoise" result="coloredNoise1">
<feFuncA type="discrete" tableValues="1 1 1 1 1 1 1 1 1 1 1 1 1 1 1 1 1 1 1 1 1 1 1 1 1 1 1 1 1 1 1 1 1 1 1 1 1 1 1 1 1 1 1 1 1 1 1 1 1 1 1 0 0 0 0 0 0 0 0 0 0 0 0 0 0 0 0 0 0 0 0 0 0 0 0 0 0 0 0 0 0 0 0 0 0 0 0 0 0 0 0 0 0 0 0 0 0 0 0 0 "/>
</feComponentTransfer>
<feComposite operator="in" in2="shape" in="coloredNoise1" result="noise1Clipped" />
<feFlood flood-color="#000000" result="color1Flood" />
<feComposite operator="in" in2="noise1Clipped" in="color1Flood" result="color1" />
<feMerge result="effect1_noise_4_130">
<feMergeNode in="shape" />
<feMergeNode in="color1" />
</feMerge>
</filter>
<filter id="filter1_n_4_130" x="727" y="146.607" width="392.868" height="351.326" filterUnits="userSpaceOnUse" color-interpolation-filters="sRGB">
<feFlood flood-opacity="0" result="BackgroundImageFix"/>
<feBlend mode="normal" in="SourceGraphic" in2="BackgroundImageFix" result="shape"/>
<feTurbulence type="fractalNoise" baseFrequency="2 2" stitchTiles="stitch" numOctaves="3" result="noise" seed="4376" />
<feColorMatrix in="noise" type="luminanceToAlpha" result="alphaNoise" />
<feComponentTransfer in="alphaNoise" result="coloredNoise1">
<feFuncA type="discrete" tableValues="1 1 1 1 1 1 1 1 1 1 1 1 1 1 1 1 1 1 1 1 1 1 1 1 1 1 1 1 1 1 1 1 1 1 1 1 1 1 1 1 1 1 1 1 1 1 1 1 1 1 1 0 0 0 0 0 0 0 0 0 0 0 0 0 0 0 0 0 0 0 0 0 0 0 0 0 0 0 0 0 0 0 0 0 0 0 0 0 0 0 0 0 0 0 0 0 0 0 0 0 "/>
</feComponentTransfer>
<feComposite operator="in" in2="shape" in="coloredNoise1" result="noise1Clipped" />
<feFlood flood-color="rgba(0, 0, 0, 0.25)" result="color1Flood" />
<feComposite operator="in" in2="noise1Clipped" in="color1Flood" result="color1" />
<feMerge result="effect1_noise_4_130">
<feMergeNode in="shape" />
<feMergeNode in="color1" />
</feMerge>
</filter>
<linearGradient id="paint0_linear_4_130" x1="1304" y1="73.9999" x2="9.53401" y2="525.344" gradientUnits="userSpaceOnUse">
<stop stop-color="#FE5957" stop-opacity="0.3"/>
<stop offset="0.533654" stop-color="#0C112E"/>
<stop offset="1" stop-color="#0FBDDF" stop-opacity="0.3"/>
</linearGradient>
<linearGradient id="paint1_linear_4_130" x1="1304" y1="73.9999" x2="9.53401" y2="525.344" gradientUnits="userSpaceOnUse">
<stop stop-color="#FE5957" stop-opacity="0.3"/>
<stop offset="0.533654" stop-color="#0C112E"/>
<stop offset="1" stop-color="#0FBDDF" stop-opacity="0.3"/>
</linearGradient>
<linearGradient id="paint2_linear_4_130" x1="923" y1="192.5" x2="923.434" y2="497.932" gradientUnits="userSpaceOnUse">
<stop offset="0.451923" stop-color="white"/>
<stop offset="1" stop-color="#999999"/>
</linearGradient>
</defs>
</svg>
