<svg width="1304" height="498" viewBox="0 0 1304 498" fill="none" xmlns="http://www.w3.org/2000/svg">
<rect y="74" width="1304" height="424" rx="24" fill="url(#paint0_linear_4_130)"/>
<g filter="url(#filter0_n_4_130)">
<rect y="74" width="1304" height="424" rx="24" fill="url(#paint1_linear_4_130)"/>
</g>
<path d="M812.44 395.249C811.81 401.262 811.179 407.316 811.659 413.343C812.157 419.596 813.84 425.686 815.514 431.731C819.048 444.492 822.815 457.701 831.428 467.758C833.645 470.347 836.225 472.732 839.369 474.049C843.463 475.763 848.157 475.502 852.429 474.303C860.723 471.975 867.805 466.287 872.97 459.394C878.135 452.501 881.529 444.439 884.178 436.243C887.014 427.471 889.056 418.441 890.273 409.303C891.672 398.785 891.882 387.642 887.326 378.06C883.31 369.613 875.993 363.229 868.46 357.687C860.927 352.148 852.757 347.096 843.615 345.136C835.704 343.44 819.736 344.028 816.834 353.273C814.916 359.386 815.358 367.394 814.69 373.78C813.939 380.937 813.19 388.093 812.44 395.249Z" fill="#E0A988"/>
<path d="M1120.79 465.682C1124.24 469.637 1128.24 473.28 1133.1 475.263C1137.96 477.245 1143.81 477.345 1148.24 474.521C1151.73 472.291 1153.95 468.578 1156.01 464.986C1160.91 456.466 1165.74 447.632 1167.26 437.924C1169.51 423.527 1164.23 409.074 1158.19 395.815C1155.09 389.018 1151.76 382.324 1148.22 375.747C1144.71 369.239 1140.96 362.812 1136.24 357.122C1133.19 353.441 1129.67 350.036 1125.39 347.885C1121.12 345.735 1116 344.951 1111.5 346.557C1106.36 348.387 1102.71 352.985 1100.11 357.772C1092.31 372.106 1094.2 385.161 1096.36 400.373C1098.48 415.301 1101.4 430.344 1107.46 444.231C1110.84 451.978 1115.22 459.304 1120.79 465.682Z" fill="#E0A988"/>
<g filter="url(#filter1_n_4_130)">
<path d="M870.515 497.277C883.877 460.025 892.016 426.803 889.477 388.73C863.103 390.639 836.147 383.244 814.44 368.142C809.236 364.522 803.22 361.881 797 363.104C802.795 339.874 809.231 316.804 816.298 293.928C822.29 274.537 828.83 255.079 839.543 237.841C850.256 220.603 865.613 205.562 884.752 198.807C897.699 194.237 933.903 191.519 936.936 189.66C940.511 187.468 942.219 183.208 943.185 179.126C944.517 173.496 944.878 167.637 944.246 161.884C958.134 164.82 973.725 166.554 987.846 165.1C1001.97 163.648 1016.17 157.775 1024.94 146.607C1025.24 161.397 1028.13 177.759 1039.49 187.231C1043.17 190.3 1047.64 192.293 1052.19 193.79C1069.16 199.368 1087.87 198.534 1104.44 205.221C1123.78 213.029 1137.95 230.349 1146.89 249.192C1155.82 268.035 1160.26 288.627 1165.6 308.787C1170.95 328.945 1177.48 349.263 1189.87 366.039C1160.12 382.669 1130.46 395.912 1097.74 405.44C1093.56 435.875 1091.32 467.236 1092.51 497.932L870.515 497.277Z" fill="url(#paint2_linear_4_130)"/>
</g>
<path d="M900.025 285.854C896.372 268.054 890.541 250.467 874.866 241.275C882.776 259.712 884.921 280.045 886.412 300.054C888.478 327.768 889.463 355.565 889.367 383.356C889.361 385.169 889.24 386.965 889.054 388.751C889.195 388.742 889.337 388.741 889.478 388.73C890.825 408.933 889.143 427.771 885.292 446.57C888.537 437.188 891.475 427.7 894.015 418.089C905.394 375.049 908.976 329.463 900.025 285.854Z" fill="#E0E0E0"/>
<path d="M1182.66 354.756C1166.31 368.159 1147.35 378.38 1127.14 384.563C1120.77 386.509 1114.29 388.063 1108 390.242C1104.27 391.536 1100.31 393.308 1098.49 396.817C1097.11 399.462 1097.26 402.418 1098.05 405.347C1130.65 395.826 1160.22 382.617 1189.87 366.039C1187.2 362.432 1184.82 358.654 1182.66 354.756Z" fill="#E0E0E0"/>
<path d="M890.196 374.993C858.852 376.238 832.131 350.432 801.082 347.211C799.691 352.501 798.324 357.797 797 363.104C803.22 361.879 809.236 364.52 814.44 368.142C836.147 383.244 863.103 390.639 889.477 388.73C889.521 389.379 889.536 390.015 889.574 390.661C890.225 385.469 890.438 380.221 890.196 374.993Z" fill="#E0E0E0"/>
<path d="M986.735 237.77C1003.08 243.734 1022.52 243.954 1036.81 234.034C1043.12 229.653 1048.06 223.598 1052.62 217.415C1057.44 210.887 1061.92 204.117 1066.07 197.145C1061.37 196.304 1056.72 195.279 1052.19 193.792C1047.64 192.295 1043.17 190.303 1039.49 187.233C1028.13 177.761 1025.24 161.4 1024.94 146.609C1016.17 157.776 1001.97 163.649 987.846 165.102C973.725 166.555 958.134 164.822 944.246 161.887C944.878 167.638 944.517 173.498 943.185 179.128C942.22 183.209 940.511 187.469 936.936 189.662C935.699 190.421 928.932 191.323 920.478 192.436C927.912 198.311 935.347 204.186 942.782 210.061C956.433 220.846 970.391 231.807 986.735 237.77Z" fill="#E0E0E0"/>
<path d="M944.421 369.301C950.483 381.376 957.377 393.275 967.088 402.669C976.8 412.063 989.711 418.795 1003.22 418.657C1012.03 418.566 1020.56 415.616 1028.69 412.229C1038.46 408.16 1047.95 403.409 1057.06 398.021C1044.91 419.387 1021.84 434.146 997.348 436.226C992.021 436.678 986.551 436.551 981.481 434.858C976.087 433.058 971.428 429.591 966.937 426.101C960.337 420.971 953.758 415.548 949.207 408.534C945.491 402.807 943.28 396.246 941.341 389.699C937.361 376.252 934.377 362.536 931.395 348.832C930.131 343.022 924.869 304.508 919.853 304.355C919.999 314.68 926.631 327.722 930.336 337.389C934.5 348.25 939.202 358.906 944.421 369.301Z" fill="#E0E0E0"/>
<path d="M963.643 465.886C973.013 467.666 982.632 467.591 992.162 467.193C1011.66 466.379 1031.8 464.021 1048.59 454.07C1041.1 466.702 1026.34 473.017 1012.11 476.662C1000.15 479.728 987.648 481.49 975.43 479.687C964.838 478.125 954.366 473.677 946.732 466.029C943.892 463.184 940.033 459.352 946.408 460.286C952.16 461.129 957.751 464.767 963.643 465.886Z" fill="#E0E0E0"/>
<path d="M1132.41 238.044C1116.34 251.995 1107.14 272.147 1099.94 292.168C1087.64 326.407 1079.8 362.248 1076.69 398.497C1073.85 431.537 1074.92 464.858 1072.15 497.872L1092.51 497.931C1091.32 467.234 1093.56 435.874 1097.74 405.439C1097.95 405.377 1098.16 405.311 1098.37 405.249C1098.43 370.611 1099.07 335.65 1107.9 302.202C1113.76 280.043 1123.1 258.989 1132.41 238.044Z" fill="#E0E0E0"/>
<path d="M1005.3 232.37C1010.29 232.969 1015.38 233.106 1020.33 232.242C1032.11 230.187 1042.49 222.404 1048.96 212.345C1052.37 207.03 1054.75 201.13 1056.23 194.986C1054.88 194.62 1053.53 194.231 1052.19 193.792C1047.64 192.294 1043.17 190.302 1039.49 187.232C1028.12 177.76 1025.24 161.399 1024.93 146.608C1016.17 157.775 1001.96 163.648 987.844 165.102C973.723 166.554 958.132 164.822 944.244 161.886C944.876 167.637 944.515 173.497 943.183 179.128C942.218 183.208 940.509 187.468 936.934 189.661C936.128 190.156 932.963 190.712 928.526 191.347C939.053 200.095 949.741 208.682 961.388 215.853C974.813 224.116 989.653 230.491 1005.3 232.37Z" fill="#F0C49B"/>
<path d="M1002.47 201.783C1006.95 200.267 1010.55 196.922 1013.76 193.448C1019.71 187.003 1024.75 179.863 1029.27 172.355C1026.18 164.35 1025.11 155.217 1024.93 146.608C1016.17 157.775 1001.96 163.648 987.844 165.102C973.723 166.554 958.132 164.822 944.244 161.886C944.864 167.533 944.523 173.283 943.249 178.82C954.885 185.565 966.802 191.826 978.966 197.564C986.357 201.049 994.733 204.402 1002.47 201.783Z" fill="#E0A988"/>
<path d="M824.869 393.468C832.579 385.164 843.085 379.21 848.486 369.25C852.544 361.766 853.355 352.584 858.72 345.973C863.808 339.706 872.296 336.914 880.364 337.163C888.432 337.41 896.181 340.338 903.458 343.832C906.365 345.227 909.356 346.832 911.128 349.529C913.506 353.15 913.15 357.86 912.572 362.154C910.374 378.458 906.24 394.431 902.115 410.357C900.824 415.342 899.528 420.341 897.681 425.148C894.627 433.098 890.117 440.393 885.594 447.609C879.779 456.885 873.857 466.175 866.45 474.237C863.243 477.728 859.558 481.095 854.971 482.287C849.444 483.724 843.45 481.677 838.99 478.112C834.529 474.547 831.372 469.624 828.602 464.631C823.221 454.932 818.992 444.594 816.013 433.91C813.567 425.142 811.185 417.426 814.949 408.835C817.417 403.201 820.675 397.983 824.869 393.468Z" fill="#F0C49B"/>
<path d="M892.194 307.808C893.186 308.331 894.174 308.902 894.952 309.711C896.08 310.882 896.679 312.451 897.249 313.973C897.878 315.655 898.509 317.337 899.138 319.02C899.474 319.916 899.815 320.863 899.659 321.807C899.426 323.222 898.084 324.257 896.677 324.537C895.271 324.817 893.816 324.486 892.447 324.056C885.031 321.728 878.647 316.286 875.074 309.392C869.215 298.088 887.716 305.447 892.194 307.808Z" fill="#C69075"/>
<path d="M866.226 307.339C867.158 305.299 868.507 303.266 870.595 302.447C873.344 301.368 876.449 302.727 878.827 304.478C883.631 308.015 887.111 313.308 888.454 319.12C889.021 321.576 889.176 324.315 887.859 326.464C884.391 332.124 875.145 329.345 871.349 325.439C867.263 321.235 863.746 312.773 866.226 307.339Z" fill="#F0C49B"/>
<path d="M1025.98 159.471C1026 159.588 1026.01 159.707 1026.03 159.824C1026.01 159.707 1026 159.59 1025.98 159.471Z" fill="#F0C49B"/>
<path d="M1025.54 156.069C1025.56 156.293 1025.59 156.516 1025.61 156.74C1025.59 156.517 1025.56 156.293 1025.54 156.069Z" fill="#F0C49B"/>
<path d="M1025.04 149.669C1025.05 149.93 1025.07 150.192 1025.08 150.453C1025.07 150.193 1025.05 149.931 1025.04 149.669Z" fill="#F0C49B"/>
<path d="M944.435 164.021C944.387 163.309 944.325 162.597 944.247 161.886C944.324 162.597 944.386 163.308 944.435 164.021Z" fill="#F0C49B"/>
<path d="M1049.23 192.729C1048.58 194.659 1047.94 196.59 1047.27 198.512C1045.8 202.721 1044.23 206.967 1041.64 210.59C1038.11 215.519 1032.82 219.013 1027.15 221.137C1016.59 225.087 1004.75 224.496 993.905 221.411C983.064 218.327 973.056 212.89 963.322 207.21C953.988 201.762 944.817 196.036 935.805 190.069C934.349 190.458 931.787 190.88 928.528 191.347C939.055 200.095 949.743 208.682 961.39 215.853C974.813 224.117 989.654 230.491 1005.3 232.37C1010.3 232.969 1015.38 233.106 1020.33 232.242C1032.11 230.187 1042.49 222.404 1048.96 212.345C1052.37 207.03 1054.75 201.13 1056.24 194.986C1054.88 194.62 1053.53 194.231 1052.19 193.792C1051.2 193.465 1050.21 193.109 1049.23 192.729Z" fill="#E0A988"/>
<path d="M1025.61 156.741C1025.72 157.653 1025.84 158.564 1025.98 159.473C1025.84 158.564 1025.72 157.653 1025.61 156.741Z" fill="#E0A988"/>
<path d="M1025.3 153.635C1025.37 154.447 1025.45 155.258 1025.54 156.07C1025.45 155.258 1025.37 154.446 1025.3 153.635Z" fill="#E0A988"/>
<path d="M1026.03 159.823C1026.7 164.146 1027.74 168.387 1029.27 172.355C1027.74 168.388 1026.71 164.143 1026.03 159.823Z" fill="#E0A988"/>
<path d="M944.538 168.28C944.526 168.946 944.501 169.611 944.463 170.276C944.499 169.611 944.526 168.946 944.538 168.28Z" fill="#E0A988"/>
<path d="M1260.88 256.225C1263.67 255.387 1266.4 254.34 1269.18 253.428C1274.67 251.62 1280.33 250.34 1286.07 249.61C1286.22 251.877 1284.06 253.544 1282.15 254.765C1277 258.045 1271.84 261.326 1266.69 264.606C1259.86 268.959 1252.65 273.44 1244.57 274.042C1243.89 274.093 1243.18 274.111 1242.53 273.869C1241.83 273.603 1241.28 273.055 1240.75 272.52C1237.73 269.461 1232.66 262.094 1239.29 259.814C1242.43 258.735 1246.4 259.031 1249.68 258.574C1253.46 258.048 1257.22 257.32 1260.88 256.225Z" fill="#E0A988"/>
<path d="M1196.71 318.734C1199.2 377.868 1183.96 421.231 1179.81 430.744C1174.09 443.815 1166.43 455.972 1157.73 467.275C1153.91 472.232 1149.17 477.421 1142.93 477.838C1140.51 478 1138.08 477.393 1135.85 476.413C1129.68 473.693 1125.06 468.197 1122.08 462.144C1119.1 456.091 1118.02 449.253 1116.42 442.698C1112.2 425.414 1116.13 408.118 1123.16 391.774C1131.98 371.275 1148.38 354.591 1155.99 333.611C1162.1 316.759 1166.94 296.737 1174.31 278.98C1176.83 272.912 1179.97 266.978 1184.57 262.29C1187.97 258.822 1192.09 256.137 1196.23 253.602C1207.35 246.808 1219 240.882 1231.03 235.895C1232.73 235.19 1234.52 234.493 1236.35 234.661C1238.19 234.83 1240.05 236.158 1240.18 237.995C1240.27 239.412 1239.36 240.682 1238.47 241.789C1232.43 249.288 1225.2 255.827 1217.13 261.083C1224.17 263.522 1232.3 258.042 1239.49 260.012C1245.97 261.785 1249.69 268.84 1250.33 275.521C1250.97 282.202 1249.31 288.869 1248.89 295.567C1248.77 297.459 1248.73 299.412 1247.97 301.147C1246.59 304.268 1243.33 306.889 1239.92 306.921C1230.45 307.014 1221.03 308.423 1211.76 310.372C1206.26 311.53 1200 313.039 1196.71 318.734Z" fill="#F0C49B"/>
<path d="M1221.95 252.682C1217.01 256.247 1210.46 256.462 1204.37 256.235C1208.91 256.606 1213.34 258.284 1216.98 261.015C1217.31 261.262 1217.69 261.355 1218.08 261.346C1217.76 261.267 1217.44 261.192 1217.13 261.082C1225.2 255.824 1232.43 249.287 1238.47 241.787C1239.36 240.681 1240.27 239.412 1240.18 237.993C1240.05 236.157 1238.19 234.829 1236.35 234.659C1236.23 234.648 1236.11 234.651 1235.99 234.646C1233.17 239.832 1229.75 244.69 1225.79 249.074C1224.62 250.38 1223.38 251.653 1221.95 252.682Z" fill="#E0A988"/>
<path d="M1177.13 296.601C1175.37 309.04 1185.45 319.993 1187.57 332.376C1188.44 337.466 1187.93 342.68 1187.43 347.818C1185.63 366.027 1183.8 384.424 1177.89 401.741C1175.71 408.149 1172.98 414.356 1170.26 420.555C1166.07 430.088 1161.88 439.621 1157.7 449.153C1154.5 456.424 1151.24 463.809 1146.11 469.87C1143.71 472.696 1140.83 475.208 1137.63 477.095C1139.35 477.654 1141.14 477.956 1142.93 477.837C1149.17 477.42 1153.91 472.231 1157.72 467.274C1166.43 455.97 1174.09 443.813 1179.8 430.743C1183.96 421.23 1199.2 377.867 1196.71 318.732C1196.92 318.371 1197.14 318.026 1197.37 317.697C1188.4 313.858 1182.43 304.961 1177.13 296.601Z" fill="#E0A988"/>
<path d="M1214.9 269.003C1216.88 267.662 1218.91 266.199 1221.28 265.87C1225.98 265.221 1230.06 269.24 1232.24 273.447C1234.44 277.679 1235.6 282.449 1235.57 287.218C1235.55 290.636 1234.52 294.599 1231.37 295.921C1228.66 297.059 1225.62 295.742 1222.9 294.637C1218.29 292.765 1213.45 291.458 1208.53 290.754C1200.97 289.674 1192.31 289.585 1187.26 283.858C1184.47 280.69 1197.14 278.257 1199.59 277.239C1204.95 275.016 1210.09 272.254 1214.9 269.003Z" fill="#E0A988"/>
<path d="M1197.08 317.801C1196.24 318.049 1195.36 317.627 1194.61 317.175C1192.24 315.749 1190.14 313.894 1188.42 311.726" stroke="#BA7A5D" stroke-miterlimit="10" stroke-linecap="round" stroke-linejoin="round"/>
<path d="M1217.12 265.117C1216.13 266.895 1214.49 268.213 1212.85 269.412C1208.19 272.808 1203.11 275.632 1197.77 277.8" stroke="#BA7A5D" stroke-miterlimit="10" stroke-linecap="round" stroke-linejoin="round"/>
<path d="M1191.63 283.982C1205.88 281.871 1220.74 284.111 1233.73 290.33" stroke="#BA7A5D" stroke-miterlimit="10" stroke-linecap="round" stroke-linejoin="round"/>
<path d="M1215.84 249.645C1217.11 252.084 1218.96 254.221 1221.19 255.832" stroke="#BA7A5D" stroke-miterlimit="10" stroke-linecap="round" stroke-linejoin="round"/>
<path d="M1218.36 248.016C1219.94 250.841 1222.2 253.284 1224.89 255.087" stroke="#BA7A5D" stroke-miterlimit="10" stroke-linecap="round" stroke-linejoin="round"/>
<path d="M1245.37 269.882C1261.94 258.876 1279.02 247.845 1298.34 243.133C1299.35 242.887 1300.4 242.658 1301.42 242.866C1302.44 243.076 1303.41 243.843 1303.53 244.874C1303.63 245.79 1303.07 246.635 1302.5 247.361C1294.19 258.026 1280.84 263.162 1269.57 270.624C1265.13 273.559 1260.97 276.892 1256.65 280.001C1255.03 281.173 1253.35 282.327 1251.44 282.966C1249.54 283.602 1247.36 283.668 1245.6 282.705C1242.92 281.237 1241.9 277.67 1242.66 274.708C1243.42 271.745 1245.59 269.337 1248 267.447" fill="#F0C49B"/>
<path d="M1245.39 269.87L1248 267.446C1247.07 268.175 1246.18 268.985 1245.39 269.87Z" fill="#F0C49B"/>
<path d="M1245.37 269.881L1245.38 269.877L1245.39 269.87L1245.37 269.881Z" fill="#F0C49B"/>
<path d="M1302.04 243.073C1299.45 246.575 1296.37 249.72 1292.92 252.377C1287.43 256.599 1281.1 259.546 1275.01 262.847C1264.65 268.464 1254.9 275.198 1245.96 282.874C1247.66 283.646 1249.67 283.561 1251.44 282.967C1253.35 282.33 1255.03 281.175 1256.66 280.002C1260.97 276.895 1265.13 273.561 1269.57 270.625C1280.84 263.163 1294.19 258.027 1302.5 247.362C1303.07 246.635 1303.63 245.791 1303.53 244.875C1303.44 244.058 1302.8 243.412 1302.04 243.073Z" fill="#E0A988"/>
<path d="M1262.84 258.707C1262.74 260.8 1264.47 262.816 1266.55 263.039" stroke="#BA7A5D" stroke-miterlimit="10" stroke-linecap="round" stroke-linejoin="round"/>
<path d="M1266.38 257.312C1266.83 259.074 1268.36 260.511 1270.15 260.852" stroke="#BA7A5D" stroke-miterlimit="10" stroke-linecap="round" stroke-linejoin="round"/>
<path d="M1283.47 249.186C1283.74 250.462 1284.19 251.701 1284.78 252.864" stroke="#BA7A5D" stroke-miterlimit="10" stroke-linecap="round" stroke-linejoin="round"/>
<path d="M1279.62 251.134C1279.83 252.465 1280.38 253.74 1281.2 254.805" stroke="#BA7A5D" stroke-miterlimit="10" stroke-linecap="round" stroke-linejoin="round"/>
<path d="M1277.17 270.196C1282.52 265.165 1288.31 259.906 1295.55 258.657C1296.39 258.512 1297.34 258.456 1297.99 259.009C1298.85 259.745 1298.67 261.116 1298.27 262.173C1297.04 265.395 1294.49 267.897 1292.44 270.672C1291.02 272.6 1289.82 274.697 1288.24 276.5C1287.08 277.832 1285.73 278.985 1284.33 280.075C1274.25 287.956 1261.73 292.678 1248.96 293.423C1247.42 293.513 1245.65 293.458 1244.63 292.294C1244.05 291.637 1243.83 290.737 1243.75 289.866C1243.25 284.635 1247.11 279.705 1251.92 277.59C1256.73 275.475 1262.25 275.673 1267.43 276.563C1270.55 273.844 1274.15 273.036 1277.17 270.196Z" fill="#F0C49B"/>
<path d="M1267.26 276.668C1267.1 278.723 1267.46 280.818 1268.3 282.702" stroke="#BA7A5D" stroke-miterlimit="10" stroke-linecap="round" stroke-linejoin="round"/>
<path d="M1278.1 269.911C1277.47 272.406 1278.3 275.218 1280.19 276.961" stroke="#BA7A5D" stroke-miterlimit="10" stroke-linecap="round" stroke-linejoin="round"/>
<path d="M1271.92 279.655C1269.51 281.437 1267.29 283.492 1264.67 284.941C1258.37 288.429 1250.44 288.086 1243.94 290.916C1244.08 291.421 1244.28 291.902 1244.63 292.293C1245.65 293.456 1247.42 293.512 1248.96 293.421C1261.74 292.676 1274.25 287.953 1284.33 280.074C1285.73 278.984 1287.08 277.831 1288.24 276.499C1289.51 275.056 1290.53 273.43 1291.61 271.849C1284.53 272.708 1277.65 275.399 1271.92 279.655Z" fill="#E0A988"/>
<path d="M1239.6 306.634C1246.13 306.372 1252.64 305.714 1259.1 304.663C1260.91 304.368 1262.74 304.034 1264.4 303.267C1265.72 302.66 1266.91 301.794 1268.06 300.917C1272.03 297.915 1275.83 294.691 1279.43 291.266C1282.06 288.776 1284.78 285.591 1284.21 282.021C1284.12 281.476 1283.95 280.932 1283.61 280.499C1282.69 279.338 1280.93 279.339 1279.5 279.705C1273.53 281.232 1269.5 286.902 1263.81 289.283C1260.41 290.706 1256.62 290.868 1253.1 291.932C1250.19 292.809 1247.47 294.304 1245.17 296.291C1243.79 297.493 1242.51 298.936 1241.99 300.697C1241.47 302.458 1241.85 304.584 1243.3 305.716" fill="#F0C49B"/>
<path d="M1267.85 287.925C1266.83 290.262 1266.92 293.054 1268.08 295.322" stroke="#BA7A5D" stroke-miterlimit="10" stroke-linecap="round" stroke-linejoin="round"/>
<path d="M1256.7 291.417C1255.22 293.314 1254.98 296.088 1256.1 298.215" stroke="#BA7A5D" stroke-miterlimit="10" stroke-linecap="round" stroke-linejoin="round"/>
<path d="M881.798 72.2419C881.376 68.9859 881.159 65.6727 881.55 62.4119C881.974 58.8734 883.101 55.4848 884.22 52.1302C886.886 44.14 889.606 36.0354 894.172 29.1314C899.941 20.407 908.277 14.1581 916.44 8.08934C920.363 5.17309 924.39 2.20449 928.995 0.919875C932.362 -0.0189249 935.882 -0.0103994 939.359 0.00299466C950.371 0.0468297 961.382 0.0906668 972.394 0.134502C977.771 0.156419 983.527 0.30253 987.924 3.66322C989.765 5.07081 991.263 6.97886 993.186 8.25251C996.456 10.4199 1000.5 10.4917 1004.23 11.4634C1013.23 13.8122 1020.39 21.6149 1024.56 30.5852C1028.72 39.5556 1030.29 49.6571 1031.44 59.6272C1032.05 64.9787 1032.56 70.346 1032.84 75.7305C1033 78.8342 1033.07 82.0865 1031.82 84.8871C1030.7 87.4149 1028.64 89.2828 1026.6 90.996C1010.61 104.38 991.757 113.207 972.528 119.887C962.853 123.249 952.921 126.12 942.768 126.515C932.615 126.91 924.384 136.548 915.957 130.39C911.588 127.198 908.103 122.908 903.925 119.48C900.884 116.985 897.799 115.384 895.208 112.207C888.906 104.491 883.062 82.3775 881.798 72.2419Z" fill="#8E6182"/>
<g opacity="0.5">
<path d="M1025.94 54.988C1023.87 48.6027 1021.53 42.2211 1017.8 36.6394C1012.61 28.8818 1004.93 23.0177 996.545 18.9166C991.229 16.3158 985.548 14.3627 979.67 13.6686C972.414 12.8126 965.068 13.8878 957.916 15.3831C937.228 19.7093 916.462 28.1829 902.819 44.3276C892.736 56.2604 887.206 72.119 888.451 87.6926C889.265 97.8721 893.074 107.809 899.199 115.952C900.735 117.119 902.334 118.181 903.923 119.485C908.1 122.912 911.585 127.203 915.954 130.395C924.383 136.553 932.613 126.915 942.765 126.519C952.918 126.124 962.849 123.254 972.526 119.892C991.756 113.212 1010.6 104.384 1026.59 91.0009C1028.64 89.2877 1030.7 87.4186 1031.82 84.892C1032.58 83.1788 1032.85 81.2951 1032.91 79.3822C1030.8 71.1863 1028.56 63.0317 1025.94 54.988Z" fill="#8E6182"/>
</g>
<path opacity="0.2" d="M1025.11 104.06C1026.75 100.59 1028.39 97.1195 1030.03 93.6492C1031.3 90.9582 1032.59 88.1661 1032.67 85.1902C1032.75 81.877 1031.31 78.7477 1030.19 75.6293C1026.4 65.1345 1025.83 53.2625 1019.46 44.1058C1015.89 38.9759 1010.73 35.1209 1005.22 32.1766C995.63 27.0564 984.694 24.4824 973.827 24.7855C967.544 24.9609 961.326 26.075 955.176 27.3767C938.811 30.8409 921.917 36.1352 910.431 48.297C899.803 59.5504 895.23 75.2896 893.58 90.6806C893.213 94.1034 892.984 97.643 894.051 100.916C894.988 103.795 896.866 106.265 898.839 108.562C903.713 114.239 908.624 121.477 914.862 125.61C909.252 111.57 903.36 93.9049 907.128 79.2628C909.181 71.286 913.967 64.1884 919.912 58.4862C925.857 52.7852 932.937 48.3919 940.248 44.599C952.143 38.4268 965.61 33.6463 978.777 36.1449C989.384 38.1577 998.745 44.8279 1005.43 53.3063C1012.11 61.7848 1016.31 71.9813 1019.19 82.3872C1021.34 90.1838 1022.08 96.5642 1025.11 104.06Z" fill="white"/>
<path d="M1030.46 144.866C1027.35 159.122 1021.96 165.189 1011.02 178.068C1007.26 182.502 999.378 188.193 993.707 189.478C988.213 190.722 982.442 189.647 977.096 187.875C970.105 185.559 963.564 182.084 957.096 178.563C952.623 176.129 948.11 173.621 944.458 170.073C941.01 166.721 938.463 162.569 935.998 158.441C925.877 141.49 916.466 124.117 907.797 106.378C905.767 102.225 905.224 96.4109 905.286 91.7887C905.446 79.7828 910.811 68.1568 918.932 59.3131C927.053 50.4681 937.774 44.2716 949.12 40.3435C957.465 37.454 966.385 35.7237 975.141 36.8707C988.439 38.6132 1000.28 46.982 1008.28 57.7472C1016.28 68.5111 1020.78 81.507 1023.55 94.6283C1026.33 107.75 1030.69 114.162 1032.67 127.425C1033.3 131.664 1031.37 140.678 1030.46 144.866Z" fill="#F0C49B"/>
<path d="M920.769 108.862C921.312 105.365 922.2 101.895 923.76 98.7182C925.309 95.5633 927.486 92.7627 929.755 90.0803C933.864 85.2243 938.329 80.6703 943.103 76.4671C943.006 86.2885 948.587 96.7542 957.077 101.694C953.222 95.9907 954.532 88.0785 957.466 81.8502C960.401 75.622 964.99 70.3265 968.35 64.3174C970.093 61.1979 971.502 57.8907 972.542 54.4716C979.039 53.0092 984.483 57.3769 989.484 61.775C993.528 65.333 997.104 69.4206 1000.09 73.9027C1003.18 78.5297 1005.66 83.5976 1009.34 87.7594C1013.44 92.3804 1018.73 95.5779 1024.38 98.1678C1024.09 97.0354 1023.81 95.8701 1023.55 94.6294C1020.78 81.5081 1016.27 68.5134 1008.27 57.7483C1000.27 46.9843 988.436 38.6143 975.138 36.8718C966.383 35.7248 957.462 37.4551 949.117 40.3446C937.771 44.2727 927.05 50.4704 918.929 59.3142C910.809 68.1591 905.443 79.7839 905.283 91.7898C905.222 96.412 905.764 102.226 907.794 106.38C912.823 116.669 918.109 126.832 923.631 136.864C920.335 127.973 919.313 118.236 920.769 108.862Z" fill="#E0A988"/>
<path d="M1024.98 89.2879C1022.01 79.028 1017.14 69.4379 1012.3 59.9184C1010.09 55.5775 1007.86 51.194 1004.72 47.4729C999.298 41.0559 991.575 37.0548 983.79 33.9023C980.394 32.5264 976.876 31.2819 973.283 30.6415C972.421 29.2266 971.061 28.0248 969.031 27.1846C964.492 25.307 959.323 26.4053 954.582 27.6875C936.882 32.474 918.766 40.3034 908.506 55.5008C900.196 67.8099 898.197 83.7902 901.592 98.2485C904.987 112.707 913.424 125.675 924.108 135.992C920.5 124.957 916.871 113.068 920.233 101.956C924.874 86.6224 941.151 77.8773 948.917 63.8647C945.599 74.155 947.227 85.9223 953.215 94.9255C951.408 88.7217 951.894 81.8761 954.561 75.99C957.512 69.4732 962.861 64.403 966.992 58.5619C969.092 55.5909 970.274 52.548 971.196 49.4114C974.895 51.2366 978.136 50.1237 982.28 51.3304C984.372 51.9392 986.263 53.0911 988.046 54.3428C1001.86 64.0462 1009.94 79.7184 1019.03 93.9429C1019.78 95.1216 1020.72 96.4074 1022.11 96.59C1023.66 96.7934 1025.06 95.415 1025.43 93.8979C1025.81 92.3819 1025.42 90.7892 1024.98 89.2879Z" fill="#493244"/>
<path opacity="0.5" d="M1025.44 93.8991C1025.81 92.3819 1025.42 90.7904 1024.98 89.2891C1022.01 79.0292 1017.14 69.4391 1012.3 59.9196C1010.09 55.5787 1007.86 51.1952 1004.72 47.4741C999.298 41.0571 991.575 37.056 983.79 33.9035C980.394 32.5276 976.876 31.2832 973.283 30.6427C972.421 29.2278 971.061 28.026 969.031 27.1858C964.492 25.3082 959.323 26.4065 954.582 27.6887C936.882 32.4752 918.766 40.3046 908.506 55.502C900.196 67.8111 898.197 83.7914 901.592 98.2497C904.801 111.914 912.514 124.243 922.37 134.265C910.549 115.579 910.746 89.7481 923.322 71.4665C931.778 59.1756 944.675 50.741 957.6 43.2927C955.956 51.9209 953.699 60.4335 950.852 68.7426C956.39 62.0347 961.025 54.5815 964.591 46.6473C965.216 45.2556 965.859 43.7835 967.083 42.8727C968.446 41.8571 970.262 41.7366 971.961 41.7695C980.648 41.9338 989.246 45.1789 995.875 50.7958C1005.09 58.6009 1010.01 70.1819 1015.02 81.1674C1017.39 86.3826 1019.97 91.6769 1023.11 96.4951C1024.23 96.1602 1025.14 95.0765 1025.44 93.8991Z" fill="#493244"/>
<path d="M914.597 147.532C917.445 151.349 921.086 154.493 924.733 157.557C926.111 158.715 927.537 159.89 929.243 160.462C930.949 161.035 933.021 160.875 934.295 159.605C936.428 157.477 935.245 153.876 933.874 151.191C930.788 145.148 924.632 129.473 917.402 127.457C905.156 124.043 911.401 143.249 914.597 147.532Z" fill="#F0C49B"/>
<path d="M917.788 146.121C919.522 148.445 921.738 150.358 923.959 152.224C924.798 152.929 925.666 153.645 926.705 153.993C927.743 154.341 929.005 154.245 929.78 153.471C931.08 152.175 930.359 149.982 929.524 148.348C927.645 144.669 923.897 135.126 919.495 133.898C912.041 131.821 915.842 143.514 917.788 146.121Z" fill="#E0A988"/>
<path d="M1025.11 104.06C1026.75 100.59 1028.39 97.1195 1030.03 93.6492C1031.3 90.9582 1032.59 88.1661 1032.67 85.1902C1032.75 81.877 1031.31 78.7477 1030.19 75.6293C1026.4 65.1345 1025.83 53.2625 1019.46 44.1058C1015.89 38.9759 1010.73 35.1209 1005.22 32.1766C995.63 27.0564 984.694 24.4824 973.827 24.7855C967.544 24.9609 961.326 26.075 955.176 27.3767C938.811 30.8409 921.917 36.1352 910.431 48.297C899.803 59.5504 895.23 75.2896 893.58 90.6806C893.213 94.1034 892.984 97.643 894.051 100.916C894.988 103.795 896.866 106.265 898.839 108.562C903.713 114.239 908.624 121.477 914.862 125.61C909.252 111.57 903.36 93.9049 907.128 79.2628C909.181 71.286 913.967 64.1884 919.912 58.4862C925.857 52.7852 932.937 48.3919 940.248 44.599C952.143 38.4268 965.61 33.6463 978.777 36.1449C989.384 38.1577 998.745 44.8279 1005.43 53.3063C1012.11 61.7848 1016.31 71.9813 1019.19 82.3872C1021.34 90.1838 1022.08 96.5642 1025.11 104.06Z" fill="#8E6182"/>
<path d="M981.679 160.957C986.061 161.572 990.646 160.624 994.424 158.322" stroke="#BA7A5D" stroke-miterlimit="10" stroke-linecap="round" stroke-linejoin="round"/>
<path d="M932.396 93.7722C926.986 98.8473 923.475 105.901 922.687 113.276" stroke="#89543F" stroke-miterlimit="10" stroke-linecap="round" stroke-linejoin="round"/>
<path d="M976.63 74.8793C983.314 71.9265 991.461 72.5621 997.607 76.5146" stroke="#89543F" stroke-miterlimit="10" stroke-linecap="round" stroke-linejoin="round"/>
<path d="M1002.91 131.293C1004.94 131.193 1006.99 131.877 1008.55 133.173" stroke="#BA7A5D" stroke-miterlimit="10" stroke-linecap="round" stroke-linejoin="round"/>
<path d="M957.214 150.595C955.954 151.585 955.043 153.009 954.671 154.568" stroke="#BA7A5D" stroke-miterlimit="10" stroke-linecap="round" stroke-linejoin="round"/>
<path d="M980.872 134.299C979.343 135.209 977.769 136.106 976.031 136.487C973.759 136.986 971.398 136.569 969.11 136.151C967.604 135.876 966.098 135.599 964.591 135.324C964.455 135.515 964.328 135.71 964.185 135.898C969.246 137.742 974.305 139.586 979.365 141.431C979.734 141.566 980.231 141.596 980.602 141.493C982.938 137.084 985.417 132.753 988.051 128.515C986.21 131.003 983.531 132.717 980.872 134.299Z" fill="#E0A988"/>
<path d="M959.392 95.5852C962.988 101.815 966.462 108.261 967.912 115.307C969.362 122.353 968.545 130.176 964.186 135.899C969.246 137.744 974.306 139.587 979.366 141.432" stroke="#89543F" stroke-miterlimit="10" stroke-linecap="round" stroke-linejoin="round"/>
<path d="M934.561 127.405C934.59 118.461 945.302 111.692 953.387 115.528C951.28 115.609 949.318 115.88 947.445 116.396C941.668 117.944 937.248 122.082 934.561 127.405Z" fill="#512E21"/>
<path d="M985.35 103.427C988.084 95.7252 998.007 91.2565 1005.58 94.3407C1003.58 94.5404 1001.71 94.8193 999.887 95.2625C994.336 96.6177 989.51 99.4707 985.35 103.427Z" fill="#512E21"/>
<path opacity="0.44" d="M979.128 159.735C982.949 160.365 987.015 160.909 990.577 159.388C995.223 157.404 997.775 152.484 999.961 147.929C1000.92 145.936 1001.87 143.942 1002.83 141.949C999.888 145.616 997.678 148.874 990.702 151.704C985.301 153.895 972.009 156.634 965.263 155.958C967.772 159.276 975.361 159.114 979.128 159.735Z" fill="#E0A988"/>
<path d="M964.851 156.4C967.046 157.462 969.651 157.259 972.008 156.633C974.366 156.008 976.612 154.991 978.993 154.466C980.549 154.123 982.144 153.995 983.718 153.742C991.055 152.561 997.898 148.55 1002.51 142.727" stroke="#89543F" stroke-miterlimit="10" stroke-linecap="round" stroke-linejoin="round"/>
<path d="M951.381 111.412C947.018 105.679 938.852 103.178 932.027 105.486C934.939 102.984 938.091 100.095 941.906 100.529C944.341 100.805 946.485 102.358 948.006 104.279C949.528 106.198 950.41 109.162 951.381 111.412Z" fill="#E0A988"/>
<path d="M988.488 78.4337C985.517 77.7238 982.318 79.4857 980.763 82.1146C979.208 84.7435 979.09 88.0262 979.783 91.0009C980.476 93.9756 981.908 96.7177 983.326 99.4221C981.479 91.796 983.269 84.2954 988.488 78.4337Z" fill="#E0A988"/>
<path opacity="0.45" d="M941.704 155.105C948.539 155.105 954.08 149.564 954.08 142.729C954.08 135.894 948.539 130.353 941.704 130.353C934.869 130.353 929.328 135.894 929.328 142.729C929.328 149.564 934.869 155.105 941.704 155.105Z" fill="#E89F87"/>
<path opacity="0.45" d="M1013.21 127.576C1020.04 127.576 1025.59 122.035 1025.59 115.2C1025.59 108.365 1020.04 102.824 1013.21 102.824C1006.37 102.824 1000.83 108.365 1000.83 115.2C1000.83 122.035 1006.37 127.576 1013.21 127.576Z" fill="#E89F87"/>
<path d="M1040.7 102.895C1041.23 107.629 1040.72 112.412 1040.15 117.14C1039.94 118.926 1039.7 120.76 1038.84 122.343C1037.99 123.926 1036.37 125.227 1034.57 125.17C1031.56 125.074 1029.96 121.637 1029.13 118.74C1027.25 112.219 1021.03 96.5691 1024.93 90.157C1031.54 79.2957 1040.1 97.5846 1040.7 102.895Z" fill="#F0C49B"/>
<path d="M1037.41 104.047C1037.73 106.929 1037.42 109.84 1037.07 112.72C1036.94 113.807 1036.8 114.924 1036.28 115.888C1035.76 116.852 1034.77 117.644 1033.67 117.609C1031.84 117.55 1030.87 115.457 1030.36 113.694C1029.22 109.724 1025.43 100.196 1027.81 96.2926C1031.83 89.6784 1037.04 100.812 1037.41 104.047Z" fill="#E0A988"/>
<path d="M852.903 345.823C851.13 349.62 850.877 354.415 853.363 357.787C854.728 359.638 856.753 360.875 858.412 362.467C860.99 364.944 862.626 368.217 864.745 371.096C866.863 373.975 869.808 376.629 873.375 376.866C875.449 377.004 877.5 376.305 879.577 376.356C884.893 376.487 888.876 381.308 893.95 382.899C897.963 384.158 902.408 383.267 906.157 381.36C914.113 377.314 919.422 368.539 919.312 359.613C919.202 350.688 913.68 342.045 905.628 338.195C901.306 336.127 896.479 335.399 891.718 334.834C883.076 333.808 873.968 332.71 865.253 333.124C859.97 333.374 861.377 334.045 859.09 337.606C857.209 340.532 854.43 342.554 852.903 345.823Z" fill="#C69075"/>
<path d="M817.336 334.518C815.803 337.353 821.386 339.064 827.864 339.482C834.343 339.9 912.185 346.251 912.185 346.251L938.523 322.27C938.523 322.27 941.51 318.748 935.301 317.041C929.092 315.334 864.182 314.781 858.845 315.867C853.509 316.955 819.225 331.026 817.336 334.518Z" fill="#969696"/>
<path opacity="0.5" d="M860.257 320.132C856.771 320.777 827.307 334.032 819.172 337.71C821.17 338.655 824.382 339.258 827.863 339.482C834.342 339.9 912.185 346.251 912.185 346.251L938.522 322.269C938.522 322.269 938.57 322.213 938.639 322.114C922.142 321.524 863.733 319.491 860.257 320.132Z" fill="#969696"/>
<path d="M854.097 329.333H858.47C858.629 329.333 858.786 329.298 858.93 329.228L864.281 326.676C865.312 326.186 864.961 324.639 863.82 324.639H859.103C858.934 324.639 858.767 324.679 858.617 324.756L853.611 327.308C852.608 327.82 852.971 329.333 854.097 329.333Z" fill="white"/>
<path d="M845.348 348.904C844.871 350.069 844.451 351.369 844.837 352.568C845.189 353.66 846.16 354.454 847.209 354.921C851.041 356.622 855.487 354.532 858.781 351.94C860.648 350.47 862.374 348.824 863.929 347.03C865.496 345.223 866.914 343.22 867.603 340.93C868.292 338.639 868.169 336.014 866.833 334.03C860.138 324.084 847.508 343.628 845.348 348.904Z" fill="#F0C49B"/>
<path d="M865.558 337.525C864.411 339.513 862.947 341.316 861.24 342.848C860.038 343.925 858.236 344.893 856.909 343.975C855.835 343.233 855.758 341.672 856.025 340.394C856.583 337.718 858.199 335.278 860.445 333.72C861.82 334.766 864.182 336.48 865.558 337.525Z" fill="white"/>
<path d="M863.778 342.228C861.745 344.158 859.478 345.822 857.218 347.481C853.658 350.094 849.828 352.788 845.63 353.825C846.073 354.286 846.622 354.66 847.208 354.921C851.04 356.622 855.487 354.532 858.78 351.94C860.647 350.471 862.374 348.824 863.929 347.03C865.496 345.223 866.913 343.22 867.602 340.93C867.937 339.818 868.075 338.627 867.981 337.469C866.697 339.155 865.32 340.763 863.778 342.228Z" fill="#E0A988"/>
<path d="M896.278 372.769C900.785 372.941 905.175 371.05 908.792 368.355C912.408 365.66 915.362 362.192 918.282 358.756C921.008 355.549 923.733 352.34 926.46 349.132C931.056 343.723 935.756 338.133 937.999 331.398C938.87 328.782 938.874 325.104 936.289 324.144C935.064 323.688 933.699 324.077 932.472 324.531C923.876 327.713 916.788 333.916 910.057 340.139C903.387 346.303 896.853 352.616 890.461 359.069C887.785 361.771 884.035 364.35 886.846 368.228C888.919 371.088 892.847 372.639 896.278 372.769Z" fill="#F0C49B"/>
<path d="M937.301 328.534C936.739 331.125 935.392 333.542 933.484 335.383C932.622 336.215 931.594 336.955 930.408 337.122C929.222 337.289 927.871 336.726 927.449 335.604C927.063 334.572 927.53 333.434 928.026 332.451C929.156 330.219 930.489 328.09 932.001 326.096C934.033 326.219 935.958 327.006 937.301 328.534Z" fill="white"/>
<path d="M931.826 324.787C923.522 328.036 916.618 334.076 910.057 340.139C903.387 346.304 896.853 352.617 890.461 359.07C887.785 361.772 884.035 364.351 886.846 368.229C887.522 369.161 888.406 369.939 889.394 370.588C908.827 362.095 923.299 344.603 931.826 324.787Z" fill="#E0A988"/>
<path d="M919.383 345.559C920.456 346.555 921.965 347.064 923.423 346.919" stroke="#BA7A5D" stroke-miterlimit="10" stroke-linecap="round" stroke-linejoin="round"/>
<path d="M921.539 343.13C922.55 343.724 923.562 344.317 924.572 344.911" stroke="#BA7A5D" stroke-miterlimit="10" stroke-linecap="round" stroke-linejoin="round"/>
<path d="M900.199 363.398C901.287 364.198 902.373 364.998 903.46 365.798" stroke="#BA7A5D" stroke-miterlimit="10" stroke-linecap="round" stroke-linejoin="round"/>
<path d="M897.46 365.307C898.657 367.123 900.539 368.479 902.642 369.036" stroke="#BA7A5D" stroke-miterlimit="10" stroke-linecap="round" stroke-linejoin="round"/>
<path d="M929.608 323.347C930.022 326.401 928.131 329.247 926.278 331.71C917.043 343.975 906.308 355.257 893.591 363.858C889.901 366.354 885.988 368.645 881.677 369.766C879.003 370.461 876.107 370.679 873.52 369.711C870.932 368.743 868.742 366.394 868.565 363.638C868.356 360.384 870.807 357.615 873.236 355.441C885.883 344.114 902.361 337.466 914.078 325.18C916.319 322.831 919.105 318.749 922.452 317.971C925.676 317.221 929.176 320.161 929.608 323.347Z" fill="#F0C49B"/>
<path d="M922.096 318.075C918.907 319.045 916.237 322.913 914.077 325.179C902.36 337.465 885.881 344.112 873.235 355.439C870.807 357.614 868.356 360.384 868.564 363.637C868.665 365.207 869.432 366.636 870.542 367.762C891.596 355.972 909.517 338.663 922.096 318.075Z" fill="#E0A988"/>
<path d="M928.029 324.378C926.646 327.179 924.63 329.664 922.175 331.595C921.032 332.494 919.475 333.299 918.188 332.621C917.396 332.203 916.948 331.298 916.871 330.406C916.794 329.513 917.035 328.624 917.329 327.777C918.315 324.93 919.927 322.302 922.018 320.133C924.374 320.856 926.651 322.334 928.029 324.378Z" fill="white"/>
<path d="M895.016 350.727C896.082 353.051 898.789 354.501 901.314 354.101" stroke="#BA7A5D" stroke-miterlimit="10" stroke-linecap="round" stroke-linejoin="round"/>
<path d="M898.081 348.495C900.024 349.941 902.378 350.83 904.791 351.032" stroke="#BA7A5D" stroke-miterlimit="10" stroke-linecap="round" stroke-linejoin="round"/>
<path d="M907.852 336.879C909.033 338.824 911.143 340.176 913.404 340.436" stroke="#BA7A5D" stroke-miterlimit="10" stroke-linecap="round" stroke-linejoin="round"/>
<path d="M910.991 334.518C912.943 336.234 915.266 337.528 917.754 338.281" stroke="#BA7A5D" stroke-miterlimit="10" stroke-linecap="round" stroke-linejoin="round"/>
<path d="M867.663 345.245C877.757 338.636 886.63 330.333 896.44 323.308C899.109 321.397 901.99 319.526 905.254 319.172C908.519 318.818 912.232 320.477 913.144 323.631C913.735 325.67 913.049 327.91 911.833 329.65C910.615 331.39 908.915 332.724 907.242 334.031C904.379 336.268 901.515 338.504 898.651 340.741C892.247 345.742 885.839 350.747 879.142 355.347C875.068 358.145 865.132 365.364 860.442 360.256C855.113 354.448 863.396 348.04 867.663 345.245Z" fill="#F0C49B"/>
<path d="M911.162 325.232C909.787 327.236 908.205 329.1 906.45 330.784C905.416 331.777 904.252 332.741 902.844 333.004C901.436 333.266 899.753 332.563 899.396 331.178C899.15 330.224 899.566 329.232 900.033 328.365C901.591 325.482 903.859 322.987 906.58 321.163C908.389 321.998 910.248 323.463 911.162 325.232Z" fill="white"/>
<path d="M877.698 346.571C878.317 348.328 879.872 349.725 881.686 350.15" stroke="#BA7A5D" stroke-miterlimit="10" stroke-linecap="round" stroke-linejoin="round"/>
<path d="M882.669 342.597C883.421 344.437 885.053 345.893 886.966 346.432" stroke="#BA7A5D" stroke-miterlimit="10" stroke-linecap="round" stroke-linejoin="round"/>
<defs>
<filter id="filter0_n_4_130" x="0" y="74" width="1304" height="424" filterUnits="userSpaceOnUse" color-interpolation-filters="sRGB">
<feFlood flood-opacity="0" result="BackgroundImageFix"/>
<feBlend mode="normal" in="SourceGraphic" in2="BackgroundImageFix" result="shape"/>
<feTurbulence type="fractalNoise" baseFrequency="2 2" stitchTiles="stitch" numOctaves="3" result="noise" seed="8329" />
<feColorMatrix in="noise" type="luminanceToAlpha" result="alphaNoise" />
<feComponentTransfer in="alphaNoise" result="coloredNoise1">
<feFuncA type="discrete" tableValues="1 1 1 1 1 1 1 1 1 1 1 1 1 1 1 1 1 1 1 1 1 1 1 1 1 1 1 1 1 1 1 1 1 1 1 1 1 1 1 1 1 1 1 1 1 1 1 1 1 1 1 0 0 0 0 0 0 0 0 0 0 0 0 0 0 0 0 0 0 0 0 0 0 0 0 0 0 0 0 0 0 0 0 0 0 0 0 0 0 0 0 0 0 0 0 0 0 0 0 0 "/>
</feComponentTransfer>
<feComposite operator="in" in2="shape" in="coloredNoise1" result="noise1Clipped" />
<feFlood flood-color="#000000" result="color1Flood" />
<feComposite operator="in" in2="noise1Clipped" in="color1Flood" result="color1" />
<feMerge result="effect1_noise_4_130">
<feMergeNode in="shape" />
<feMergeNode in="color1" />
</feMerge>
</filter>
<filter id="filter1_n_4_130" x="797" y="146.607" width="392.868" height="351.326" filterUnits="userSpaceOnUse" color-interpolation-filters="sRGB">
<feFlood flood-opacity="0" result="BackgroundImageFix"/>
<feBlend mode="normal" in="SourceGraphic" in2="BackgroundImageFix" result="shape"/>
<feTurbulence type="fractalNoise" baseFrequency="2 2" stitchTiles="stitch" numOctaves="3" result="noise" seed="4376" />
<feColorMatrix in="noise" type="luminanceToAlpha" result="alphaNoise" />
<feComponentTransfer in="alphaNoise" result="coloredNoise1">
<feFuncA type="discrete" tableValues="1 1 1 1 1 1 1 1 1 1 1 1 1 1 1 1 1 1 1 1 1 1 1 1 1 1 1 1 1 1 1 1 1 1 1 1 1 1 1 1 1 1 1 1 1 1 1 1 1 1 1 0 0 0 0 0 0 0 0 0 0 0 0 0 0 0 0 0 0 0 0 0 0 0 0 0 0 0 0 0 0 0 0 0 0 0 0 0 0 0 0 0 0 0 0 0 0 0 0 0 "/>
</feComponentTransfer>
<feComposite operator="in" in2="shape" in="coloredNoise1" result="noise1Clipped" />
<feFlood flood-color="rgba(0, 0, 0, 0.25)" result="color1Flood" />
<feComposite operator="in" in2="noise1Clipped" in="color1Flood" result="color1" />
<feMerge result="effect1_noise_4_130">
<feMergeNode in="shape" />
<feMergeNode in="color1" />
</feMerge>
</filter>
<linearGradient id="paint0_linear_4_130" x1="1304" y1="73.9999" x2="9.53401" y2="525.344" gradientUnits="userSpaceOnUse">
<stop stop-color="#FE5957" stop-opacity="0.3"/>
<stop offset="0.533654" stop-color="#0C112E"/>
<stop offset="1" stop-color="#0FBDDF" stop-opacity="0.3"/>
</linearGradient>
<linearGradient id="paint1_linear_4_130" x1="1304" y1="73.9999" x2="9.53401" y2="525.344" gradientUnits="userSpaceOnUse">
<stop stop-color="#FE5957" stop-opacity="0.3"/>
<stop offset="0.533654" stop-color="#0C112E"/>
<stop offset="1" stop-color="#0FBDDF" stop-opacity="0.3"/>
</linearGradient>
<linearGradient id="paint2_linear_4_130" x1="993" y1="192.5" x2="993.434" y2="497.932" gradientUnits="userSpaceOnUse">
<stop offset="0.451923" stop-color="white"/>
<stop offset="1" stop-color="#999999"/>
</linearGradient>
</defs>
</svg>
