<svg width="62" height="62" viewBox="0 0 62 62" fill="none" xmlns="http://www.w3.org/2000/svg">
<path d="M31 0C13.879 0 0 13.879 0 31C0 48.121 13.879 62 31 62C48.121 62 62 48.121 62 31C62 13.879 48.121 0 31 0ZM33.8325 48.8548H28.0566V43.3198H33.8325V48.8548ZM33.8325 37.4073V39.2374H28.0566V36.985C28.0566 30.181 35.7991 29.1017 35.7991 24.2663C35.7991 22.063 33.8304 20.3737 31.2496 20.3737C28.5749 20.3737 26.2286 22.3446 26.2286 22.3446L22.9439 18.2579C22.9439 18.2579 26.1796 14.875 31.7636 14.875C37.0661 14.875 41.991 18.1598 41.991 23.6968C41.991 31.4436 33.8283 32.3352 33.8283 37.4052L33.8325 37.4073Z" fill="white"/>
</svg>
