<svg width="124" height="124" viewBox="0 0 124 124" fill="none" xmlns="http://www.w3.org/2000/svg">
<path d="M124 61.9824C124 27.7505 96.2416 0.00787139 62 0.0175736C27.7583 0.0272758 -4.20686e-06 27.7856 -2.71011e-06 62.0176C-1.21336e-06 96.2495 27.7583 123.992 62 123.982C96.2416 123.973 124 96.2144 124 61.9824Z" fill="#C844DE"/>
<g clip-path="url(#clip0_23_492)">
<path d="M59.786 90.7857V81.9285C59.786 80.7056 60.7774 79.7143 62.0003 79.7143C63.2232 79.7143 64.2146 80.7056 64.2146 81.9285V90.7857C64.2146 92.0086 63.2232 93 62.0003 93C60.7774 93 59.786 92.0086 59.786 90.7857ZM48.7146 86.3571V77.5C48.7146 76.2771 49.7059 75.2857 50.9288 75.2857C52.1518 75.2857 53.1431 76.2771 53.1431 77.5V86.3571C53.1431 87.58 52.1518 88.5714 50.9288 88.5714C49.7059 88.5714 48.7146 87.58 48.7146 86.3571ZM70.8574 86.3571V77.5C70.8574 76.2771 71.8488 75.2857 73.0717 75.2857C74.2946 75.2857 75.286 76.2771 75.286 77.5V86.3571C75.286 87.58 74.2946 88.5714 73.0717 88.5714C71.8488 88.5714 70.8574 87.58 70.8574 86.3571ZM59.786 62V60.4387C58.9156 60.293 58.0828 59.9585 57.3555 59.444C56.4809 58.8252 55.7948 57.9805 55.3661 57.0048L55.1974 56.581L55.0936 56.1442C54.9551 55.1238 55.5458 54.1106 56.5554 53.7569C57.5659 53.4035 58.6615 53.8276 59.1892 54.7127L59.3795 55.1192L59.4703 55.3268C59.5768 55.5252 59.7302 55.6973 59.9157 55.8285C60.1635 56.0034 60.4601 56.0976 60.7634 56.0966H63.2242C63.5871 56.0946 63.9363 55.959 64.2059 55.7161C64.4757 55.4728 64.6467 55.1387 64.686 54.7776C64.725 54.4162 64.6294 54.0524 64.4178 53.7569C64.2071 53.463 63.8968 53.2532 63.5442 53.1731L59.1892 52.2173H59.1805C57.8595 51.921 56.6945 51.1474 55.9067 50.0463C55.1185 48.9446 54.7654 47.5914 54.912 46.2448C55.0586 44.8983 55.6958 43.6523 56.7024 42.7461C57.5639 41.9709 58.6436 41.4918 59.786 41.3665V39.8571C59.786 38.6342 60.7774 37.6428 62.0003 37.6428C63.2232 37.6428 64.2146 38.6342 64.2146 39.8571V41.414C65.0852 41.5597 65.9175 41.8984 66.6451 42.4131C67.5197 43.0319 68.2057 43.8766 68.6345 44.8522L68.8032 45.2761L68.9069 45.7129C69.0454 46.7333 68.4547 47.7464 67.4452 48.1001C66.2908 48.5038 65.0248 47.8922 64.6211 46.7378C64.5207 46.4517 64.3324 46.2037 64.0848 46.0286C63.837 45.8537 63.5405 45.7595 63.2372 45.7604H60.3828L60.1882 45.7777C59.9945 45.8139 59.8134 45.9039 59.6649 46.0372C59.4674 46.215 59.3433 46.4607 59.3146 46.7249C59.286 46.9888 59.3547 47.2528 59.5092 47.4687C59.661 47.6809 59.8829 47.8322 60.1363 47.8925H60.1406L64.4957 48.8483L64.5 48.8526C65.9174 49.1687 67.1697 49.995 68.016 51.175C68.8624 52.3558 69.2446 53.809 69.0886 55.2533C68.9323 56.6971 68.2513 58.0348 67.1727 59.0072C66.338 59.7596 65.3091 60.2465 64.2146 60.4344V62C64.2146 63.2229 63.2232 64.2143 62.0003 64.2143C60.7774 64.2143 59.786 63.2229 59.786 62ZM44.286 50.9285C44.286 50.7084 44.2204 50.495 44.1 50.3144L43.9616 50.1458C43.754 49.9381 43.4725 49.8214 43.1789 49.8214C42.8852 49.8214 42.6037 49.9381 42.3961 50.1458C42.1884 50.3534 42.0717 50.6349 42.0717 50.9285C42.0717 51.2222 42.1884 51.5037 42.3961 51.7113C42.6037 51.919 42.8852 52.0357 43.1789 52.0357C43.4725 52.0357 43.754 51.919 43.9616 51.7113C44.1693 51.5037 44.286 51.2222 44.286 50.9285ZM46.5003 50.9285C46.5003 51.8094 46.1501 52.654 45.5272 53.2769C44.9043 53.8998 44.0597 54.25 43.1789 54.25C42.298 54.25 41.4534 53.8998 40.8305 53.2769C40.2076 52.654 39.8574 51.8094 39.8574 50.9285C39.8574 50.0476 40.2076 49.2031 40.8305 48.5802L41.3365 48.165C41.8781 47.8039 42.5183 47.6071 43.1789 47.6071C43.8394 47.6071 44.4796 47.8039 45.0212 48.165L45.5272 48.5802L45.9424 49.0862C46.3034 49.6278 46.5003 50.268 46.5003 50.9285ZM81.9288 50.9285C81.9288 50.7084 81.8632 50.495 81.7429 50.3144L81.6045 50.1458C81.3969 49.9381 81.1153 49.8214 80.8217 49.8214C80.5281 49.8214 80.2466 49.9381 80.0389 50.1458C79.8313 50.3534 79.7146 50.6349 79.7146 50.9285C79.7146 51.2222 79.8313 51.5037 80.0389 51.7113C80.2466 51.919 80.5281 52.0357 80.8217 52.0357C81.1153 52.0357 81.3969 51.919 81.6045 51.7113C81.8121 51.5037 81.9288 51.2222 81.9288 50.9285ZM84.1431 50.9285C84.1431 51.8094 83.793 52.654 83.1701 53.2769C82.5472 53.8998 81.7026 54.25 80.8217 54.25C79.9408 54.25 79.0962 53.8998 78.4734 53.2769C77.8505 52.654 77.5003 51.8094 77.5003 50.9285C77.5003 50.0476 77.8505 49.2031 78.4734 48.5802L78.9794 48.165C79.521 47.8039 80.1612 47.6071 80.8217 47.6071C81.4822 47.6071 82.1224 47.8039 82.6641 48.165L83.1701 48.5802L83.5852 49.0862C83.9463 49.6278 84.1431 50.268 84.1431 50.9285Z" fill="white"/>
<path d="M88.5714 37.6429C88.5714 37.0556 88.338 36.4925 87.9227 36.0773C87.5074 35.662 86.9444 35.4286 86.3571 35.4286H37.6429C37.0556 35.4286 36.4925 35.662 36.0773 36.0773C35.662 36.4925 35.4286 37.0556 35.4286 37.6429V64.2143C35.4286 64.8016 35.662 65.3646 36.0773 65.7799C36.4925 66.1951 37.0556 66.4286 37.6429 66.4286H86.3571C86.9444 66.4286 87.5074 66.1951 87.9227 65.7799C88.338 65.3646 88.5714 64.8016 88.5714 64.2143V37.6429ZM93 64.2143C93 65.9761 92.2996 67.6652 91.0538 68.911C89.8081 70.1568 88.1189 70.8571 86.3571 70.8571H37.6429C35.8811 70.8571 34.1919 70.1568 32.9461 68.911C31.7004 67.6652 31 65.9761 31 64.2143V37.6429C31 35.8811 31.7004 34.1919 32.9461 32.9461C34.1919 31.7004 35.8811 31 37.6429 31H86.3571C88.1189 31 89.8081 31.7004 91.0538 32.9461C92.2996 34.1919 93 35.8811 93 37.6429V64.2143Z" fill="white"/>
</g>
<defs>
<clipPath id="clip0_23_492">
<rect width="62" height="62" fill="white" transform="translate(31 31)"/>
</clipPath>
</defs>
</svg>
