<svg width="124" height="124" viewBox="0 0 124 124" fill="none" xmlns="http://www.w3.org/2000/svg">
<g filter="url(#filter0_n_4259_12328)">
<path d="M124 61.9824C124 27.7505 96.2416 0.00787139 62 0.0175736C27.7583 0.0272758 -4.20686e-06 27.7856 -2.71011e-06 62.0176C-1.21336e-06 96.2495 27.7583 123.992 62 123.982C96.2416 123.973 124 96.2144 124 61.9824Z" fill="url(#paint0_linear_4259_12328)"/>
</g>
<g clip-path="url(#clip0_4259_12328)">
<path d="M59.7879 90.7854V81.9283C59.7879 80.7054 60.7793 79.714 62.0022 79.714C63.2251 79.714 64.2165 80.7054 64.2165 81.9283V90.7854C64.2165 92.0084 63.2251 92.9997 62.0022 92.9997C60.7793 92.9997 59.7879 92.0084 59.7879 90.7854ZM48.7165 86.3569V77.4997C48.7165 76.2768 49.7079 75.2854 50.9308 75.2854C52.1537 75.2854 53.1451 76.2768 53.1451 77.4997V86.3569C53.1451 87.5798 52.1537 88.5712 50.9308 88.5712C49.7079 88.5712 48.7165 87.5798 48.7165 86.3569ZM70.8594 86.3569V77.4997C70.8594 76.2768 71.8507 75.2854 73.0737 75.2854C74.2966 75.2854 75.2879 76.2768 75.2879 77.4997V86.3569C75.2879 87.5798 74.2966 88.5712 73.0737 88.5712C71.8507 88.5712 70.8594 87.5798 70.8594 86.3569ZM59.7879 61.9997V60.4385C58.9176 60.2927 58.0848 59.9583 57.3574 59.4438C56.4828 58.8249 55.7968 57.9803 55.368 57.0046L55.1994 56.5808L55.0956 56.144C54.9571 55.1235 55.5478 54.1104 56.5573 53.7567C57.5679 53.4033 58.6634 53.8273 59.1911 54.7125L59.3814 55.119L59.4722 55.3266C59.5788 55.525 59.7322 55.697 59.9177 55.8283C60.1655 56.0032 60.462 56.0973 60.7653 56.0964H63.2261C63.589 56.0944 63.9383 55.9588 64.2079 55.7158C64.4777 55.4725 64.6486 55.1385 64.6879 54.7773C64.7269 54.416 64.6314 54.0522 64.4198 53.7567C64.2091 53.4627 63.8987 53.253 63.5462 53.1729L59.1911 52.2171H59.1825C57.8615 51.9207 56.6964 51.1471 55.9086 50.046C55.1205 48.9444 54.7674 47.5911 54.9139 46.2446C55.0605 44.8981 55.6978 43.652 56.7044 42.7458C57.5659 41.9707 58.6456 41.4915 59.7879 41.3662V39.8569C59.7879 38.6339 60.7793 37.6426 62.0022 37.6426C63.2251 37.6426 64.2165 38.6339 64.2165 39.8569V41.4138C65.0871 41.5595 65.9195 41.8982 66.647 42.4128C67.5217 43.0316 68.2077 43.8763 68.6364 44.852L68.8051 45.2758L68.9089 45.7126C69.0474 46.733 68.4567 47.7462 67.4471 48.0999C66.2928 48.5036 65.0268 47.8919 64.623 46.7376C64.5226 46.4515 64.3343 46.2034 64.0868 46.0283C63.839 45.8534 63.5424 45.7593 63.2391 45.7602H60.3848L60.1901 45.7775C59.9964 45.8137 59.8153 45.9036 59.6669 46.037C59.4694 46.2147 59.3453 46.4605 59.3165 46.7246C59.288 46.9885 59.3567 47.2526 59.5112 47.4685C59.6629 47.6806 59.8848 47.832 60.1383 47.8923H60.1426L64.4976 48.8481L64.502 48.8524C65.9193 49.1685 67.1717 49.9947 68.018 51.1748C68.8643 52.3555 69.2465 53.8088 69.0905 55.2531C68.9342 56.6968 68.2532 58.0345 67.1747 59.007C66.34 59.7594 65.3111 60.2462 64.2165 60.4342V61.9997C64.2165 63.2226 63.2251 64.214 62.0022 64.214C60.7793 64.214 59.7879 63.2226 59.7879 61.9997ZM44.2879 50.9283C44.2879 50.7081 44.2223 50.4947 44.102 50.3142L43.9636 50.1455C43.756 49.9379 43.4744 49.8211 43.1808 49.8211C42.8872 49.8211 42.6057 49.9379 42.398 50.1455C42.1904 50.3531 42.0737 50.6347 42.0737 50.9283C42.0737 51.2219 42.1904 51.5034 42.398 51.7111C42.6057 51.9187 42.8872 52.0354 43.1808 52.0354C43.4744 52.0354 43.756 51.9187 43.9636 51.7111C44.1712 51.5034 44.2879 51.2219 44.2879 50.9283ZM46.5022 50.9283C46.5022 51.8092 46.152 52.6538 45.5292 53.2766C44.9063 53.8995 44.0617 54.2497 43.1808 54.2497C42.2999 54.2497 41.4553 53.8995 40.8324 53.2766C40.2096 52.6538 39.8594 51.8092 39.8594 50.9283C39.8594 50.0474 40.2096 49.2028 40.8324 48.5799L41.3384 48.1648C41.8801 47.8037 42.5203 47.6069 43.1808 47.6069C43.8413 47.6069 44.4815 47.8037 45.0232 48.1648L45.5292 48.5799L45.9443 49.0859C46.3054 49.6275 46.5022 50.2678 46.5022 50.9283ZM81.9308 50.9283C81.9308 50.7081 81.8652 50.4947 81.7448 50.3142L81.6064 50.1455C81.3988 49.9379 81.1173 49.8211 80.8237 49.8211C80.53 49.8211 80.2485 49.9379 80.0409 50.1455C79.8332 50.3531 79.7165 50.6347 79.7165 50.9283C79.7165 51.2219 79.8332 51.5034 80.0409 51.7111C80.2485 51.9187 80.53 52.0354 80.8237 52.0354C81.1173 52.0354 81.3988 51.9187 81.6064 51.7111C81.8141 51.5034 81.9308 51.2219 81.9308 50.9283ZM84.1451 50.9283C84.1451 51.8092 83.7949 52.6538 83.172 53.2766C82.5491 53.8995 81.7046 54.2497 80.8237 54.2497C79.9428 54.2497 79.0982 53.8995 78.4753 53.2766C77.8524 52.6538 77.5022 51.8092 77.5022 50.9283C77.5022 50.0474 77.8524 49.2028 78.4753 48.5799L78.9813 48.1648C79.5229 47.8037 80.1631 47.6069 80.8237 47.6069C81.4842 47.6069 82.1244 47.8037 82.666 48.1648L83.172 48.5799L83.5872 49.0859C83.9483 49.6276 84.1451 50.2678 84.1451 50.9283Z" fill="white"/>
<path d="M88.5714 37.6429C88.5714 37.0556 88.338 36.4925 87.9227 36.0773C87.5075 35.662 86.9444 35.4286 86.3571 35.4286H37.6429C37.0556 35.4286 36.4925 35.662 36.0773 36.0773C35.662 36.4925 35.4286 37.0556 35.4286 37.6429V64.2143C35.4286 64.8016 35.662 65.3646 36.0773 65.7799C36.4925 66.1951 37.0556 66.4286 37.6429 66.4286H86.3571C86.9444 66.4286 87.5075 66.1951 87.9227 65.7799C88.338 65.3646 88.5714 64.8016 88.5714 64.2143V37.6429ZM93 64.2143C93 65.9761 92.2996 67.6652 91.0538 68.911C89.8081 70.1568 88.1189 70.8571 86.3571 70.8571H37.6429C35.8811 70.8571 34.1919 70.1568 32.9461 68.911C31.7004 67.6652 31 65.9761 31 64.2143V37.6429C31 35.8811 31.7004 34.1919 32.9461 32.9461C34.1919 31.7004 35.8811 31 37.6429 31H86.3571C88.1189 31 89.8081 31.7004 91.0538 32.9461C92.2996 34.1919 93 35.8811 93 37.6429V64.2143Z" fill="white"/>
</g>
<defs>
<filter id="filter0_n_4259_12328" x="0" y="0.0175781" width="124" height="123.965" filterUnits="userSpaceOnUse" color-interpolation-filters="sRGB">
<feFlood flood-opacity="0" result="BackgroundImageFix"/>
<feBlend mode="normal" in="SourceGraphic" in2="BackgroundImageFix" result="shape"/>
<feTurbulence type="fractalNoise" baseFrequency="2 2" stitchTiles="stitch" numOctaves="3" result="noise" seed="3924" />
<feColorMatrix in="noise" type="luminanceToAlpha" result="alphaNoise" />
<feComponentTransfer in="alphaNoise" result="coloredNoise1">
<feFuncA type="discrete" tableValues="1 1 1 1 1 1 1 1 1 1 1 1 1 1 1 1 1 1 1 1 1 1 1 1 1 1 1 1 1 1 1 1 1 1 1 1 1 1 1 1 1 1 1 1 1 1 1 1 1 1 1 0 0 0 0 0 0 0 0 0 0 0 0 0 0 0 0 0 0 0 0 0 0 0 0 0 0 0 0 0 0 0 0 0 0 0 0 0 0 0 0 0 0 0 0 0 0 0 0 0 "/>
</feComponentTransfer>
<feComposite operator="in" in2="shape" in="coloredNoise1" result="noise1Clipped" />
<feFlood flood-color="rgba(0, 0, 0, 0.25)" result="color1Flood" />
<feComposite operator="in" in2="noise1Clipped" in="color1Flood" result="color1" />
<feMerge result="effect1_noise_4259_12328">
<feMergeNode in="shape" />
<feMergeNode in="color1" />
</feMerge>
</filter>
<linearGradient id="paint0_linear_4259_12328" x1="62" y1="0.017566" x2="62.0351" y2="123.982" gradientUnits="userSpaceOnUse">
<stop stop-color="#C844DE"/>
<stop offset="1" stop-color="#6C2578"/>
</linearGradient>
<clipPath id="clip0_4259_12328">
<rect width="62" height="62" fill="white" transform="translate(31 31)"/>
</clipPath>
</defs>
</svg>
