<svg width="62" height="62" viewBox="0 0 62 62" fill="none" xmlns="http://www.w3.org/2000/svg">
<path d="M31.0014 25.6639C33.7416 25.6639 36.3696 24.5754 38.3072 22.6377C40.2448 20.7001 41.3334 18.0722 41.3334 15.332C41.3334 12.5917 40.2448 9.96378 38.3072 8.02616C36.3696 6.08854 33.7416 5 31.0014 5C28.2612 5 25.6332 6.08854 23.6956 8.02616C21.758 9.96378 20.6695 12.5917 20.6695 15.332C20.6695 18.0722 21.758 20.7001 23.6956 22.6377C25.6332 24.5754 28.2612 25.6639 31.0014 25.6639ZM14.8285 50.4262C14.4879 50.1227 14.224 49.7429 14.0582 49.318C13.8924 48.893 13.8295 48.4349 13.8745 47.9809C14.3125 43.743 16.3061 39.818 19.4698 36.9645C22.6335 34.111 26.7427 32.5316 31.0031 32.5316C35.2636 32.5316 39.3728 34.111 42.5365 36.9645C45.7002 39.818 47.6937 43.743 48.1318 47.9809C48.1768 48.4349 48.1139 48.893 47.9481 49.318C47.7823 49.7429 47.5183 50.1227 47.1778 50.4262C42.7487 54.4437 36.9812 56.6662 31.0014 56.6598C25.0222 56.6686 19.255 54.4457 14.8285 50.4262Z" fill="white"/>
</svg>
