<svg width="62" height="62" viewBox="0 0 62 62" fill="none" xmlns="http://www.w3.org/2000/svg">
<path d="M13.1826 8.25098C11.8754 8.2528 10.6223 8.77303 9.69812 9.69756C8.77396 10.6221 8.25423 11.8754 8.25293 13.1826C8.25293 15.9034 10.4629 18.1153 13.1826 18.1153C14.4904 18.1135 15.7441 17.5932 16.6689 16.6686C17.5937 15.744 18.1142 14.4904 18.1163 13.1826C18.1139 11.8751 17.5933 10.6217 16.6685 9.69732C15.7438 8.7729 14.4902 8.25279 13.1826 8.25098ZM16.4504 12.5216L13.216 14.0499C13.1408 14.0842 13.0582 14.0989 12.9758 14.0927C12.8934 14.0865 12.8138 14.0597 12.7446 14.0146C12.6859 13.9768 12.6359 13.927 12.5979 13.8684C12.56 13.8098 12.535 13.7438 12.5246 13.6747L12.5177 9.86671C12.5177 9.73594 12.5696 9.61053 12.6621 9.51806C12.7546 9.42559 12.88 9.37364 13.0108 9.37364C13.1415 9.37364 13.2669 9.42559 13.3594 9.51806C13.4519 9.61053 13.5038 9.73594 13.5038 9.86671V12.8212L16.0301 11.6317C16.1481 11.576 16.2834 11.5694 16.4062 11.6134C16.4671 11.6352 16.523 11.6688 16.5709 11.7122C16.6188 11.7556 16.6576 11.8081 16.6852 11.8665C16.7128 11.9249 16.7286 11.9882 16.7318 12.0528C16.7349 12.1173 16.7253 12.1818 16.7035 12.2427C16.6817 12.3035 16.6481 12.3595 16.6047 12.4073C16.5613 12.4552 16.5089 12.494 16.4504 12.5216Z" fill="white"/>
<path d="M53.8712 0H8.12876C3.64596 0 0 3.64596 0 8.13073V53.8683C0 58.3521 3.64694 62 8.12876 62H53.8712C58.354 62 62 58.3521 62 53.8683V8.13073C62 3.64694 58.354 0 53.8712 0ZM33.675 8.05313C34.2848 8.05313 34.8886 8.17327 35.4519 8.40667C36.0152 8.64007 36.527 8.98217 36.9581 9.41342C37.3891 9.84467 37.731 10.3566 37.9642 10.92C38.1973 11.4834 38.3172 12.0873 38.317 12.697C38.317 15.2616 36.6826 17.3409 33.675 17.3409C33.0652 17.3409 32.4613 17.2208 31.8979 16.9874C31.3345 16.754 30.8225 16.412 30.3913 15.9807C29.9601 15.5495 29.618 15.0376 29.3847 14.4742C29.1513 13.9107 29.0312 13.3069 29.0312 12.697C29.0312 12.0872 29.1513 11.4833 29.3847 10.9199C29.618 10.3565 29.9601 9.84452 30.3913 9.4133C30.8225 8.98207 31.3345 8.64001 31.8979 8.40663C32.4613 8.17325 33.0652 8.05313 33.675 8.05313ZM21.6842 29.6843L24.0641 22.6517C24.7006 20.9044 26.3026 18.8476 28.71 18.8476H38.6382C41.0455 18.8476 42.6485 20.9044 43.284 22.6517L45.6639 29.6843C45.8927 30.4662 45.6452 31.3138 44.9724 31.7912C44.6571 32.0151 44.2338 32.1644 43.8743 32.1644C43.452 32.1644 43.0286 32.021 42.731 31.8118L36.3231 27.3103C35.9584 27.0436 35.7132 26.6443 35.6401 26.1984C35.5671 25.7526 35.6721 25.2959 35.9325 24.9267C36.193 24.5575 36.588 24.3055 37.0326 24.2248C37.4771 24.1441 37.9355 24.2412 38.3091 24.4953L42.0602 27.33C42.2841 27.4969 42.6004 27.4508 42.7703 27.2278C42.8386 27.1164 42.8658 26.9846 42.8471 26.8553C42.8285 26.726 42.7652 26.6072 42.6682 26.5197L39.696 24.2841V20.0528L33.676 21.033L27.6561 20.0528V24.2841L24.6829 26.5197C24.5867 26.6078 24.5241 26.7265 24.5056 26.8556C24.4872 26.9848 24.5141 27.1163 24.5818 27.2278C24.6623 27.3351 24.782 27.4061 24.9147 27.4252C25.0475 27.4444 25.1824 27.4101 25.2899 27.33L29.042 24.4953C29.4155 24.2412 29.874 24.1441 30.3185 24.2248C30.763 24.3055 31.1581 24.5575 31.4185 24.9267C31.679 25.2959 31.784 25.7526 31.711 26.1984C31.6379 26.6443 31.3926 27.0436 31.028 27.3103L24.6201 31.8118C24.2816 32.0401 23.883 32.1628 23.4748 32.1644C23.1163 32.1644 22.692 32.0141 22.3787 31.7912C21.7049 31.3138 21.4564 30.4652 21.6852 29.6843H21.6842ZM41.5583 32.2224L28.7689 30.1185L30.6037 28.8121L33.675 29.2374L36.7425 28.8121L41.5583 32.2224ZM6.63286 13.1842C6.63286 9.56966 9.57163 6.62991 13.1842 6.62991C16.7968 6.62991 19.7385 9.56966 19.7385 13.1842C19.7385 16.7987 16.7968 19.7365 13.1842 19.7365C11.4473 19.7339 9.7823 19.0427 8.55423 17.8145C7.32615 16.5862 6.6352 14.9211 6.63286 13.1842ZM33.6181 49.4906H18.5264C18.1365 49.4898 17.7628 49.3345 17.4872 49.0587C17.2116 48.7829 17.0566 48.4091 17.0561 48.0192V34.7987C17.0561 33.9894 17.7132 33.3303 18.5264 33.3303H21.4681C22.2785 33.3303 22.9385 33.9894 22.9385 34.7987V42.1417H33.6191L33.6181 49.4906ZM39.9013 52.834C39.9011 53.1668 39.8355 53.4963 39.708 53.8037C39.5805 54.1111 39.3938 54.3904 39.1584 54.6256C38.923 54.8608 38.6435 55.0474 38.336 55.1746C38.0285 55.3018 37.699 55.3673 37.3662 55.3671C37.0333 55.3674 36.7037 55.3021 36.3961 55.1749C36.0884 55.0477 35.8089 54.8612 35.5734 54.626C35.3379 54.3907 35.151 54.1114 35.0235 53.8039C34.896 53.4965 34.8303 53.1669 34.8301 52.834V41.6123C34.8525 40.9548 35.1295 40.3317 35.6026 39.8745C36.0756 39.4173 36.7078 39.1617 37.3657 39.1617C38.0236 39.1617 38.6558 39.4173 39.1288 39.8745C39.6019 40.3317 39.8789 40.9548 39.9013 41.6123V52.834ZM38.8316 38.3739L27.7592 36.549C27.1082 36.4263 26.531 36.0537 26.1511 35.511C25.7712 34.9682 25.6188 34.2983 25.7265 33.6446C25.8342 32.991 26.1934 32.4054 26.7272 32.0131C27.2611 31.6208 27.9273 31.453 28.5833 31.5456L39.6557 33.3715C39.9842 33.4252 40.2989 33.5431 40.5817 33.7185C40.8646 33.894 41.1101 34.1235 41.3041 34.3939C41.4982 34.6643 41.637 34.9703 41.7126 35.2944C41.7883 35.6186 41.7992 35.9544 41.7449 36.2828C41.6351 36.946 41.2666 37.5385 40.7205 37.9303C40.1743 38.3222 39.495 38.4823 38.8316 38.3739ZM50.3618 48.0192C50.3613 48.4091 50.2062 48.7829 49.9306 49.0587C49.655 49.3345 49.2813 49.4898 48.8914 49.4906H41.1172V42.1417H44.4793V34.7987C44.4793 33.9894 45.1394 33.3303 45.9478 33.3303H48.8914C49.7008 33.3303 50.3618 33.9894 50.3618 34.7987V48.0192Z" fill="white"/>
</svg>
