<svg width="62" height="62" viewBox="0 0 62 62" fill="none" xmlns="http://www.w3.org/2000/svg">
<path d="M45.5662 32.5979C44.906 32.5987 44.2731 32.8611 43.806 33.3276C43.3389 33.7941 43.0758 34.4267 43.0742 35.0869V37.2688H48.0581V35.0719V35.0637C48.0505 34.4076 47.7846 33.7809 47.3182 33.3194C46.8518 32.8578 46.2223 32.5986 45.5662 32.5979Z" fill="white"/>
<path d="M57.9043 11.6463H30.4876C29.0093 9.87598 27.4899 8.01225 27.0962 7.44528C26.9026 7.04032 26.5981 6.69852 26.2182 6.4595C25.8382 6.22047 25.3983 6.094 24.9494 6.09473H14.0942C13.3748 6.09473 12.6936 6.41967 12.2431 6.97991L8.49251 11.6463H4.09648C3.01039 11.6475 1.96912 12.0795 1.20114 12.8475C0.43316 13.6155 0.00118634 14.6567 0 15.7428V51.8104C0.00158162 52.8962 0.43373 53.9371 1.20167 54.7048C1.96961 55.4724 3.01065 55.9042 4.09648 55.9054H57.9035C58.9893 55.9042 60.0304 55.4724 60.7983 54.7048C61.5663 53.9371 61.9984 52.8962 62 51.8104V15.7428C61.9988 14.6569 61.5669 13.6157 60.7991 12.8477C60.0313 12.0798 58.9902 11.6477 57.9043 11.6463ZM54.563 47.7983C54.5631 47.8864 54.5458 47.9736 54.5121 48.055C54.4784 48.1364 54.429 48.2104 54.3667 48.2726C54.3044 48.3349 54.2304 48.3842 54.149 48.4178C54.0675 48.4514 53.9803 48.4686 53.8922 48.4684H37.4771C37.3891 48.4685 37.3019 48.4512 37.2206 48.4176C37.1393 48.3839 37.0654 48.3346 37.0031 48.2723C36.9409 48.2101 36.8915 48.1362 36.8579 48.0549C36.8242 47.9735 36.807 47.8863 36.8071 47.7983V37.9388C36.8071 37.5683 37.1066 37.2688 37.4771 37.2688H39.5037V35.0868C39.5037 31.7456 42.2227 29.0258 45.5655 29.0258C48.909 29.0258 51.6281 31.7456 51.6281 35.0868L51.6273 35.1145V37.2688H53.8914C54.2619 37.2688 54.5622 37.5683 54.5622 37.9388L54.563 47.7983Z" fill="white"/>
</svg>
