<svg width="62" height="62" viewBox="0 0 62 62" fill="none" xmlns="http://www.w3.org/2000/svg">
<path d="M19.4266 39.3081C18.8562 39.3081 18.4718 39.3639 18.2734 39.4197V43.0715C18.509 43.1273 18.8035 43.1428 19.2096 43.1428C20.6945 43.1428 21.609 42.3926 21.609 41.1247C21.609 39.9901 20.8216 39.3081 19.4266 39.3081ZM30.2363 39.3453C29.6163 39.3453 29.2133 39.4011 28.9746 39.4569V47.5479C29.2133 47.6037 29.5977 47.6037 29.9449 47.6037C32.4776 47.6223 34.1268 46.2273 34.1268 43.2761C34.1454 40.7031 32.6419 39.3453 30.2363 39.3453Z" fill="white"/>
<path d="M37.2002 0H12.4002C10.7559 0 9.17886 0.653212 8.01613 1.81594C6.85341 2.97866 6.2002 4.55566 6.2002 6.2V55.8C6.2002 57.4443 6.85341 59.0213 8.01613 60.1841C9.17886 61.3468 10.7559 62 12.4002 62H49.6002C51.2445 62 52.8215 61.3468 53.9843 60.1841C55.147 59.0213 55.8002 57.4443 55.8002 55.8V18.6L37.2002 0ZM23.244 43.989C22.2861 44.888 20.8725 45.291 19.2264 45.291C18.9072 45.297 18.588 45.2784 18.2716 45.2352V49.6558H15.5002V37.4542C16.751 37.2682 18.0147 37.1832 19.2791 37.2C21.0058 37.2 22.2334 37.5286 23.0611 38.1889C23.8485 38.8151 24.3817 39.8412 24.3817 41.0502C24.3786 42.2654 23.9756 43.2915 23.244 43.989ZM35.0457 48.1895C33.7437 49.2714 31.7628 49.786 29.3417 49.786C27.8909 49.786 26.8648 49.693 26.1673 49.6V37.4573C27.4185 37.2753 28.6818 37.1893 29.9462 37.2C32.2929 37.2 33.8181 37.6216 35.0085 38.5206C36.295 39.4754 37.101 40.9975 37.101 43.183C37.101 45.5483 36.2361 47.182 35.0457 48.1895ZM46.5002 39.587H41.751V42.4111H46.1902V44.6865H41.751V49.6589H38.9424V37.293H46.5002V39.587ZM37.2002 21.7H34.1002V6.2L49.6002 21.7H37.2002Z" fill="white"/>
</svg>
