<svg width="124" height="124" viewBox="0 0 124 124" fill="none" xmlns="http://www.w3.org/2000/svg">
<path d="M124 61.9607C124 27.7408 96.2416 0.0175807 62 0.0392709C27.7583 0.0609612 -4.20686e-06 27.8193 -2.71011e-06 62.0393C-1.21336e-06 96.2592 27.7583 123.982 62 123.961C96.2416 123.939 124 96.1807 124 61.9607Z" fill="#F1D153"/>
<g clip-path="url(#clip0_23_499)">
<path d="M39.4545 57.7727C39.4545 55.9042 40.1968 54.1121 41.5181 52.7908C42.8394 51.4696 44.6314 50.7273 46.5 50.7273C48.3686 50.7273 50.1606 51.4696 51.4819 52.7908C52.8032 54.1121 53.5455 55.9042 53.5455 57.7727C53.5455 59.6413 52.8032 61.4333 51.4819 62.7546C50.1606 64.0759 48.3686 64.8182 46.5 64.8182C44.6314 64.8182 42.8394 64.0759 41.5181 62.7546C40.1968 61.4333 39.4545 59.6413 39.4545 57.7727ZM46.5 54.9545C45.7526 54.9545 45.0358 55.2515 44.5072 55.78C43.9787 56.3085 43.6818 57.0253 43.6818 57.7727C43.6818 58.5202 43.9787 59.237 44.5072 59.7655C45.0358 60.294 45.7526 60.5909 46.5 60.5909C47.2474 60.5909 47.9642 60.294 48.4928 59.7655C49.0213 59.237 49.3182 58.5202 49.3182 57.7727C49.3182 57.0253 49.0213 56.3085 48.4928 55.78C47.9642 55.2515 47.2474 54.9545 46.5 54.9545ZM46.5 70.4545C44.6314 70.4545 42.8394 71.1968 41.5181 72.5181C40.1968 73.8394 39.4545 75.6314 39.4545 77.5C39.4545 79.3686 40.1968 81.1606 41.5181 82.4819C42.8394 83.8032 44.6314 84.5455 46.5 84.5455C48.3686 84.5455 50.1606 83.8032 51.4819 82.4819C52.8032 81.1606 53.5455 79.3686 53.5455 77.5C53.5455 75.6314 52.8032 73.8394 51.4819 72.5181C50.1606 71.1968 48.3686 70.4545 46.5 70.4545ZM43.6818 77.5C43.6818 76.7526 43.9787 76.0358 44.5072 75.5072C45.0358 74.9787 45.7526 74.6818 46.5 74.6818C47.2474 74.6818 47.9642 74.9787 48.4928 75.5072C49.0213 76.0358 49.3182 76.7526 49.3182 77.5C49.3182 78.2474 49.0213 78.9642 48.4928 79.4928C47.9642 80.0213 47.2474 80.3182 46.5 80.3182C45.7526 80.3182 45.0358 80.0213 44.5072 79.4928C43.9787 78.9642 43.6818 78.2474 43.6818 77.5ZM59.1818 57.0682C59.1818 56.5076 59.4045 55.97 59.8009 55.5736C60.1973 55.1772 60.7349 54.9545 61.2955 54.9545H82.4318C82.9924 54.9545 83.53 55.1772 83.9264 55.5736C84.3228 55.97 84.5455 56.5076 84.5455 57.0682C84.5455 57.6288 84.3228 58.1664 83.9264 58.5627C83.53 58.9591 82.9924 59.1818 82.4318 59.1818H61.2955C60.7349 59.1818 60.1973 58.9591 59.8009 58.5627C59.4045 58.1664 59.1818 57.6288 59.1818 57.0682ZM61.2955 74.6818C60.7349 74.6818 60.1973 74.9045 59.8009 75.3009C59.4045 75.6973 59.1818 76.2349 59.1818 76.7955C59.1818 77.356 59.4045 77.8936 59.8009 78.29C60.1973 78.6864 60.7349 78.9091 61.2955 78.9091H82.4318C82.9924 78.9091 83.53 78.6864 83.9264 78.29C84.3228 77.8936 84.5455 77.356 84.5455 76.7955C84.5455 76.2349 84.3228 75.6973 83.9264 75.3009C83.53 74.9045 82.9924 74.6818 82.4318 74.6818H61.2955ZM39.4545 42.9773C39.4545 42.4167 39.6772 41.8791 40.0736 41.4827C40.47 41.0863 41.0076 40.8636 41.5682 40.8636H82.4318C82.9924 40.8636 83.53 41.0863 83.9264 41.4827C84.3228 41.8791 84.5455 42.4167 84.5455 42.9773C84.5455 43.5378 84.3228 44.0755 83.9264 44.4718C83.53 44.8682 82.9924 45.0909 82.4318 45.0909H41.5682C41.0076 45.0909 40.47 44.8682 40.0736 44.4718C39.6772 44.0755 39.4545 43.5378 39.4545 42.9773ZM41.5682 31C38.7653 31 36.0773 32.1134 34.0953 34.0953C32.1134 36.0773 31 38.7653 31 41.5682V82.4318C31 85.2347 32.1134 87.9227 34.0953 89.9047C36.0773 91.8866 38.7653 93 41.5682 93H82.4318C85.2347 93 87.9227 91.8866 89.9047 89.9047C91.8866 87.9227 93 85.2347 93 82.4318V41.5682C93 38.7653 91.8866 36.0773 89.9047 34.0953C87.9227 32.1134 85.2347 31 82.4318 31H41.5682ZM35.2273 41.5682C35.2273 39.8865 35.8953 38.2736 37.0845 37.0845C38.2736 35.8953 39.8865 35.2273 41.5682 35.2273H82.4318C84.1135 35.2273 85.7264 35.8953 86.9155 37.0845C88.1047 38.2736 88.7727 39.8865 88.7727 41.5682V82.4318C88.7727 84.1135 88.1047 85.7264 86.9155 86.9155C85.7264 88.1047 84.1135 88.7727 82.4318 88.7727H41.5682C39.8865 88.7727 38.2736 88.1047 37.0845 86.9155C35.8953 85.7264 35.2273 84.1135 35.2273 82.4318V41.5682Z" fill="white"/>
</g>
<defs>
<clipPath id="clip0_23_499">
<rect width="62" height="62" fill="white" transform="translate(31 31)"/>
</clipPath>
</defs>
</svg>
