<svg width="124" height="124" viewBox="0 0 124 124" fill="none" xmlns="http://www.w3.org/2000/svg">
<path d="M124 61.9607C124 27.7408 96.2416 0.0175883 62 0.0392786C27.7583 0.0609688 -4.20686e-06 27.8193 -2.71011e-06 62.0393C-1.21336e-06 96.2592 27.7583 123.982 62 123.961C96.2416 123.939 124 96.1807 124 61.9607Z" fill="#DB2727"/>
<path d="M32.934 31.0491L46.0936 45.0363L56.5055 42.0597L58.9118 41.3728L57.9395 43.6783L52.0105 57.7897L69.2714 48.7917L72.6337 47.0365L70.894 50.4068L61.6472 68.3064L73.3767 60.9634L76.3293 59.1156L75.1442 62.3896L70.6934 74.6813L79.8199 70.0056L82.5434 68.6115L81.4949 71.4878L77.1326 83.4503L82.9329 82.5906L83.5152 82.5063L83.9411 82.9119L92.208 90.8134L88.2875 80.4657L91.2842 74.436L81.9649 79.5176L88.5285 61.3728L76.807 67.4747L86.1063 49.1172L69.6249 59.7618L82.9049 37.5607L59.4016 50.2385L63.3144 37.4404L49.9659 40.6861L32.934 31.0491ZM31.0098 32.5112L41.0201 46.4259L37.0194 56.135L49.1184 50.1217L36.4049 71.5642L60.8601 58.7541L47.8735 82.5867L65.9016 72.4237L59.8678 85.5633L73.5576 78.7506L67.689 90.6125L78.8079 88.7528L90.8227 92.8099L82.7043 85.0531L75.4898 86.1218L73.4935 86.419L74.1843 84.523L78.1895 73.5408L69.0749 78.2081L66.3596 79.5982L67.4 76.73L71.7023 64.8481L59.2054 72.6731L55.4857 74.9987L57.4979 71.1022L67.0177 52.6764L50.1709 61.4575L47.2183 63L48.5076 59.9268L54.7581 45.0561L46.0494 47.5466L45.3424 47.7476L44.8443 47.2132L31.01 32.5112H31.0098Z" fill="white"/>
</svg>
