<svg width="124" height="124" viewBox="0 0 124 124" fill="none" xmlns="http://www.w3.org/2000/svg">
<path d="M62 124C96.2417 124 124 96.2416 124 62C124 27.7583 96.2417 0 62 0C27.7584 0 0 27.7583 0 62C0 96.2416 27.7584 124 62 124Z" fill="#68B5FB"/>
<path d="M86.8 45.4211C86.8 43.774 86.1463 42.1948 84.9836 41.03C83.8209 39.8653 82.2443 39.2106 80.6 39.2106H43.4C41.7557 39.2106 40.1791 39.8653 39.0164 41.03C37.8537 42.1948 37.2 43.774 37.2 45.4211V70.2633L37.2303 70.8759C37.371 72.2981 37.9987 73.6349 39.0164 74.6544C40.1791 75.8191 41.7557 76.4739 43.4 76.4739H49.6C51.3121 76.4739 52.7 77.8641 52.7 79.5791V83.4092L63.5046 76.9166L63.88 76.7256C64.2643 76.5607 64.679 76.4739 65.1 76.4739H80.6L81.2115 76.4435C82.6313 76.3026 83.9659 75.6738 84.9836 74.6544C86.0013 73.6349 86.629 72.2981 86.7697 70.8759L86.8 70.2633V45.4211ZM68.2 60.9475C69.9121 60.9475 71.3 62.3378 71.3 64.0528C71.3 65.7678 69.9121 67.158 68.2 67.158H49.6C47.8879 67.158 46.5 65.7678 46.5 64.0528C46.5 62.3378 47.8879 60.9475 49.6 60.9475H68.2ZM74.4 48.5264C76.1121 48.5264 77.5 49.9167 77.5 51.6317C77.5 53.3467 76.1121 54.7369 74.4 54.7369H49.6C47.8879 54.7369 46.5 53.3467 46.5 51.6317C46.5 49.9167 47.8879 48.5264 49.6 48.5264H74.4ZM93 70.2633C93 73.5576 91.6926 76.716 89.3672 79.0454C87.0417 81.3748 83.8887 82.6844 80.6 82.6844H65.9598L51.1954 91.5575C50.2377 92.1331 49.0431 92.1481 48.0712 91.5969C47.1 91.0455 46.5 90.0132 46.5 88.895V82.6844H43.4C40.1113 82.6844 36.9583 81.3748 34.6328 79.0454C32.3074 76.716 31 73.5576 31 70.2633V45.4211C31 42.1268 32.3074 38.9684 34.6328 36.639C36.9583 34.3096 40.1113 33 43.4 33H80.6C83.8887 33 87.0417 34.3096 89.3672 36.639C91.6926 38.9684 93 42.1268 93 45.4211V70.2633Z" fill="white"/>
</svg>
