<svg width="124" height="124" viewBox="0 0 124 124" fill="none" xmlns="http://www.w3.org/2000/svg">
<g filter="url(#filter0_n_12_5848)">
<path d="M62 124C96.2417 124 124 96.2417 124 62C124 27.7583 96.2417 0 62 0C27.7583 0 0 27.7583 0 62C0 96.2417 27.7583 124 62 124Z" fill="url(#paint0_linear_12_5848)"/>
</g>
<path d="M90.1818 54.4923C91.7383 54.4923 93 55.754 93 57.3105C93 70.1881 84.9995 81.1828 73.6938 85.7483C73.6744 85.8085 73.6474 85.8789 73.625 85.9629C73.4249 86.7139 73.2655 87.9569 73.2094 89.8049C73.1633 91.3274 71.9144 92.5378 70.3912 92.5378H53.6253C52.2119 92.5378 51.0175 91.4895 50.8319 90.0884C50.5787 88.1781 50.2776 86.8596 49.9787 86.0317C49.8916 85.7906 49.8137 85.6267 49.7585 85.5198C38.7443 80.8248 31 69.9791 31 57.3105C31 55.754 32.2617 54.4923 33.8182 54.4923H90.1818ZM36.796 60.1287C37.8385 69.3351 43.9279 77.0524 52.2987 80.4807C53.225 80.8602 53.8597 81.526 54.283 82.1264C54.7102 82.7325 55.0319 83.4235 55.282 84.1162C55.5714 84.9175 55.8068 85.8541 56.0141 86.9014H67.7575C67.8561 86.0158 67.9912 85.2127 68.1785 84.5098C68.3612 83.8247 68.6239 83.1092 69.0262 82.4705C69.4322 81.8262 70.0855 81.1032 71.0875 80.7229L71.9737 80.3678C80.2037 76.8857 86.1727 69.2355 87.204 60.1287H36.796Z" fill="white"/>
<path d="M47.7165 64.5087C49.1135 64.0858 50.5851 64.7996 51.1346 66.1187L51.231 66.3884L51.575 67.3957C51.9364 68.3335 52.3479 69.0693 52.7832 69.6387L53.3006 70.2662C53.8512 70.8876 54.5035 71.4916 55.2683 72.0743C56.5061 73.0174 56.7449 74.7856 55.8023 76.0236C54.859 77.2616 53.091 77.5006 51.853 76.5575C50.4814 75.5125 49.2899 74.35 48.3055 73.0623C47.3551 71.8194 46.6216 70.3573 46.0652 68.7305L45.8368 68.0232L45.768 67.7425C45.4943 66.3407 46.3203 64.9318 47.7165 64.5087Z" fill="white"/>
<path d="M75.2884 32.4058C77.3262 31.7243 79.4859 31.9411 81.3982 32.758C85.6415 34.5709 87.4274 39.7032 85.5456 43.5244C84.8324 44.9726 82.3986 49.9749 78.2387 58.5455C77.5592 59.9455 75.8739 60.5319 74.4738 59.8528C73.0736 59.1731 72.4897 57.4853 73.1693 56.0851C77.325 47.5232 79.7676 42.5004 80.49 41.0337C80.932 40.1347 80.4769 38.496 79.1827 37.943C78.3269 37.5776 77.602 37.5779 77.0773 37.7531C76.5916 37.9156 76.0289 38.3059 75.5857 39.2393C74.6513 41.2072 71.5367 47.6598 66.2477 58.5758L66.1073 58.829C65.358 60.0448 63.7958 60.5187 62.4828 59.883C61.0821 59.2044 60.4941 57.5188 61.1728 56.1181L67.4751 43.1005C69.0276 39.8866 70.0329 37.7945 70.4942 36.8229C71.5296 34.6425 73.2112 33.1006 75.2884 32.4058Z" fill="white"/>
<defs>
<filter id="filter0_n_12_5848" x="0" y="0" width="124" height="124" filterUnits="userSpaceOnUse" color-interpolation-filters="sRGB">
<feFlood flood-opacity="0" result="BackgroundImageFix"/>
<feBlend mode="normal" in="SourceGraphic" in2="BackgroundImageFix" result="shape"/>
<feTurbulence type="fractalNoise" baseFrequency="2 2" stitchTiles="stitch" numOctaves="3" result="noise" seed="1413" />
<feColorMatrix in="noise" type="luminanceToAlpha" result="alphaNoise" />
<feComponentTransfer in="alphaNoise" result="coloredNoise1">
<feFuncA type="discrete" tableValues="1 1 1 1 1 1 1 1 1 1 1 1 1 1 1 1 1 1 1 1 1 1 1 1 1 1 1 1 1 1 1 1 1 1 1 1 1 1 1 1 1 1 1 1 1 1 1 1 1 1 1 0 0 0 0 0 0 0 0 0 0 0 0 0 0 0 0 0 0 0 0 0 0 0 0 0 0 0 0 0 0 0 0 0 0 0 0 0 0 0 0 0 0 0 0 0 0 0 0 0 "/>
</feComponentTransfer>
<feComposite operator="in" in2="shape" in="coloredNoise1" result="noise1Clipped" />
<feFlood flood-color="rgba(0, 0, 0, 0.25)" result="color1Flood" />
<feComposite operator="in" in2="noise1Clipped" in="color1Flood" result="color1" />
<feMerge result="effect1_noise_12_5848">
<feMergeNode in="shape" />
<feMergeNode in="color1" />
</feMerge>
</filter>
<linearGradient id="paint0_linear_12_5848" x1="62" y1="0" x2="62" y2="124" gradientUnits="userSpaceOnUse">
<stop stop-color="#B3E04D"/>
<stop offset="1" stop-color="#617A2A"/>
</linearGradient>
</defs>
</svg>
