<svg width="124" height="124" viewBox="0 0 124 124" fill="none" xmlns="http://www.w3.org/2000/svg">
<path d="M124 61.9824C124 27.7505 96.2416 0.00787139 62 0.0175736C27.7583 0.0272758 -4.20686e-06 27.7856 -2.71011e-06 62.0176C-1.21336e-06 96.2495 27.7583 123.992 62 123.982C96.2416 123.973 124 96.2144 124 61.9824Z" fill="#C844DE"/>
<path fill-rule="evenodd" clip-rule="evenodd" d="M43.4412 45.0148C44.609 44.8172 45.7628 44.5446 46.8955 44.1986C49.9779 43.2618 53.6629 41.6672 54.7959 40.0004C55.3263 39.222 55.805 38.2302 56.301 37.2211C57.682 34.2972 59.2421 31.022 63.0649 31.022C66.7327 31.022 68.5408 34.7414 69.8495 37.4691C70.4005 38.6056 70.8586 39.5423 71.3373 40.0004C72.7562 41.3848 76.1726 43.2446 79.1654 44.2537C80.3019 44.6807 81.4969 44.9321 82.7092 44.9975C78.8658 46.7677 71.8332 48.717 63.2268 48.7342C56.5455 48.7342 49.5887 47.5977 43.4412 45.0148ZM57.8645 38.7089L58.1297 38.1785L58.1641 38.089L58.9425 36.4944C60.5715 37.2211 61.8285 37.4691 63.2302 37.4691C64.5733 37.4691 65.9406 37.2211 67.0737 36.5116C67.3905 37.0994 67.6913 37.6964 67.976 38.3025L68.1895 38.7261C64.7559 39.1049 61.2947 39.1049 57.8645 38.7261V38.7089ZM69.1951 40.6031C67.4456 40.851 65.548 41.1197 63.2302 41.1197C60.8883 41.1197 58.6428 40.8338 56.852 40.5858L56.5351 41.1162C56.184 41.5862 55.7795 42.0138 55.3298 42.3905C57.527 42.7486 60.2891 43.4202 63.2302 43.4202C66.1335 43.4202 68.6854 42.7659 71.0755 42.4111C70.6493 42.1114 70.2464 41.7798 69.8701 41.4193C69.6231 41.1717 69.4037 40.8981 69.2158 40.6031H69.1951ZM73.6619 44.0057C74.4655 44.4465 75.2863 44.8541 76.1244 45.2283C67.605 47.581 58.6074 47.581 50.0881 45.2283C51.0386 44.8495 51.9708 44.4293 52.8846 43.9678C55.5777 44.5361 59.1526 45.2076 63.2302 45.2076C67.1976 45.2076 70.6519 44.5567 73.6619 44.0057ZM65.9406 34.7208C65.0004 35.444 64.0258 35.444 63.0683 35.444C62.0765 35.444 61.4566 35.444 60.0583 34.6863C60.8917 33.5705 61.8147 32.7922 63.0683 32.7922C64.1325 32.7922 65.0348 33.5705 65.9406 34.7208ZM68.5408 85.9255C69.0711 85.2712 69.0711 84.3654 70.1353 83.4459C72.5082 81.321 75.7834 79.0376 77.8395 78.9102C78.8141 78.8585 79.9299 78.9446 81.0974 79.0548C84.4105 79.3545 88.1128 79.692 90.0242 76.4856C91.8667 73.4205 89.4215 70.0558 87.6341 67.5761C86.9074 66.5671 86.2875 65.7164 86.1084 65.0965C85.578 63.2023 85.6159 59.4277 86.2152 56.4177C86.4631 55.0539 86.8351 53.8692 87.3172 53.0702C81.527 57.1344 76.7247 62.4486 73.2659 68.6196L73.2177 68.7264C70.5245 73.5479 69.3019 79.3545 68.5408 85.9255ZM80.5326 76.9988L81.1319 77.0505H81.2386L83.0639 77.2123C83.4531 75.9725 83.949 74.6638 84.6585 73.4928C85.3301 72.3563 86.2152 71.3128 87.1037 70.3933C86.749 69.825 86.3391 69.2912 85.95 68.7436L85.6848 68.3717C83.6289 71.028 81.9045 73.9251 80.5499 76.9988H80.5326ZM84.5173 66.5498C81.9768 69.6931 79.8954 73.181 78.3354 76.9092H77.7155C77.13 76.9644 76.5273 77.0883 75.9591 77.2812C76.8774 74.9255 77.9887 72.664 79.2928 70.4966C80.7427 68.0721 82.3028 65.9299 83.8251 64.1046C83.8939 64.635 84.0041 65.1688 84.1075 65.5924C84.2154 65.9437 84.352 66.2686 84.5173 66.5671V66.5498ZM83.6839 61.1463C83.693 60.26 83.7401 59.3749 83.8251 58.491C81.1698 60.9706 78.2114 64.3354 75.7145 68.5129L75.6594 68.6024L75.0946 69.5771C73.321 72.7111 71.8332 76.3066 70.8241 80.2568C71.6277 79.646 72.46 79.0801 73.321 78.5589C74.3733 75.3958 75.7757 72.36 77.502 69.5082C79.2935 66.5263 81.3633 63.7207 83.6839 61.129V61.1463ZM88.1472 72.253C87.5047 72.9425 86.9346 73.6961 86.4459 74.5019C85.9555 75.3573 85.5517 76.2595 85.2405 77.1951C86.6594 77.0332 87.5962 76.5545 88.254 75.4938C88.7844 74.6087 88.7327 73.5652 88.1472 72.253ZM56.9932 85.9255C56.2532 85.0282 55.4349 84.1984 54.548 83.4459C52.1751 81.321 48.8999 79.0376 46.8439 78.9102C45.7558 78.8848 44.6674 78.9331 43.5859 79.0548C40.2728 79.3545 36.5705 79.692 34.6591 76.4856C32.8166 73.4205 35.2618 70.0558 37.0492 67.5761C37.7725 66.5671 38.3924 65.7164 38.5715 65.0965C39.1053 63.2023 39.0674 59.4277 38.4681 56.4177C38.2827 55.25 37.9106 54.1197 37.3661 53.0702C43.1551 57.1348 47.9561 62.449 51.414 68.6196L51.4656 68.7264C54.4317 74.0356 56.3107 79.8824 56.9932 85.9255ZM44.1507 76.9988L43.548 77.0505H43.4447L41.6194 77.2123C41.2359 75.9141 40.7007 74.6657 40.0248 73.4928C39.3313 72.3693 38.5108 71.3293 37.5796 70.3933C37.9343 69.825 38.3407 69.2912 38.7333 68.7436L38.9985 68.3717C41.0544 71.028 42.7788 73.9251 44.1335 76.9988H44.1507ZM40.166 66.5498C42.7065 69.6931 44.7879 73.181 46.3479 76.9092H46.9678C47.566 76.9632 48.1556 77.088 48.7242 77.2812C47.8063 74.9297 46.691 72.6601 45.3905 70.4966C44.0438 68.2543 42.5286 66.1175 40.8583 64.1046C40.7894 64.635 40.6792 65.1688 40.5724 65.5924C40.4645 65.9437 40.329 66.2686 40.166 66.5671V66.5498ZM40.9995 61.1463C40.9904 60.2596 40.9433 59.3736 40.8583 58.491C44.3079 61.7289 47.251 65.4672 49.5887 69.5805C51.3589 72.7145 52.8467 76.3066 53.8592 80.2568L53.6801 80.119C52.9333 79.56 52.1585 79.0393 51.3589 78.5589C50.305 75.3939 48.9033 72.3598 47.1814 69.5082C45.3898 66.5263 43.32 63.7207 40.9995 61.129V61.1463ZM36.5361 72.253C37.1732 72.959 37.7759 73.7029 38.2374 74.5019C38.7333 75.3354 39.1225 76.2721 39.4428 77.1951C38.0239 77.0332 37.0837 76.5545 36.4293 75.4938C35.899 74.6087 35.9541 73.5652 36.5361 72.253Z" fill="white"/>
<path d="M52.7219 79.995C56.1139 79.217 59.584 78.8311 63.0641 78.8448C67.1039 78.8448 70.7544 79.3407 73.7817 79.9434C74.5462 79.5347 75.3257 79.1559 76.1201 78.8069C71.8665 77.6431 67.4775 77.0478 63.0675 77.0367H61.8277C57.8609 77.1419 53.9222 77.7365 50.101 78.8069C50.9896 79.1673 51.8632 79.5634 52.7219 79.995ZM55.0259 81.4105C55.8249 81.996 56.4896 82.7468 56.9717 83.6077C61.0025 83.1497 65.0715 83.1381 69.1048 83.5733C69.3183 83.253 69.5663 82.919 69.8659 82.6159C70.293 82.2141 70.8073 81.8008 71.4088 81.3761C68.6613 80.883 65.8761 80.6295 63.0848 80.6184C59.968 80.6184 57.2748 80.9525 55.0087 81.3933L55.0259 81.4105ZM68.1302 85.3986C64.728 85.0354 61.2969 85.0354 57.8947 85.3986L58.1255 85.8567L58.1599 85.9462L58.8831 87.4512C60.2676 87.0965 61.7726 86.8141 63.2225 86.8141C64.5725 86.8141 65.9191 87.0448 67.159 87.3823L67.9717 85.7327L68.1508 85.3779L68.1302 85.3986ZM66.1671 89.0113C65.2096 88.7408 64.2208 88.5973 63.226 88.5843C62.1239 88.5843 60.9564 88.7978 59.8612 89.1181C60.7635 90.4268 61.7037 91.243 63.0469 91.243C64.2178 91.243 65.1925 90.4268 66.1671 89.0113ZM82.7084 79.0376C81.4966 79.0948 80.3011 79.34 79.1646 79.7643C76.3201 80.6968 73.6679 82.1366 71.3365 84.0141C70.8578 84.4963 70.3997 85.433 69.8487 86.5661C68.54 89.2937 66.7319 93.0132 63.0641 93.0132C59.2413 93.0132 57.6812 89.738 56.3002 86.8141C55.8042 85.7878 55.3427 84.8131 54.7952 84.0348C53.6586 82.3679 49.9736 80.7734 46.8947 79.8332C45.766 79.4783 44.611 79.2134 43.4404 79.0411C44.5563 78.552 45.6905 78.1146 46.8431 77.7289C52.0544 76.0262 57.5135 75.2056 62.9952 75.3009H63.5635C69.797 75.3698 75.2523 76.3272 79.1818 77.6566C80.3803 78.0561 81.5558 78.5164 82.7084 79.0376Z" fill="white"/>
<path fill-rule="evenodd" clip-rule="evenodd" d="M67.6901 36.1018C68.2033 36.7562 69.0677 37.6585 70.1353 38.5815C72.5048 40.7064 75.7834 42.9897 77.8395 43.1137C78.8107 43.1688 79.9299 43.0793 81.0974 42.976C84.4071 42.6729 88.1128 42.3354 90.0242 45.5417C91.8667 48.6068 89.4215 51.9716 87.6306 54.4512C86.9074 55.4603 86.2875 56.3282 86.1084 56.9481C85.578 58.8423 85.6125 62.6168 86.2152 65.6269C86.4631 66.97 86.8351 68.1582 87.3138 68.9572C81.8847 65.1401 77.322 60.2206 73.9237 54.5201L73.8548 54.434C73.6757 54.0793 73.4622 53.759 73.2693 53.4043L73.2142 53.3182C70.2468 48.0024 68.3688 42.1518 67.6901 36.1018ZM80.5292 45.0251L81.1319 44.97H81.2386L83.0639 44.8116C83.4531 46.0514 83.949 47.3601 84.6585 48.5311C85.3301 49.6676 86.2152 50.7111 87.1037 51.6306C86.7455 52.1989 86.3391 52.7465 85.95 53.2768L85.6848 53.6694C83.6277 51.0077 81.9033 48.1048 80.5499 45.0251H80.5292ZM84.5207 55.4741C81.9805 52.3364 79.898 48.8543 78.3354 45.1319L77.7155 45.1147C77.1185 45.0605 76.5301 44.9356 75.9625 44.7427C76.8809 47.0961 77.991 49.3576 79.2928 51.5273C80.6401 53.7745 82.1563 55.9159 83.8285 57.9331C83.8974 57.3889 84.0041 56.8723 84.1109 56.4315C84.2188 56.0756 84.3554 55.7565 84.5207 55.4741ZM83.6873 60.8776C83.6942 61.7708 83.7401 62.6616 83.8251 63.5502C80.6705 60.6022 77.9419 57.2291 75.718 53.5282L75.6629 53.4215L75.0946 52.4468C73.2098 49.0957 71.7751 45.5106 70.8276 41.7844C71.638 42.3882 72.4703 42.9541 73.3244 43.4822C74.1751 46.0342 75.4494 49.1165 77.5054 52.5157C79.2963 55.4913 81.3661 58.2912 83.6873 60.8776ZM88.1507 49.7709C87.5091 49.0868 86.939 48.3391 86.4493 47.5392C85.9609 46.6828 85.5572 45.7808 85.244 44.846C86.6629 44.9907 87.5996 45.4659 88.254 46.5301C88.7878 47.4152 88.7361 48.4587 88.1507 49.7709ZM56.9932 36.1018C56.4766 36.7562 55.6122 37.6585 54.548 38.5815C52.1751 40.7064 48.8999 42.9897 46.8439 43.1137C45.756 43.1414 44.6675 43.0954 43.5859 42.976C40.2728 42.6729 36.5705 42.3354 34.6591 45.5417C32.8166 48.6068 35.2618 51.9716 37.0492 54.4512C37.7725 55.4603 38.3924 56.3282 38.5715 56.9481C39.1053 58.8423 39.0674 62.6168 38.4681 65.6269C38.281 66.7887 37.9089 67.913 37.3661 68.9572C43.1555 64.8916 47.9565 59.5762 51.414 53.4043L51.4656 53.3182C54.4343 48.0026 56.3134 42.1521 56.9932 36.1018ZM44.1507 45.0286L43.548 44.9735H43.4447L41.6194 44.815C41.2302 46.0549 40.7343 47.3636 40.0248 48.5345C39.3291 49.6641 38.5141 50.6973 37.5796 51.6341C37.9343 52.2023 38.3407 52.7499 38.7333 53.2803L38.9985 53.6729C41.0556 51.0112 42.78 48.1083 44.1335 45.0286H44.1507ZM40.166 55.4741C42.7051 52.3362 44.7864 48.8541 46.3479 45.1319L46.9678 45.1147C47.5533 45.0596 48.156 44.9356 48.7242 44.7427C47.8063 47.0942 46.691 49.3638 45.3905 51.5273C44.0443 53.7744 42.5292 55.9158 40.8583 57.9331C40.7908 57.4276 40.6954 56.9263 40.5724 56.4315C40.4719 56.0986 40.3356 55.7776 40.166 55.4741ZM40.9995 60.8776C40.9926 61.7708 40.9455 62.6616 40.8583 63.5502C43.5135 61.0705 46.4719 57.7058 48.9688 53.5282L49.0239 53.4215L49.5887 52.4468C51.3589 49.3128 52.8467 45.7311 53.8592 41.7844C53.051 42.3882 52.2176 42.9541 51.3589 43.4822C50.3064 46.6393 48.9053 49.6692 47.1814 52.5157C45.3889 55.4917 43.3191 58.2914 40.9995 60.8776ZM36.5361 49.7743C37.1744 49.0855 37.7415 48.3416 38.2374 47.5426C38.7333 46.692 39.1225 45.7725 39.4428 44.8495C38.0239 44.9941 37.0837 45.4694 36.4293 46.5336C35.899 47.4187 35.9541 48.4622 36.5361 49.7743Z" fill="white"/>
</svg>
